<svg xmlns="http://www.w3.org/2000/svg" version="1.1" xmlns:xlink="http://www.w3.org/1999/xlink" width="1200" height="630" viewBox="0 0 1200 630"><rect width="1200" height="630" fill="#74b9ff"></rect><path d="M 0 126 L 0 0 L 35.94823769920643 75.6 L 71.89647539841286 0 L 107.84471309761929 75.6 L 143.79295079682572 0 L 179.74118849603215 75.6 L 215.68942619523858 0 L 251.637663894445 75.6 L 287.58590159365144 0 L 323.53413929285784 75.6 L 359.48237699206425 75.6 L 395.43061469127065 75.6 L 431.37885239047705 75.6 L 467.32709008968345 75.6 L 503.27532778888985 75.6 L 539.2235654880963 75.6 L 575.1718031873027 75.6 L 611.1200408865091 75.6 L 647.0682785857155 75.6 L 683.0165162849219 75.6 L 718.9647539841283 75.6 L 754.9129916833347 75.6 L 790.8612293825411 75.6 L 826.8094670817475 75.6 L 862.7577047809539 75.6 L 898.7059424801603 75.6 L 934.6541801793667 75.6 L 970.6024178785731 75.6 L 1006.5506555777795 75.6 L 1042.4988932769859 75.6 L 1078.4471309761923 75.6 L 1114.3953686753987 75.6 L 1150.343606374605 75.6 L 1186.2918440738115 75.6 L 1222.240081773018 75.6 L 1235.9482376992064 126 Z" fill="#81ecec" opacity="0.8"></path><path d="M 0 252 L 0 126 L 35.94823769920643 201.6 L 71.89647539841286 126 L 107.84471309761929 201.6 L 143.79295079682572 126 L 179.74118849603215 201.6 L 215.68942619523858 126 L 251.637663894445 201.6 L 287.58590159365144 126 L 323.53413929285784 201.6 L 359.48237699206425 201.6 L 395.43061469127065 201.6 L 431.37885239047705 201.6 L 467.32709008968345 201.6 L 503.27532778888985 201.6 L 539.2235654880963 201.6 L 575.1718031873027 201.6 L 611.1200408865091 201.6 L 647.0682785857155 201.6 L 683.0165162849219 201.6 L 718.9647539841283 201.6 L 754.9129916833347 201.6 L 790.8612293825411 201.6 L 826.8094670817475 201.6 L 862.7577047809539 201.6 L 898.7059424801603 201.6 L 934.6541801793667 201.6 L 970.6024178785731 201.6 L 1006.5506555777795 201.6 L 1042.4988932769859 201.6 L 1078.4471309761923 201.6 L 1114.3953686753987 201.6 L 1150.343606374605 201.6 L 1186.2918440738115 201.6 L 1222.240081773018 201.6 L 1235.9482376992064 252 Z" fill="#a29bfe" opacity="0.8"></path><path d="M 0 378 L 0 252 L 35.94823769920643 327.6 L 71.89647539841286 252 L 107.84471309761929 327.6 L 143.79295079682572 252 L 179.74118849603215 327.6 L 215.68942619523858 252 L 251.637663894445 327.6 L 287.58590159365144 252 L 323.53413929285784 327.6 L 359.48237699206425 327.6 L 395.43061469127065 327.6 L 431.37885239047705 327.6 L 467.32709008968345 327.6 L 503.27532778888985 327.6 L 539.2235654880963 327.6 L 575.1718031873027 327.6 L 611.1200408865091 327.6 L 647.0682785857155 327.6 L 683.0165162849219 327.6 L 718.9647539841283 327.6 L 754.9129916833347 327.6 L 790.8612293825411 327.6 L 826.8094670817475 327.6 L 862.7577047809539 327.6 L 898.7059424801603 327.6 L 934.6541801793667 327.6 L 970.6024178785731 327.6 L 1006.5506555777795 327.6 L 1042.4988932769859 327.6 L 1078.4471309761923 327.6 L 1114.3953686753987 327.6 L 1150.343606374605 327.6 L 1186.2918440738115 327.6 L 1222.240081773018 327.6 L 1235.9482376992064 378 Z" fill="#dfe6e9" opacity="0.8"></path><path d="M 0 504 L 0 378 L 35.94823769920643 453.6 L 71.89647539841286 378 L 107.84471309761929 453.6 L 143.79295079682572 378 L 179.74118849603215 453.6 L 215.68942619523858 378 L 251.637663894445 453.6 L 287.58590159365144 378 L 323.53413929285784 453.6 L 359.48237699206425 453.6 L 395.43061469127065 453.6 L 431.37885239047705 453.6 L 467.32709008968345 453.6 L 503.27532778888985 453.6 L 539.2235654880963 453.6 L 575.1718031873027 453.6 L 611.1200408865091 453.6 L 647.0682785857155 453.6 L 683.0165162849219 453.6 L 718.9647539841283 453.6 L 754.9129916833347 453.6 L 790.8612293825411 453.6 L 826.8094670817475 453.6 L 862.7577047809539 453.6 L 898.7059424801603 453.6 L 934.6541801793667 453.6 L 970.6024178785731 453.6 L 1006.5506555777795 453.6 L 1042.4988932769859 453.6 L 1078.4471309761923 453.6 L 1114.3953686753987 453.6 L 1150.343606374605 453.6 L 1186.2918440738115 453.6 L 1222.240081773018 453.6 L 1235.9482376992064 504 Z" fill="#b2bec3" opacity="0.8"></path><path d="M 0 630 L 0 504 L 35.94823769920643 579.6 L 71.89647539841286 504 L 107.84471309761929 579.6 L 143.79295079682572 504 L 179.74118849603215 579.6 L 215.68942619523858 504 L 251.637663894445 579.6 L 287.58590159365144 504 L 323.53413929285784 579.6 L 359.48237699206425 579.6 L 395.43061469127065 579.6 L 431.37885239047705 579.6 L 467.32709008968345 579.6 L 503.27532778888985 579.6 L 539.2235654880963 579.6 L 575.1718031873027 579.6 L 611.1200408865091 579.6 L 647.0682785857155 579.6 L 683.0165162849219 579.6 L 718.9647539841283 579.6 L 754.9129916833347 579.6 L 790.8612293825411 579.6 L 826.8094670817475 579.6 L 862.7577047809539 579.6 L 898.7059424801603 579.6 L 934.6541801793667 579.6 L 970.6024178785731 579.6 L 1006.5506555777795 579.6 L 1042.4988932769859 579.6 L 1078.4471309761923 579.6 L 1114.3953686753987 579.6 L 1150.343606374605 579.6 L 1186.2918440738115 579.6 L 1222.240081773018 579.6 L 1235.9482376992064 630 Z" fill="#81ecec" opacity="0.8"></path><rect width="1200" height="193.6" x="0" y="376.4" fill="rgba(255,255,255,0.4)"></rect><text font-family="system-ui, -apple-system, sans-serif" font-size="64" font-weight="700" text-anchor="middle" fill="rgba(255,255,255,0.5)" x="602" y="474.42812499999997"><tspan dy="0" x="602">Sterile Surgical Equipment</tspan></text><text font-family="system-ui, -apple-system, sans-serif" font-size="64" font-weight="700" text-anchor="middle" fill="#1a1a1a" x="600" y="472.42812499999997"><tspan dy="0" x="600">Sterile Surgical Equipment</tspan></text><text font-family="system-ui, -apple-system, sans-serif" font-size="64" font-weight="700" text-anchor="middle" fill="rgba(255,255,255,0.5)" x="602" y="551.228125"><tspan dy="0" x="602">Your Family Actually Needs</tspan></text><text font-family="system-ui, -apple-system, sans-serif" font-size="64" font-weight="700" text-anchor="middle" fill="#1a1a1a" x="600" y="549.228125"><tspan dy="0" x="600">Your Family Actually Needs</tspan></text><text font-family="system-ui, -apple-system, sans-serif" font-size="18" font-weight="500" fill="#1a1a1a" opacity="0.6" x="1070" y="614.2392578125"><tspan dy="0" x="1070">veguitas.com</tspan></text></svg>