<svg xmlns="http://www.w3.org/2000/svg" width="100%" height="100%" viewBox="0 0 1200 630" preserveAspectRatio="xMidYMid meet">
  <defs>
    <filter id="blur-4133448278743421" x="-20%" y="-20%" width="140%" height="140%">
      <feGaussianBlur in="SourceGraphic" stdDeviation="8" result="blur"/>
      <feColorMatrix in="blur" type="matrix" values="1 0 0 0 0.05  0 1 0 0 0.05  0 0 1 0 0.05  0 0 0 1 0" result="brighten"/>
    </filter>
    <clipPath id="clip-blur-4133448278743421">
      <rect x="40" y="211.0" width="1120" height="208.0" rx="32" ry="32"/>
    </clipPath>
  </defs>
  <rect width="1200" height="630" fill="#fafafa"/>
  <g>
    <path d="M 1109.5 27.5 Q 1131.7 162.5 1031.0 258.0 Q 897.9 335.9 763.8 259.8 Q 688.5 148.4 715.8 27.5 Q 638.0 -122.5 796.7 -147.8 Q 897.9 -228.6 1026.7 -195.5 Q 1156.1 -121.5 1131.2 27.5 Z" fill="#45aaf2" opacity="0.50"/>
<path d="M 1321.8 126.8 Q 1283.9 252.7 1156.6 284.0 Q 1065.9 346.6 942.2 341.2 Q 827.6 264.4 869.0 126.8 Q 863.2 9.8 985.3 -12.8 Q 1065.9 -174.6 1171.9 -56.8 Q 1321.5 -20.8 1295.8 126.8 Z" fill="#a3cb38" opacity="0.59"/>
<path d="M 219.5 184.1 Q 210.3 272.0 120.5 292.3 Q 58.1 363.4 -19.5 318.5 Q -64.6 255.0 -73.8 184.1 Q -87.2 100.2 3.0 88.8 Q 58.1 -10.4 131.1 57.7 Q 216.9 92.4 201.1 184.1 Z" fill="#76b041" opacity="0.43"/>
<path d="M 889.1 290.8 Q 867.5 360.2 789.6 380.4 Q 793.3 516.0 700.0 512.5 Q 626.2 468.9 534.9 455.9 Q 521.5 364.7 485.0 290.8 Q 513.4 213.5 591.6 182.4 Q 620.5 98.9 700.0 160.6 Q 777.3 104.2 809.5 181.2 Q 932.8 194.3 839.0 290.8 Z" fill="#45aaf2" opacity="0.52"/>
<path d="M 295.2 489.2 Q 250.1 562.0 214.4 627.2 Q 167.9 693.4 81.9 670.0 Q 1.3 765.7 -63.5 685.9 Q -97.5 613.0 -112.0 548.2 Q -155.4 489.2 -118.0 428.0 Q -169.9 304.7 -23.7 361.5 Q 16.7 299.8 76.8 337.5 Q 155.6 306.5 227.1 340.7 Q 270.1 409.2 251.2 489.2 Z" fill="#a3cb38" opacity="0.48"/>
  </g>
  <g>
    <!-- Frosted glass effect: blurred copy of pattern behind text box -->
    <g clip-path="url(#clip-blur-4133448278743421)">
      <rect width="1200" height="630" fill="#fafafa"/>
      <g filter="url(#blur-4133448278743421)">
        <path d="M 1109.5 27.5 Q 1131.7 162.5 1031.0 258.0 Q 897.9 335.9 763.8 259.8 Q 688.5 148.4 715.8 27.5 Q 638.0 -122.5 796.7 -147.8 Q 897.9 -228.6 1026.7 -195.5 Q 1156.1 -121.5 1131.2 27.5 Z" fill="#45aaf2" opacity="0.50"/>
<path d="M 1321.8 126.8 Q 1283.9 252.7 1156.6 284.0 Q 1065.9 346.6 942.2 341.2 Q 827.6 264.4 869.0 126.8 Q 863.2 9.8 985.3 -12.8 Q 1065.9 -174.6 1171.9 -56.8 Q 1321.5 -20.8 1295.8 126.8 Z" fill="#a3cb38" opacity="0.59"/>
<path d="M 219.5 184.1 Q 210.3 272.0 120.5 292.3 Q 58.1 363.4 -19.5 318.5 Q -64.6 255.0 -73.8 184.1 Q -87.2 100.2 3.0 88.8 Q 58.1 -10.4 131.1 57.7 Q 216.9 92.4 201.1 184.1 Z" fill="#76b041" opacity="0.43"/>
<path d="M 889.1 290.8 Q 867.5 360.2 789.6 380.4 Q 793.3 516.0 700.0 512.5 Q 626.2 468.9 534.9 455.9 Q 521.5 364.7 485.0 290.8 Q 513.4 213.5 591.6 182.4 Q 620.5 98.9 700.0 160.6 Q 777.3 104.2 809.5 181.2 Q 932.8 194.3 839.0 290.8 Z" fill="#45aaf2" opacity="0.52"/>
<path d="M 295.2 489.2 Q 250.1 562.0 214.4 627.2 Q 167.9 693.4 81.9 670.0 Q 1.3 765.7 -63.5 685.9 Q -97.5 613.0 -112.0 548.2 Q -155.4 489.2 -118.0 428.0 Q -169.9 304.7 -23.7 361.5 Q 16.7 299.8 76.8 337.5 Q 155.6 306.5 227.1 340.7 Q 270.1 409.2 251.2 489.2 Z" fill="#a3cb38" opacity="0.48"/>
      </g>
    </g>
    <!-- Semi-transparent white overlay -->
    <rect x="40" y="211.0" width="1120" height="208.0" rx="32" ry="32" fill="white" opacity="0.75"/>
    <text
          font-family="system-ui, -apple-system, sans-serif"
          font-size="64"
          font-weight="700"
          fill="#2e282a">
      <tspan x="600" y="297.4" text-anchor="middle">Sterile Surgical Equipment Your</tspan>
      <tspan x="600" y="377.4" text-anchor="middle">Family Actually Needs</tspan>
    </text>
  </g>
  <text x="1160" y="600"
        font-family="system-ui, -apple-system, sans-serif"
        font-size="20"
        font-weight="600"
        fill="#2e282a"
        opacity="0.5"
        text-anchor="end">
    veguitas.com
  </text>
</svg>