<svg xmlns="http://www.w3.org/2000/svg" version="1.1" xmlns:xlink="http://www.w3.org/1999/xlink" width="1200" height="630" viewBox="0 0 1200 630"><rect width="1200" height="630" fill="#ff9ff3"></rect><rect width="215.79373348279458" height="165.8422786856292" x="823.1241332522645" y="591.4517119868599" fill="#feca57" opacity="0.6875256508904416" transform="matrix(0.9463145472842578,0.3232472391192078,-0.3232472391192078,0.9463145472842578,267.971446201788,-264.74595598711574)" stroke-width="2" stroke="#ff9ff3"></rect><rect width="163.41366381786162" height="165.62263280486118" x="183.89771769990384" y="549.040754894756" fill="#ff6b6b" opacity="0.8915758197092951" transform="matrix(0.889679378081294,-0.45658581254445674,0.45658581254445674,0.889679378081294,-259.19303228383956,190.97758256478232)" stroke-width="2" stroke="#ff9ff3"></rect><rect width="278.1047252198124" height="186.19880301835747" x="532.5122177291604" y="546.0363463975897" fill="#48dbfb" opacity="0.6760973535166814" transform="matrix(0.9315556972376549,-0.36359865641125066,0.36359865641125066,0.9315556972376549,-186.42412974210652,287.9251797406388)" stroke-width="2" stroke="#ff9ff3"></rect><rect width="142.56651600610385" height="144.91991654053413" x="129.15670496417562" y="488.2284275239233" fill="#1dd1a1" opacity="0.7237968899330475" transform="matrix(0.991826318470682,-0.1275952741636355,0.1275952741636355,0.991826318470682,-69.90285588273355,30.158080330821463)" stroke-width="2" stroke="#ff9ff3"></rect><rect width="184.55372178152626" height="86.78329590164415" x="1192.225170850227" y="562.5798884080804" fill="#feca57" opacity="0.5657199908669504" transform="matrix(0.9334875710750027,-0.35860975258418687,0.35860975258418687,0.9334875710750027,-131.87195263653825,500.9395945391648)" stroke-width="2" stroke="#ff9ff3"></rect><rect width="132.69508935645558" height="158.2978960206596" x="457.56671308667705" y="567.2119964841082" fill="#ff6b6b" opacity="0.5470476942363304" transform="matrix(0.9150713887049676,0.4032918962408768,-0.4032918962408768,0.9150713887049676,305.16744131084704,-156.39583707038184)" stroke-width="2" stroke="#ff9ff3"></rect><rect width="225.81867049374182" height="95.94870771372095" x="1140.9370003541292" y="199.27952138922643" fill="#48dbfb" opacity="0.8404623703825972" transform="matrix(0.8966766820249066,0.4426860376302878,-0.4426860376302878,0.8966766820249066,239.0074019466315,-529.5131753318374)" stroke-width="2" stroke="#ff9ff3"></rect><rect width="222.0216345817651" height="185.7292574092864" x="1098.961877728912" y="350.59301311845564" fill="#1dd1a1" opacity="0.5749582696176707" transform="matrix(0.9411447618658763,-0.33800375325197646,0.33800375325197646,0.9411447618658763,-78.67711624330036,435.075117360995)" stroke-width="2" stroke="#ff9ff3"></rect><rect width="253.5136820696555" height="96.46078367866284" x="386.3445528320101" y="498.2941231249466" fill="#feca57" opacity="0.657298670806235" transform="matrix(0.9607742530375935,-0.2773316330678028,0.2773316330678028,0.9607742530375935,-131.44175080475338,163.73707982319678)" stroke-width="2" stroke="#ff9ff3"></rect><rect width="258.5685409893719" height="110.91499873739384" x="105.79615300507743" y="383.0182867592276" fill="#ff6b6b" opacity="0.525689165739875" transform="matrix(0.9995239701903524,0.030851791113570372,-0.030851791113570372,0.9995239701903524,13.639668651227765,-7.043924575698782)" stroke-width="2" stroke="#ff9ff3"></rect><rect width="158.4638274358921" height="129.65025273162144" x="847.9870355504697" y="479.93778813404015" fill="#48dbfb" opacity="0.6323815891043177" transform="matrix(0.9996433677155139,-0.026704632227122164,0.026704632227122164,0.9996433677155139,-14.217017070597308,24.955321076933046)" stroke-width="2" stroke="#ff9ff3"></rect><rect width="203.097065725847" height="160.99689405305486" x="1177.9738707037047" y="351.84358426890566" fill="#1dd1a1" opacity="0.8478575504571825" transform="matrix(0.981809200211806,0.18987020403279137,-0.18987020403279137,0.981809200211806,105.36440556180469,-235.07853249840696)" stroke-width="2" stroke="#ff9ff3"></rect><rect width="157.30789138942612" height="134.03995364804211" x="662.8631488858992" y="237.9561666222906" fill="#feca57" opacity="0.8099373632637157" transform="matrix(0.9997843156869493,-0.020768295702308693,0.020768295702308693,0.9997843156869493,-6.173901124082818,15.465824858563053)" stroke-width="2" stroke="#ff9ff3"></rect><rect width="229.75810468919067" height="82.27232285313985" x="1148.089273444888" y="36.936915733635004" fill="#ff6b6b" opacity="0.6711915898748011" transform="matrix(0.9471790180254184,0.32070532863113493,-0.32070532863113493,0.9471790180254184,91.74967903890138,-400.9167753716512)" stroke-width="2" stroke="#ff9ff3"></rect><rect width="110.80329236449901" height="189.39265477449658" x="793.1015693727527" y="483.7143996827631" fill="#48dbfb" opacity="0.7840835881368433" transform="matrix(0.9942798852779732,0.10680594427100241,-0.10680594427100241,0.9942798852779732,66.63123961617293,-87.3166114390425)" stroke-width="2" stroke="#ff9ff3"></rect><rect width="277.8328977615049" height="103.07200378087339" x="607.1237269010298" y="64.35080806944778" fill="#1dd1a1" opacity="0.5152170474436827" transform="matrix(0.9627987798077338,-0.27021937310403765,0.27021937310403765,0.9627987798077338,-3.5612562868516306,205.90563934487625)" stroke-width="2" stroke="#ff9ff3"></rect><rect width="131.8494325756468" height="81.67868863451048" x="949.8132887931381" y="397.8684091583172" fill="#feca57" opacity="0.5032087052030682" transform="matrix(0.8990193806451936,0.4379088412264961,-0.4379088412264961,0.8990193806451936,294.6838568168582,-400.4996721329976)" stroke-width="2" stroke="#ff9ff3"></rect><rect width="266.76888938157595" height="164.77362876068963" x="504.6151277862756" y="479.4286336910884" fill="#ff6b6b" opacity="0.7518112080164608" transform="matrix(0.9727529831693561,-0.23184398576438958,0.23184398576438958,0.9727529831693561,-112.86994765566146,163.2241587683771)" stroke-width="2" stroke="#ff9ff3"></rect><rect width="100.27633033845407" height="162.72477284894993" x="516.1824998202385" y="622.4104072727786" fill="#48dbfb" opacity="0.5660032350874902" transform="matrix(0.8756675836967502,-0.48291436390181536,0.48291436390181536,0.8756675836967502,-269.4499743191093,360.9861556667089)" stroke-width="2" stroke="#ff9ff3"></rect><rect width="299.8459891311078" height="84.51013460282661" x="884.2661465890916" y="65.23283184454834" fill="#1dd1a1" opacity="0.7715456625058448" transform="matrix(0.9336803176262708,-0.35810761577674666,0.35810761577674666,0.9336803176262708,30.094860067724085,377.479570931471)" stroke-width="2" stroke="#ff9ff3"></rect><rect width="232.73514089269239" height="106.18952311866617" x="723.345742830985" y="-30.309696282413974" fill="#feca57" opacity="0.7561711550896892" transform="matrix(0.9380838267444878,-0.3464083341959572,0.3464083341959572,0.9380838267444878,44.098898482715754,292.2944541038921)" stroke-width="2" stroke="#ff9ff3"></rect><rect width="132.2099891688911" height="91.81792564935621" x="158.96819208987313" y="409.1249202154656" fill="#ff6b6b" opacity="0.7310709157161581" transform="matrix(0.9003765553187592,0.4351115473442705,-0.4351115473442705,0.9003765553187592,220.4130631055483,-52.59989964442866)" stroke-width="2" stroke="#ff9ff3"></rect><rect width="220.95293394932196" height="171.863017298739" x="1174.6921043913553" y="46.252899254258054" fill="#48dbfb" opacity="0.5197395661664131" transform="matrix(0.9808243000225054,-0.1948940545151708,0.1948940545151708,0.9808243000225054,-1.1179482550051034,253.00644215665528)" stroke-width="2" stroke="#ff9ff3"></rect><rect width="101.71033794832891" height="82.105553949266" x="417.59634372203425" y="338.1233982107335" fill="#1dd1a1" opacity="0.8158324945102701" transform="matrix(0.9237938018682641,-0.382890338908908,0.382890338908908,0.9237938018682641,-109.48398543127053,208.26113319164799)" stroke-width="2" stroke="#ff9ff3"></rect><rect width="225.452275440699" height="91.8018860494964" x="738.2346134697044" y="115.9371376232879" fill="#feca57" opacity="0.6919784840154392" transform="matrix(0.9119063742830503,0.4103982998770114,-0.4103982998770114,0.9119063742830503,141.3822910684636,-334.97594224710497)" stroke-width="2" stroke="#ff9ff3"></rect><rect width="135.68018317847515" height="83.66649526693082" x="1171.1737898012468" y="92.42769553602227" fill="#ff6b6b" opacity="0.8418855912546028" transform="matrix(0.8736165697005707,-0.48661492901945375,0.48661492901945375,0.8736165697005707,91.25744518823467,619.891010499945)" stroke-width="2" stroke="#ff9ff3"></rect><rect width="105.14246720270116" height="142.85940441958985" x="338.05935209882443" y="451.88673475120214" fill="#48dbfb" opacity="0.7279047221388681" transform="matrix(0.9999564533385095,0.009332278750081953,-0.009332278750081953,0.9999564533385095,4.90074552210308,-3.6226848303290353)" stroke-width="2" stroke="#ff9ff3"></rect><rect width="185.97984126840407" height="198.33318013152615" x="881.3476548649982" y="145.43727290330236" fill="#1dd1a1" opacity="0.812463628019643" transform="matrix(0.8737844966493696,0.48631332843672676,-0.48631332843672676,0.8737844966493696,241.9306262740315,-442.96054967583734)" stroke-width="2" stroke="#ff9ff3"></rect><rect width="212.33041440280593" height="165.1768828429316" x="580.057813541369" y="22.55988996025141" fill="#feca57" opacity="0.8549561305221152" transform="matrix(0.9655780318101918,-0.26011356074906267,0.26011356074906267,0.9655780318101918,-3.729359891399099,182.1153259114132)" stroke-width="2" stroke="#ff9ff3"></rect><rect width="241.3609370992204" height="190.52862487841804" x="591.6811197892765" y="350.29818286766425" fill="#ff6b6b" opacity="0.8058397845034428" transform="matrix(0.9671806184317001,-0.25408984893158176,0.25408984893158176,0.9671806184317001,-89.83364033980797,195.62693391168943)" stroke-width="2" stroke="#ff9ff3"></rect><rect width="122.45209519880439" height="109.09001655349671" x="376.22359601451933" y="80.20779318798142" fill="#48dbfb" opacity="0.6482163236038021" transform="matrix(0.9999716735583072,0.007526757668369616,-0.007526757668369616,0.9999716735583072,1.0266430735823064,-3.288760392222997)" stroke-width="2" stroke="#ff9ff3"></rect><rect width="159.13032578454084" height="99.16306060379384" x="1104.6640969390166" y="219.88439291213075" fill="#1dd1a1" opacity="0.8919874810574149" transform="matrix(0.9213120116448574,0.3888240954453647,-0.3888240954453647,0.9213120116448574,197.95946205446785,-439.2531393258608)" stroke-width="2" stroke="#ff9ff3"></rect><rect width="234.3524029611181" height="87.29885244344706" x="42.342447519110394" y="61.73300699044246" fill="#feca57" opacity="0.7962568300217618" transform="matrix(0.9992764086991586,0.03803497097819722,-0.03803497097819722,0.9992764086991586,4.123644095574662,-5.991033373249834)" stroke-width="2" stroke="#ff9ff3"></rect><rect width="254.58436769877696" height="110.71855207046207" x="922.0321434900789" y="623.5762299371183" fill="#ff6b6b" opacity="0.8766558850083268" transform="matrix(0.899779600117412,-0.43634467020069145,0.43634467020069145,0.899779600117412,-191.08618574855518,525.9102654495383)" stroke-width="2" stroke="#ff9ff3"></rect><rect width="1200" height="193.6" x="0" y="376.4" fill="rgba(255,255,255,0.4)"></rect><text font-family="system-ui, -apple-system, sans-serif" font-size="64" font-weight="700" text-anchor="middle" fill="rgba(255,255,255,0.5)" x="602" y="474.42812499999997"><tspan dy="0" x="602">Best Portable Power Stations</tspan></text><text font-family="system-ui, -apple-system, sans-serif" font-size="64" font-weight="700" text-anchor="middle" fill="#1a1a1a" x="600" y="472.42812499999997"><tspan dy="0" x="600">Best Portable Power Stations</tspan></text><text font-family="system-ui, -apple-system, sans-serif" font-size="64" font-weight="700" text-anchor="middle" fill="rgba(255,255,255,0.5)" x="602" y="551.228125"><tspan dy="0" x="602">for Cuba 2025: Blackout Guide</tspan></text><text font-family="system-ui, -apple-system, sans-serif" font-size="64" font-weight="700" text-anchor="middle" fill="#1a1a1a" x="600" y="549.228125"><tspan dy="0" x="600">for Cuba 2025: Blackout Guide</tspan></text><text font-family="system-ui, -apple-system, sans-serif" font-size="18" font-weight="500" fill="#1a1a1a" opacity="0.6" x="1070" y="614.2392578125"><tspan dy="0" x="1070">veguitas.com</tspan></text></svg>