<svg xmlns="http://www.w3.org/2000/svg" version="1.1" xmlns:xlink="http://www.w3.org/1999/xlink" width="1200" height="630" viewBox="0 0 1200 630"><defs><linearGradient x1="0" y1="0" x2="0.8664188978445747" y2="0.9446192014540912" id="SvgjsLinearGradient1001"><stop stop-color="#00b894" offset="0"></stop><stop stop-color="#55efc4" offset="0.5"></stop><stop stop-color="#81ecec" offset="1"></stop></linearGradient></defs><rect width="1200" height="630" fill="url(#SvgjsLinearGradient1001)"></rect><circle r="1.746269540371777" cx="208" cy="24" fill="#000000" opacity="0.14989984464930034"></circle><circle r="2.215883681808421" cx="568" cy="32" fill="#000000" opacity="0.12935383295007963"></circle><circle r="2.7459707755995404" cx="992" cy="40" fill="#000000" opacity="0.09826681976819882"></circle><circle r="1.58550575939169" cx="56" cy="48" fill="#000000" opacity="0.10461677133143812"></circle><circle r="2.151502930828963" cx="336" cy="48" fill="#000000" opacity="0.09347432948861478"></circle><circle r="2.1980509356399094" cx="576" cy="56" fill="#000000" opacity="0.14250219636112077"></circle><circle r="2.0713383261269875" cx="1088" cy="64" fill="#000000" opacity="0.1419362972381773"></circle><circle r="2.3505155320943327" cx="1176" cy="64" fill="#000000" opacity="0.12917317873202971"></circle><circle r="2.529475351945754" cx="528" cy="72" fill="#000000" opacity="0.09296243998976582"></circle><circle r="2.531775656930737" cx="800" cy="80" fill="#000000" opacity="0.13453029027283736"></circle><circle r="1.5974575499706978" cx="32" cy="88" fill="#000000" opacity="0.1164793464246938"></circle><circle r="1.3899019921657894" cx="384" cy="88" fill="#000000" opacity="0.059457428933861946"></circle><circle r="1.2449367056174694" cx="456" cy="96" fill="#000000" opacity="0.11724080983292282"></circle><circle r="1.4484874440852389" cx="472" cy="104" fill="#000000" opacity="0.08003320967483214"></circle><circle r="2.243609019354129" cx="576" cy="136" fill="#000000" opacity="0.12210686037613326"></circle><circle r="1.8183036388631313" cx="512" cy="144" fill="#000000" opacity="0.09223842454744077"></circle><circle r="2.169228307601417" cx="208" cy="152" fill="#000000" opacity="0.10537609643326579"></circle><circle r="1.3905233676905375" cx="472" cy="152" fill="#000000" opacity="0.05744940012692005"></circle><circle r="2.349556797315239" cx="24" cy="160" fill="#000000" opacity="0.08316741809340801"></circle><circle r="2.3396600163528243" cx="632" cy="168" fill="#000000" opacity="0.1356738174639051"></circle><circle r="2.806455112268444" cx="1136" cy="168" fill="#000000" opacity="0.056636540219049014"></circle><circle r="2.5605612312480384" cx="584" cy="176" fill="#000000" opacity="0.06819360363312453"></circle><circle r="1.45996864799731" cx="1152" cy="176" fill="#000000" opacity="0.05145719114814411"></circle><circle r="1.2092896405570301" cx="824" cy="184" fill="#000000" opacity="0.10105098982707597"></circle><circle r="2.515772061219284" cx="224" cy="200" fill="#000000" opacity="0.1185022555234867"></circle><circle r="1.8714502703363594" cx="1144" cy="200" fill="#000000" opacity="0.14686640636694936"></circle><circle r="2.68056604727101" cx="1016" cy="216" fill="#000000" opacity="0.1263940478968647"></circle><circle r="1.54083897211106" cx="1008" cy="232" fill="#000000" opacity="0.0879503855958624"></circle><circle r="2.2680855595589478" cx="1112" cy="240" fill="#000000" opacity="0.0911723288969638"></circle><circle r="2.527565983998303" cx="0" cy="256" fill="#000000" opacity="0.09839375851797666"></circle><circle r="1.615555733928593" cx="56" cy="256" fill="#000000" opacity="0.1272623673429616"></circle><circle r="2.033941780828778" cx="760" cy="264" fill="#000000" opacity="0.11059596869567603"></circle><circle r="2.093911687132656" cx="120" cy="280" fill="#000000" opacity="0.09992966334787262"></circle><circle r="2.158789808998847" cx="368" cy="280" fill="#000000" opacity="0.14940661379720904"></circle><circle r="2.0559242779067395" cx="1104" cy="280" fill="#000000" opacity="0.14425587147728303"></circle><circle r="1.7285180604220618" cx="152" cy="296" fill="#000000" opacity="0.12292206457993846"></circle><circle r="1.383850694905026" cx="72" cy="328" fill="#000000" opacity="0.12156235361616527"></circle><circle r="2.336425211555408" cx="1104" cy="328" fill="#000000" opacity="0.09766360696012605"></circle><circle r="2.7389845717543366" cx="200" cy="336" fill="#000000" opacity="0.13180362450429767"></circle><circle r="2.608005587306205" cx="208" cy="336" fill="#000000" opacity="0.13092804630488497"></circle><circle r="1.8210274666483386" cx="280" cy="352" fill="#000000" opacity="0.11034832931357522"></circle><circle r="2.4741045063559506" cx="848" cy="352" fill="#000000" opacity="0.13195189964544915"></circle><circle r="1.3892276296284485" cx="1088" cy="360" fill="#000000" opacity="0.13794471060061508"></circle><circle r="2.4743032118599304" cx="960" cy="368" fill="#000000" opacity="0.09077080080538359"></circle><circle r="1.6898006164796309" cx="1192" cy="376" fill="#000000" opacity="0.1450211187219877"></circle><circle r="1.0220748290331232" cx="776" cy="392" fill="#000000" opacity="0.1026450780003371"></circle><circle r="2.3584776786220747" cx="360" cy="400" fill="#000000" opacity="0.1325622890215088"></circle><circle r="1.5943405257096481" cx="48" cy="408" fill="#000000" opacity="0.11184307773448227"></circle><circle r="1.1066333217428392" cx="88" cy="408" fill="#000000" opacity="0.07084953783162407"></circle><circle r="2.2654773353033884" cx="832" cy="408" fill="#000000" opacity="0.11900224974199197"></circle><circle r="2.6481930888860274" cx="776" cy="416" fill="#000000" opacity="0.0712288234219097"></circle><circle r="1.8669082277966926" cx="1016" cy="416" fill="#000000" opacity="0.12679887378440519"></circle><circle r="1.6345928367838989" cx="296" cy="448" fill="#000000" opacity="0.14463749482798494"></circle><circle r="2.5654142207063355" cx="848" cy="456" fill="#000000" opacity="0.08729655935942797"></circle><circle r="2.631906805177656" cx="944" cy="456" fill="#000000" opacity="0.1456234231315796"></circle><circle r="1.2341022373695516" cx="1096" cy="456" fill="#000000" opacity="0.11142351731146385"></circle><circle r="2.7620260259535625" cx="360" cy="464" fill="#000000" opacity="0.14032681838085212"></circle><circle r="2.9655893378160063" cx="1128" cy="472" fill="#000000" opacity="0.09441039325807152"></circle><circle r="2.493246172870169" cx="64" cy="480" fill="#000000" opacity="0.0709559265068305"></circle><circle r="2.459751991856529" cx="1120" cy="480" fill="#000000" opacity="0.1466987479156685"></circle><circle r="2.826473258332716" cx="16" cy="488" fill="#000000" opacity="0.1095219762345965"></circle><circle r="1.3523101664620132" cx="280" cy="488" fill="#000000" opacity="0.1469564056411954"></circle><circle r="1.4149557791825713" cx="1184" cy="496" fill="#000000" opacity="0.14898207293626536"></circle><circle r="2.841916651282003" cx="864" cy="504" fill="#000000" opacity="0.11430317423257241"></circle><circle r="2.8922708529491015" cx="1168" cy="504" fill="#000000" opacity="0.06518668528380299"></circle><circle r="2.27332909944913" cx="768" cy="520" fill="#000000" opacity="0.0632676425505298"></circle><circle r="2.1946685685548166" cx="984" cy="536" fill="#000000" opacity="0.1130182448179117"></circle><circle r="2.518711299836154" cx="600" cy="544" fill="#000000" opacity="0.10760115744573287"></circle><circle r="1.2775525693386767" cx="800" cy="560" fill="#000000" opacity="0.14699500734198873"></circle><circle r="1.3246014798903023" cx="872" cy="560" fill="#000000" opacity="0.1393608493545403"></circle><circle r="1.4577442558343512" cx="1104" cy="576" fill="#000000" opacity="0.058983482835167925"></circle><circle r="1.6911521639819744" cx="456" cy="584" fill="#000000" opacity="0.05357699116315411"></circle><circle r="1.9979832191525466" cx="760" cy="592" fill="#000000" opacity="0.07080599116754159"></circle><circle r="1.130716647396525" cx="464" cy="600" fill="#000000" opacity="0.0801722885956528"></circle><circle r="2.167395534784853" cx="760" cy="608" fill="#000000" opacity="0.11869495100822078"></circle><circle r="2.973101152315852" cx="656" cy="624" fill="#000000" opacity="0.11456946556053021"></circle><circle r="1.4495241670497587" cx="1064" cy="624" fill="#000000" opacity="0.07424251426232698"></circle><rect width="1200" height="193.6" x="0" y="376.4" fill="rgba(255,255,255,0.4)"></rect><text font-family="system-ui, -apple-system, sans-serif" font-size="64" font-weight="700" text-anchor="middle" fill="rgba(255,255,255,0.5)" x="602" y="474.42812499999997"><tspan dy="0" x="602">Best Portable Power Stations</tspan></text><text font-family="system-ui, -apple-system, sans-serif" font-size="64" font-weight="700" text-anchor="middle" fill="#1a1a1a" x="600" y="472.42812499999997"><tspan dy="0" x="600">Best Portable Power Stations</tspan></text><text font-family="system-ui, -apple-system, sans-serif" font-size="64" font-weight="700" text-anchor="middle" fill="rgba(255,255,255,0.5)" x="602" y="551.228125"><tspan dy="0" x="602">for Cuba 2025: Blackout Guide</tspan></text><text font-family="system-ui, -apple-system, sans-serif" font-size="64" font-weight="700" text-anchor="middle" fill="#1a1a1a" x="600" y="549.228125"><tspan dy="0" x="600">for Cuba 2025: Blackout Guide</tspan></text><text font-family="system-ui, -apple-system, sans-serif" font-size="18" font-weight="500" fill="#1a1a1a" opacity="0.6" x="1070" y="614.2392578125"><tspan dy="0" x="1070">veguitas.com</tspan></text></svg>