<svg xmlns="http://www.w3.org/2000/svg" width="100%" height="100%" viewBox="0 0 1200 630" preserveAspectRatio="xMidYMid meet">
  <defs>
    <filter id="blur-3176700254351746" x="-20%" y="-20%" width="140%" height="140%">
      <feGaussianBlur in="SourceGraphic" stdDeviation="8" result="blur"/>
      <feColorMatrix in="blur" type="matrix" values="1 0 0 0 0.05  0 1 0 0 0.05  0 0 1 0 0.05  0 0 0 1 0" result="brighten"/>
    </filter>
    <clipPath id="clip-blur-3176700254351746">
      <rect x="40" y="171.0" width="1120" height="288.0" rx="32" ry="32"/>
    </clipPath>
  </defs>
  <rect width="1200" height="630" fill="#fafafa"/>
  <g>
    <line x1="613.1" y1="462.3" x2="633.1" y2="221.5" stroke="#e4572e" stroke-width="2" opacity="0.02"/>
<line x1="613.1" y1="462.3" x2="809.8" y2="492.2" stroke="#e4572e" stroke-width="2" opacity="0.10"/>
<line x1="613.1" y1="462.3" x2="437.0" y2="482.3" stroke="#ffc914" stroke-width="2" opacity="0.15"/>
<line x1="1147.1" y1="231.5" x2="1050.8" y2="315.3" stroke="#45aaf2" stroke-width="2" opacity="0.24"/>
<line x1="633.1" y1="221.5" x2="842.5" y2="197.8" stroke="#ffc914" stroke-width="2" opacity="0.08"/>
<line x1="633.1" y1="221.5" x2="853.7" y2="323.9" stroke="#e4572e" stroke-width="2" opacity="0.01"/>
<line x1="188.1" y1="429.6" x2="210.1" y2="230.2" stroke="#45aaf2" stroke-width="2" opacity="0.10"/>
<line x1="188.1" y1="429.6" x2="332.0" y2="440.2" stroke="#ffc914" stroke-width="2" opacity="0.21"/>
<line x1="188.1" y1="429.6" x2="203.1" y2="248.5" stroke="#e4572e" stroke-width="2" opacity="0.14"/>
<line x1="188.1" y1="429.6" x2="173.6" y2="586.0" stroke="#ffc914" stroke-width="2" opacity="0.19"/>
<line x1="188.1" y1="429.6" x2="276.6" y2="219.7" stroke="#45aaf2" stroke-width="2" opacity="0.04"/>
<line x1="188.1" y1="429.6" x2="255.7" y2="357.0" stroke="#e4572e" stroke-width="2" opacity="0.30"/>
<line x1="1050.8" y1="315.3" x2="842.5" y2="197.8" stroke="#e4572e" stroke-width="2" opacity="0.02"/>
<line x1="1050.8" y1="315.3" x2="996.5" y2="453.2" stroke="#45aaf2" stroke-width="2" opacity="0.20"/>
<line x1="1050.8" y1="315.3" x2="1016.6" y2="452.6" stroke="#e4572e" stroke-width="2" opacity="0.22"/>
<line x1="1050.8" y1="315.3" x2="853.7" y2="323.9" stroke="#e4572e" stroke-width="2" opacity="0.11"/>
<line x1="994.5" y1="575.0" x2="809.8" y2="492.2" stroke="#45aaf2" stroke-width="2" opacity="0.10"/>
<line x1="994.5" y1="575.0" x2="996.5" y2="453.2" stroke="#45aaf2" stroke-width="2" opacity="0.26"/>
<line x1="994.5" y1="575.0" x2="925.5" y2="542.4" stroke="#e4572e" stroke-width="2" opacity="0.35"/>
<line x1="994.5" y1="575.0" x2="1016.6" y2="452.6" stroke="#45aaf2" stroke-width="2" opacity="0.25"/>
<line x1="22.9" y1="159.0" x2="210.1" y2="230.2" stroke="#ffc914" stroke-width="2" opacity="0.10"/>
<line x1="22.9" y1="159.0" x2="203.1" y2="248.5" stroke="#e4572e" stroke-width="2" opacity="0.10"/>
<line x1="330.1" y1="52.3" x2="422.4" y2="11.1" stroke="#e4572e" stroke-width="2" opacity="0.30"/>
<line x1="330.1" y1="52.3" x2="210.1" y2="230.2" stroke="#e4572e" stroke-width="2" opacity="0.07"/>
<line x1="330.1" y1="52.3" x2="203.1" y2="248.5" stroke="#45aaf2" stroke-width="2" opacity="0.03"/>
<line x1="330.1" y1="52.3" x2="276.6" y2="219.7" stroke="#e4572e" stroke-width="2" opacity="0.15"/>
<line x1="809.8" y1="492.2" x2="996.5" y2="453.2" stroke="#ffc914" stroke-width="2" opacity="0.12"/>
<line x1="809.8" y1="492.2" x2="925.5" y2="542.4" stroke="#e4572e" stroke-width="2" opacity="0.25"/>
<line x1="809.8" y1="492.2" x2="1016.6" y2="452.6" stroke="#e4572e" stroke-width="2" opacity="0.08"/>
<line x1="809.8" y1="492.2" x2="853.7" y2="323.9" stroke="#45aaf2" stroke-width="2" opacity="0.15"/>
<line x1="842.5" y1="197.8" x2="845.0" y2="4.0" stroke="#45aaf2" stroke-width="2" opacity="0.11"/>
<line x1="842.5" y1="197.8" x2="853.7" y2="323.9" stroke="#ffc914" stroke-width="2" opacity="0.25"/>
<line x1="996.5" y1="453.2" x2="925.5" y2="542.4" stroke="#e4572e" stroke-width="2" opacity="0.27"/>
<line x1="996.5" y1="453.2" x2="1016.6" y2="452.6" stroke="#ffc914" stroke-width="2" opacity="0.46"/>
<line x1="996.5" y1="453.2" x2="853.7" y2="323.9" stroke="#45aaf2" stroke-width="2" opacity="0.11"/>
<line x1="210.1" y1="230.2" x2="332.0" y2="440.2" stroke="#e4572e" stroke-width="2" opacity="0.01"/>
<line x1="210.1" y1="230.2" x2="203.1" y2="248.5" stroke="#45aaf2" stroke-width="2" opacity="0.46"/>
<line x1="210.1" y1="230.2" x2="276.6" y2="219.7" stroke="#45aaf2" stroke-width="2" opacity="0.37"/>
<line x1="210.1" y1="230.2" x2="255.7" y2="357.0" stroke="#45aaf2" stroke-width="2" opacity="0.23"/>
<line x1="925.5" y1="542.4" x2="1016.6" y2="452.6" stroke="#45aaf2" stroke-width="2" opacity="0.24"/>
<line x1="925.5" y1="542.4" x2="853.7" y2="323.9" stroke="#e4572e" stroke-width="2" opacity="0.04"/>
<line x1="1016.6" y1="452.6" x2="853.7" y2="323.9" stroke="#ffc914" stroke-width="2" opacity="0.08"/>
<line x1="332.0" y1="440.2" x2="203.1" y2="248.5" stroke="#ffc914" stroke-width="2" opacity="0.04"/>
<line x1="332.0" y1="440.2" x2="173.6" y2="586.0" stroke="#e4572e" stroke-width="2" opacity="0.07"/>
<line x1="332.0" y1="440.2" x2="437.0" y2="482.3" stroke="#ffc914" stroke-width="2" opacity="0.27"/>
<line x1="332.0" y1="440.2" x2="276.6" y2="219.7" stroke="#ffc914" stroke-width="2" opacity="0.05"/>
<line x1="332.0" y1="440.2" x2="255.7" y2="357.0" stroke="#e4572e" stroke-width="2" opacity="0.27"/>
<line x1="203.1" y1="248.5" x2="276.6" y2="219.7" stroke="#45aaf2" stroke-width="2" opacity="0.34"/>
<line x1="203.1" y1="248.5" x2="255.7" y2="357.0" stroke="#ffc914" stroke-width="2" opacity="0.26"/>
<line x1="173.6" y1="586.0" x2="255.7" y2="357.0" stroke="#ffc914" stroke-width="2" opacity="0.01"/>
<line x1="437.0" y1="482.3" x2="255.7" y2="357.0" stroke="#e4572e" stroke-width="2" opacity="0.06"/>
<line x1="276.6" y1="219.7" x2="255.7" y2="357.0" stroke="#45aaf2" stroke-width="2" opacity="0.22"/>
<circle cx="613.1" cy="462.3" r="13.5" fill="#e4572e" opacity="0.7"/>
<circle cx="1147.1" cy="231.5" r="15.1" fill="#45aaf2" opacity="0.7"/>
<circle cx="633.1" cy="221.5" r="11.1" fill="#ffc914" opacity="0.7"/>
<circle cx="188.1" cy="429.6" r="8.6" fill="#e4572e" opacity="0.7"/>
<circle cx="1050.8" cy="315.3" r="12.3" fill="#45aaf2" opacity="0.7"/>
<circle cx="994.5" cy="575.0" r="19.8" fill="#ffc914" opacity="0.7"/>
<circle cx="22.9" cy="159.0" r="11.9" fill="#e4572e" opacity="0.7"/>
<circle cx="330.1" cy="52.3" r="6.9" fill="#45aaf2" opacity="0.7"/>
<circle cx="809.8" cy="492.2" r="15.5" fill="#ffc914" opacity="0.7"/>
<circle cx="422.4" cy="11.1" r="19.2" fill="#e4572e" opacity="0.7"/>
<circle cx="842.5" cy="197.8" r="10.8" fill="#45aaf2" opacity="0.7"/>
<circle cx="996.5" cy="453.2" r="8.6" fill="#ffc914" opacity="0.7"/>
<circle cx="210.1" cy="230.2" r="14.6" fill="#e4572e" opacity="0.7"/>
<circle cx="925.5" cy="542.4" r="7.2" fill="#45aaf2" opacity="0.7"/>
<circle cx="1016.6" cy="452.6" r="9.3" fill="#ffc914" opacity="0.7"/>
<circle cx="845.0" cy="4.0" r="17.4" fill="#e4572e" opacity="0.7"/>
<circle cx="332.0" cy="440.2" r="12.1" fill="#45aaf2" opacity="0.7"/>
<circle cx="203.1" cy="248.5" r="12.0" fill="#ffc914" opacity="0.7"/>
<circle cx="173.6" cy="586.0" r="8.0" fill="#e4572e" opacity="0.7"/>
<circle cx="853.7" cy="323.9" r="19.3" fill="#45aaf2" opacity="0.7"/>
<circle cx="437.0" cy="482.3" r="13.7" fill="#ffc914" opacity="0.7"/>
<circle cx="276.6" cy="219.7" r="16.3" fill="#e4572e" opacity="0.7"/>
<circle cx="255.7" cy="357.0" r="13.0" fill="#45aaf2" opacity="0.7"/>
  </g>
  <g>
    <!-- Frosted glass effect: blurred copy of pattern behind text box -->
    <g clip-path="url(#clip-blur-3176700254351746)">
      <rect width="1200" height="630" fill="#fafafa"/>
      <g filter="url(#blur-3176700254351746)">
        <line x1="613.1" y1="462.3" x2="633.1" y2="221.5" stroke="#e4572e" stroke-width="2" opacity="0.02"/>
<line x1="613.1" y1="462.3" x2="809.8" y2="492.2" stroke="#e4572e" stroke-width="2" opacity="0.10"/>
<line x1="613.1" y1="462.3" x2="437.0" y2="482.3" stroke="#ffc914" stroke-width="2" opacity="0.15"/>
<line x1="1147.1" y1="231.5" x2="1050.8" y2="315.3" stroke="#45aaf2" stroke-width="2" opacity="0.24"/>
<line x1="633.1" y1="221.5" x2="842.5" y2="197.8" stroke="#ffc914" stroke-width="2" opacity="0.08"/>
<line x1="633.1" y1="221.5" x2="853.7" y2="323.9" stroke="#e4572e" stroke-width="2" opacity="0.01"/>
<line x1="188.1" y1="429.6" x2="210.1" y2="230.2" stroke="#45aaf2" stroke-width="2" opacity="0.10"/>
<line x1="188.1" y1="429.6" x2="332.0" y2="440.2" stroke="#ffc914" stroke-width="2" opacity="0.21"/>
<line x1="188.1" y1="429.6" x2="203.1" y2="248.5" stroke="#e4572e" stroke-width="2" opacity="0.14"/>
<line x1="188.1" y1="429.6" x2="173.6" y2="586.0" stroke="#ffc914" stroke-width="2" opacity="0.19"/>
<line x1="188.1" y1="429.6" x2="276.6" y2="219.7" stroke="#45aaf2" stroke-width="2" opacity="0.04"/>
<line x1="188.1" y1="429.6" x2="255.7" y2="357.0" stroke="#e4572e" stroke-width="2" opacity="0.30"/>
<line x1="1050.8" y1="315.3" x2="842.5" y2="197.8" stroke="#e4572e" stroke-width="2" opacity="0.02"/>
<line x1="1050.8" y1="315.3" x2="996.5" y2="453.2" stroke="#45aaf2" stroke-width="2" opacity="0.20"/>
<line x1="1050.8" y1="315.3" x2="1016.6" y2="452.6" stroke="#e4572e" stroke-width="2" opacity="0.22"/>
<line x1="1050.8" y1="315.3" x2="853.7" y2="323.9" stroke="#e4572e" stroke-width="2" opacity="0.11"/>
<line x1="994.5" y1="575.0" x2="809.8" y2="492.2" stroke="#45aaf2" stroke-width="2" opacity="0.10"/>
<line x1="994.5" y1="575.0" x2="996.5" y2="453.2" stroke="#45aaf2" stroke-width="2" opacity="0.26"/>
<line x1="994.5" y1="575.0" x2="925.5" y2="542.4" stroke="#e4572e" stroke-width="2" opacity="0.35"/>
<line x1="994.5" y1="575.0" x2="1016.6" y2="452.6" stroke="#45aaf2" stroke-width="2" opacity="0.25"/>
<line x1="22.9" y1="159.0" x2="210.1" y2="230.2" stroke="#ffc914" stroke-width="2" opacity="0.10"/>
<line x1="22.9" y1="159.0" x2="203.1" y2="248.5" stroke="#e4572e" stroke-width="2" opacity="0.10"/>
<line x1="330.1" y1="52.3" x2="422.4" y2="11.1" stroke="#e4572e" stroke-width="2" opacity="0.30"/>
<line x1="330.1" y1="52.3" x2="210.1" y2="230.2" stroke="#e4572e" stroke-width="2" opacity="0.07"/>
<line x1="330.1" y1="52.3" x2="203.1" y2="248.5" stroke="#45aaf2" stroke-width="2" opacity="0.03"/>
<line x1="330.1" y1="52.3" x2="276.6" y2="219.7" stroke="#e4572e" stroke-width="2" opacity="0.15"/>
<line x1="809.8" y1="492.2" x2="996.5" y2="453.2" stroke="#ffc914" stroke-width="2" opacity="0.12"/>
<line x1="809.8" y1="492.2" x2="925.5" y2="542.4" stroke="#e4572e" stroke-width="2" opacity="0.25"/>
<line x1="809.8" y1="492.2" x2="1016.6" y2="452.6" stroke="#e4572e" stroke-width="2" opacity="0.08"/>
<line x1="809.8" y1="492.2" x2="853.7" y2="323.9" stroke="#45aaf2" stroke-width="2" opacity="0.15"/>
<line x1="842.5" y1="197.8" x2="845.0" y2="4.0" stroke="#45aaf2" stroke-width="2" opacity="0.11"/>
<line x1="842.5" y1="197.8" x2="853.7" y2="323.9" stroke="#ffc914" stroke-width="2" opacity="0.25"/>
<line x1="996.5" y1="453.2" x2="925.5" y2="542.4" stroke="#e4572e" stroke-width="2" opacity="0.27"/>
<line x1="996.5" y1="453.2" x2="1016.6" y2="452.6" stroke="#ffc914" stroke-width="2" opacity="0.46"/>
<line x1="996.5" y1="453.2" x2="853.7" y2="323.9" stroke="#45aaf2" stroke-width="2" opacity="0.11"/>
<line x1="210.1" y1="230.2" x2="332.0" y2="440.2" stroke="#e4572e" stroke-width="2" opacity="0.01"/>
<line x1="210.1" y1="230.2" x2="203.1" y2="248.5" stroke="#45aaf2" stroke-width="2" opacity="0.46"/>
<line x1="210.1" y1="230.2" x2="276.6" y2="219.7" stroke="#45aaf2" stroke-width="2" opacity="0.37"/>
<line x1="210.1" y1="230.2" x2="255.7" y2="357.0" stroke="#45aaf2" stroke-width="2" opacity="0.23"/>
<line x1="925.5" y1="542.4" x2="1016.6" y2="452.6" stroke="#45aaf2" stroke-width="2" opacity="0.24"/>
<line x1="925.5" y1="542.4" x2="853.7" y2="323.9" stroke="#e4572e" stroke-width="2" opacity="0.04"/>
<line x1="1016.6" y1="452.6" x2="853.7" y2="323.9" stroke="#ffc914" stroke-width="2" opacity="0.08"/>
<line x1="332.0" y1="440.2" x2="203.1" y2="248.5" stroke="#ffc914" stroke-width="2" opacity="0.04"/>
<line x1="332.0" y1="440.2" x2="173.6" y2="586.0" stroke="#e4572e" stroke-width="2" opacity="0.07"/>
<line x1="332.0" y1="440.2" x2="437.0" y2="482.3" stroke="#ffc914" stroke-width="2" opacity="0.27"/>
<line x1="332.0" y1="440.2" x2="276.6" y2="219.7" stroke="#ffc914" stroke-width="2" opacity="0.05"/>
<line x1="332.0" y1="440.2" x2="255.7" y2="357.0" stroke="#e4572e" stroke-width="2" opacity="0.27"/>
<line x1="203.1" y1="248.5" x2="276.6" y2="219.7" stroke="#45aaf2" stroke-width="2" opacity="0.34"/>
<line x1="203.1" y1="248.5" x2="255.7" y2="357.0" stroke="#ffc914" stroke-width="2" opacity="0.26"/>
<line x1="173.6" y1="586.0" x2="255.7" y2="357.0" stroke="#ffc914" stroke-width="2" opacity="0.01"/>
<line x1="437.0" y1="482.3" x2="255.7" y2="357.0" stroke="#e4572e" stroke-width="2" opacity="0.06"/>
<line x1="276.6" y1="219.7" x2="255.7" y2="357.0" stroke="#45aaf2" stroke-width="2" opacity="0.22"/>
<circle cx="613.1" cy="462.3" r="13.5" fill="#e4572e" opacity="0.7"/>
<circle cx="1147.1" cy="231.5" r="15.1" fill="#45aaf2" opacity="0.7"/>
<circle cx="633.1" cy="221.5" r="11.1" fill="#ffc914" opacity="0.7"/>
<circle cx="188.1" cy="429.6" r="8.6" fill="#e4572e" opacity="0.7"/>
<circle cx="1050.8" cy="315.3" r="12.3" fill="#45aaf2" opacity="0.7"/>
<circle cx="994.5" cy="575.0" r="19.8" fill="#ffc914" opacity="0.7"/>
<circle cx="22.9" cy="159.0" r="11.9" fill="#e4572e" opacity="0.7"/>
<circle cx="330.1" cy="52.3" r="6.9" fill="#45aaf2" opacity="0.7"/>
<circle cx="809.8" cy="492.2" r="15.5" fill="#ffc914" opacity="0.7"/>
<circle cx="422.4" cy="11.1" r="19.2" fill="#e4572e" opacity="0.7"/>
<circle cx="842.5" cy="197.8" r="10.8" fill="#45aaf2" opacity="0.7"/>
<circle cx="996.5" cy="453.2" r="8.6" fill="#ffc914" opacity="0.7"/>
<circle cx="210.1" cy="230.2" r="14.6" fill="#e4572e" opacity="0.7"/>
<circle cx="925.5" cy="542.4" r="7.2" fill="#45aaf2" opacity="0.7"/>
<circle cx="1016.6" cy="452.6" r="9.3" fill="#ffc914" opacity="0.7"/>
<circle cx="845.0" cy="4.0" r="17.4" fill="#e4572e" opacity="0.7"/>
<circle cx="332.0" cy="440.2" r="12.1" fill="#45aaf2" opacity="0.7"/>
<circle cx="203.1" cy="248.5" r="12.0" fill="#ffc914" opacity="0.7"/>
<circle cx="173.6" cy="586.0" r="8.0" fill="#e4572e" opacity="0.7"/>
<circle cx="853.7" cy="323.9" r="19.3" fill="#45aaf2" opacity="0.7"/>
<circle cx="437.0" cy="482.3" r="13.7" fill="#ffc914" opacity="0.7"/>
<circle cx="276.6" cy="219.7" r="16.3" fill="#e4572e" opacity="0.7"/>
<circle cx="255.7" cy="357.0" r="13.0" fill="#45aaf2" opacity="0.7"/>
      </g>
    </g>
    <!-- Semi-transparent white overlay -->
    <rect x="40" y="171.0" width="1120" height="288.0" rx="32" ry="32" fill="white" opacity="0.75"/>
    <text
          font-family="system-ui, -apple-system, sans-serif"
          font-size="64"
          font-weight="700"
          fill="#2e282a">
      <tspan x="600" y="257.4" text-anchor="middle">Mejor Repelente de Mosquitos al</tspan>
      <tspan x="600" y="337.4" text-anchor="middle">Por Mayor para spray corporal y</tspan>
      <tspan x="600" y="417.4" text-anchor="middle">de ropa, ideal para Cuba</tspan>
    </text>
  </g>
  <text x="1160" y="600"
        font-family="system-ui, -apple-system, sans-serif"
        font-size="20"
        font-weight="600"
        fill="#2e282a"
        opacity="0.5"
        text-anchor="end">
    veguitas.com
  </text>
</svg>