<svg xmlns="http://www.w3.org/2000/svg" width="100%" height="100%" viewBox="0 0 1200 630" preserveAspectRatio="xMidYMid meet">
  <defs>
    
      <linearGradient id="aurora-grad-rr" x1="0%" y1="0%" x2="0%" y2="100%">
        <stop offset="0%" stop-color="#45aaf2" stop-opacity="0"/>
        <stop offset="45.93282417394221%" stop-color="#45aaf2" stop-opacity="0.7"/>
        <stop offset="100%" stop-color="#a3cb38" stop-opacity="0"/>
      </linearGradient>
    

      <linearGradient id="aurora-grad-cu" x1="0%" y1="0%" x2="0%" y2="100%">
        <stop offset="0%" stop-color="#a3cb38" stop-opacity="0"/>
        <stop offset="51.84472857043147%" stop-color="#a3cb38" stop-opacity="0.7"/>
        <stop offset="100%" stop-color="#06b6d4" stop-opacity="0"/>
      </linearGradient>
    

      <linearGradient id="aurora-grad-gy" x1="0%" y1="0%" x2="0%" y2="100%">
        <stop offset="0%" stop-color="#06b6d4" stop-opacity="0"/>
        <stop offset="30.8891024813056%" stop-color="#06b6d4" stop-opacity="0.7"/>
        <stop offset="100%" stop-color="#45aaf2" stop-opacity="0"/>
      </linearGradient>
    

      <linearGradient id="aurora-grad-6v" x1="0%" y1="0%" x2="0%" y2="100%">
        <stop offset="0%" stop-color="#45aaf2" stop-opacity="0"/>
        <stop offset="37.124886279925704%" stop-color="#45aaf2" stop-opacity="0.7"/>
        <stop offset="100%" stop-color="#a3cb38" stop-opacity="0"/>
      </linearGradient>
    

      <linearGradient id="aurora-grad-pr" x1="0%" y1="0%" x2="0%" y2="100%">
        <stop offset="0%" stop-color="#a3cb38" stop-opacity="0"/>
        <stop offset="43.202069625258446%" stop-color="#a3cb38" stop-opacity="0.7"/>
        <stop offset="100%" stop-color="#06b6d4" stop-opacity="0"/>
      </linearGradient>
    

      <linearGradient id="aurora-grad-g4" x1="0%" y1="0%" x2="0%" y2="100%">
        <stop offset="0%" stop-color="#06b6d4" stop-opacity="0"/>
        <stop offset="61.31076283752918%" stop-color="#06b6d4" stop-opacity="0.7"/>
        <stop offset="100%" stop-color="#45aaf2" stop-opacity="0"/>
      </linearGradient>
    

      <linearGradient id="aurora-grad-kq" x1="0%" y1="0%" x2="0%" y2="100%">
        <stop offset="0%" stop-color="#45aaf2" stop-opacity="0"/>
        <stop offset="57.6133503112942%" stop-color="#45aaf2" stop-opacity="0.7"/>
        <stop offset="100%" stop-color="#a3cb38" stop-opacity="0"/>
      </linearGradient>
    

    <filter id="filter-bw18nbfxjp-glow" x="-50%" y="-50%" width="200%" height="200%">
      <feGaussianBlur in="SourceGraphic" stdDeviation="20" result="blur"/>
      <feMerge>
        <feMergeNode in="blur"/>
        <feMergeNode in="SourceGraphic"/>
      </feMerge>
    </filter>
  
    <filter id="filter-bw18nbfxjp-blur" x="-20%" y="-20%" width="140%" height="140%">
      <feGaussianBlur in="SourceGraphic" stdDeviation="12"/>
    </filter>
    <filter id="filter-bw18nbfxjp-shadow" x="-50%" y="-50%" width="200%" height="200%">
      <feDropShadow dx="0" dy="4" stdDeviation="6" flood-color="rgba(0,0,0,0.2)"/>
    </filter>
  </defs>

  <!-- Pattern Background -->
  <g>
    
      <path d="M -120.60807822272182 0 Q 92.33494063384737 25.6993615339108 102.36809797363262 0 Q 0.5374698220014089 77.0980846017324 20.944434988331746 51.3987230678216 Q 102.84658957851512 128.496807669554 117.59429143156318 102.7974461356432 Q 65.61353556740536 179.8955307373756 80.81949785978972 154.1961692034648 Q 75.10690775026163 231.2942538051972 66.09457161767935 205.5948922712864 Q -44.79398394783519 282.6929768730188 -50.138971759821544 256.993615339108 Q -61.03503440503707 334.0916999408404 -57.74021418296476 308.3923384069296 Q -48.28058238549971 385.490423008662 -61.01726695838266 359.7910614747512 Q -69.32651445951078 436.8891460764836 -60.854017128997924 411.1897845425728 Q 95.45240158619534 488.2878691443052 105.78977315159689 462.5885076103944 Q 88.37574744506638 539.6865922121267 107.85322882843103 513.987230678216 Q 110.7939572682673 591.0853152799483 108.8707169544952 565.3859537460376 L 177.23068967461586 0 Z" fill="url(#aurora-grad-rr)" filter="url(#filter-bw18nbfxjp-glow)">
      </path>
    

      <path d="M 30.256388895213604 0 Q 252.03905851374947 19.465896219655406 234.29807921200626 0 Q 148.6067889375349 58.39768865896622 173.58495548839844 38.93179243931081 Q 242.47203359276125 97.32948109827703 245.8926415595978 77.86358487862162 Q 203.25588226996072 136.26127353758784 188.20292880272203 116.79537731793243 Q 108.48732353404293 175.19306597689865 111.80612809473777 155.72716975724325 Q 142.55415253412002 214.12485841620946 135.88292861660966 194.65896219655406 Q 276.7006192464845 253.05665085552027 252.58043717979436 233.59075463586487 Q 275.7171494979136 291.9884432948311 262.39816307553133 272.5225470751757 Q 198.5195350002643 330.9202357341419 179.37296691659432 311.4543395144865 L 320.50806642509997 0 Z" fill="url(#aurora-grad-cu)" filter="url(#filter-bw18nbfxjp-glow)">
      </path>
    

      <path d="M 270.6374109722674 0 Q 434.541992525701 20.15286004686178 430.9161136477632 0 Q 473.61601251854637 60.45858014058534 486.2528137464736 40.30572009372356 Q 503.1643828529027 100.76430023430889 502.79211454681126 80.61144018744712 Q 374.99463680755775 141.07002032803246 351.2533057164071 120.91716028117068 Q 322.8687994270341 181.375740421756 335.1031663450168 161.22288037489423 Q 352.21241624500044 221.68146051547956 339.49101623553224 201.52860046861778 Q 358.46030816564024 261.98718060920316 340.98940258508236 241.83432056234136 Q 326.1632011990079 302.2929007029267 333.94239272652356 282.1400406560649 Q 385.1053760094703 342.59862079665027 388.79364575828845 322.44576074978846 Q 352.1255943624101 382.9043408903738 341.435818099676 362.751480843512 Q 475.2279467943035 423.21006098409737 473.6364669461645 403.05720093723556 Q 510.64321908629813 463.5157810778209 502.00285561145597 443.3629210309591 L 579.4808816164732 0 Z" fill="url(#aurora-grad-gy)" filter="url(#filter-bw18nbfxjp-glow)">
      </path>
    

      <path d="M 538.4663144825026 0 Q 682.7937493987553 17.522347426589114 692.239014229475 0 Q 677.6695794057232 52.56704227976734 697.2148198498544 35.04469485317823 Q 628.583055068843 87.61173713294556 650.7869044529385 70.08938970635646 Q 687.9757852871282 122.6564319861238 702.5451961784004 105.13408455953468 Q 624.5544902397381 157.70112683930202 641.4428554474438 140.1787794127129 Q 584.2595258760408 192.74582169248023 582.0023604468585 175.22347426589113 Q 599.2430561628898 227.79051654565848 603.4117722242845 210.26816911906937 Q 685.4538715512556 262.83521139883675 697.4994674160209 245.3128639722476 Q 665.1646147179476 297.87990625201496 649.30171374465 280.3575588254258 Q 726.1400234760494 332.9246011051932 704.8000730099865 315.40225367860404 Q 664.1639683017917 367.9692959583714 668.2394072850644 350.44694853178225 L 752.4386152392253 0 Z" fill="url(#aurora-grad-6v)" filter="url(#filter-bw18nbfxjp-glow)">
      </path>
    

      <path d="M 700.0217778375372 0 Q 868.3048139025217 12.713212353433482 885.3273603764122 0 Q 897.737766293979 38.139637060300444 890.0676555970523 25.426424706866964 Q 766.6489764486524 63.56606176716741 753.5689442788336 50.85284941373393 Q 785.7614849832631 88.99248647403437 808.6197153105192 76.27927412060089 Q 772.0925417235269 114.41891118090133 749.0583054693564 101.70569882746786 Q 755.6710875083653 139.8453358877683 779.8013421080967 127.13212353433482 Q 756.4574955388601 165.27176059463525 762.4247273089062 152.55854824120178 Q 895.5104006185131 190.69818530150224 890.4093286218988 177.98497294806876 Q 810.8020801479329 216.1246100083692 805.440167212892 203.4113976549357 Q 890.4122164092121 241.55103471523614 870.9056423014124 228.83782236180267 Q 840.9086747178811 266.97745942210315 858.9325805511329 254.26424706866965 L 942.5473417853937 0 Z" fill="url(#aurora-grad-pr)" filter="url(#filter-bw18nbfxjp-glow)">
      </path>
    

      <path d="M 896.5142785571516 0 Q 1045.2882667897532 14.496231519291177 1046.2594796797523 0 Q 1075.3453764091155 43.48869455787353 1084.3661224311127 28.992463038582354 Q 971.0891265038749 72.48115759645589 971.4119127684621 57.98492607716471 Q 1050.4723429996463 101.47362063503823 1067.8841252312939 86.97738911574706 Q 933.2855776247194 130.4660836736206 952.1057220587132 115.96985215432942 Q 941.4658753768662 159.45854671220295 944.0497570889191 144.96231519291177 Q 955.1295643844334 188.4510097507853 960.4949082303484 173.95477823149412 Q 1066.342945171145 217.44347278936766 1043.197569153362 202.9472412700765 Q 989.9947200716264 246.43593582795 976.0982268537185 231.93970430865883 Q 1053.6022480928566 275.4283988665324 1076.6074981426116 260.9321673472412 Q 1080.2660329790872 304.42086190511475 1078.9373562845487 289.92463038582355 L 1133.6005460936576 0 Z" fill="url(#aurora-grad-g4)" filter="url(#filter-bw18nbfxjp-glow)">
      </path>
    

      <path d="M 1091.9115091208369 0 Q 1214.8834033321616 17.438418270924807 1200.398726380619 0 Q 1206.9765754240748 52.31525481277442 1220.4009906934757 34.87683654184961 Q 1156.620752156036 87.19209135462404 1180.4870457120928 69.75367308369923 Q 1219.1678597288026 122.06892789647364 1198.773133526445 104.63050962554884 Q 1171.3444610291374 156.94576443832327 1170.3346877174665 139.50734616739845 Q 1136.3542099141603 191.8226009801729 1154.607096839053 174.38418270924808 Q 1205.4546916410836 226.6994375220225 1188.1870228350672 209.26101925109768 Q 1136.5753363156648 261.57627406387206 1129.101569418791 244.13785579294728 Q 1183.4324667428475 296.4531106057217 1187.924764418308 279.0146923347969 Q 1144.6393992354879 331.3299471475713 1149.3795076337428 313.89152887664653 Q 1201.4204590855225 366.20678368942094 1205.6807257974579 348.76836541849616 Q 1188.4216625503802 401.0836202312705 1177.9384603052938 383.64520196034573 L 1260.6962535064667 0 Z" fill="url(#aurora-grad-kq)" filter="url(#filter-bw18nbfxjp-glow)">
      </path>
    
<circle cx="613.8" cy="182.9" r="0.5" fill="white" opacity="0.93"/>
<circle cx="1008.8" cy="78.1" r="2.3" fill="white" opacity="0.62"/>
<circle cx="310.4" cy="255.3" r="1.4" fill="white" opacity="0.68"/>
<circle cx="884.9" cy="261.7" r="1.9" fill="white" opacity="0.51"/>
<circle cx="269.9" cy="16.7" r="1.0" fill="white" opacity="0.32"/>
<circle cx="301.6" cy="275.8" r="0.8" fill="white" opacity="0.54"/>
<circle cx="820.0" cy="48.6" r="2.3" fill="white" opacity="0.82"/>
<circle cx="71.1" cy="8.0" r="1.8" fill="white" opacity="0.46"/>
<circle cx="131.8" cy="146.1" r="1.2" fill="white" opacity="0.84"/>
<circle cx="558.6" cy="354.2" r="2.0" fill="white" opacity="0.37"/>
<circle cx="678.7" cy="145.0" r="0.8" fill="white" opacity="0.63"/>
<circle cx="108.3" cy="234.0" r="2.3" fill="white" opacity="0.39"/>
<circle cx="807.0" cy="164.0" r="2.0" fill="white" opacity="0.66"/>
<circle cx="536.9" cy="51.7" r="1.6" fill="white" opacity="0.53"/>
<circle cx="545.1" cy="189.2" r="1.4" fill="white" opacity="0.42"/>
<circle cx="962.4" cy="102.1" r="1.3" fill="white" opacity="0.73"/>
<circle cx="863.4" cy="101.7" r="1.4" fill="white" opacity="0.96"/>
<circle cx="421.5" cy="146.7" r="2.2" fill="white" opacity="0.80"/>
<circle cx="1191.2" cy="83.4" r="1.6" fill="white" opacity="0.72"/>
<circle cx="841.5" cy="39.3" r="1.8" fill="white" opacity="0.32"/>
<circle cx="435.1" cy="347.8" r="1.0" fill="white" opacity="0.72"/>
<circle cx="361.2" cy="177.2" r="2.2" fill="white" opacity="0.64"/>
<circle cx="1096.4" cy="82.8" r="1.0" fill="white" opacity="0.40"/>
<circle cx="929.3" cy="159.3" r="1.4" fill="white" opacity="0.40"/>
<circle cx="838.9" cy="368.4" r="2.2" fill="white" opacity="0.93"/>
<circle cx="444.1" cy="237.2" r="1.5" fill="white" opacity="0.86"/>
<circle cx="372.4" cy="59.9" r="0.6" fill="white" opacity="0.39"/>
<circle cx="1159.9" cy="60.9" r="1.2" fill="white" opacity="0.55"/>
<circle cx="201.4" cy="159.8" r="1.5" fill="white" opacity="0.65"/>
<circle cx="419.0" cy="138.1" r="1.8" fill="white" opacity="0.70"/>
<circle cx="692.6" cy="181.4" r="1.5" fill="white" opacity="0.89"/>
<circle cx="314.3" cy="300.3" r="0.8" fill="white" opacity="0.76"/>
<circle cx="1197.7" cy="9.7" r="2.5" fill="white" opacity="0.76"/>
<circle cx="320.5" cy="92.7" r="1.8" fill="white" opacity="0.75"/>
<circle cx="120.0" cy="163.3" r="1.3" fill="white" opacity="0.83"/>
<circle cx="684.7" cy="137.3" r="1.9" fill="white" opacity="0.52"/>
<circle cx="364.0" cy="55.1" r="1.4" fill="white" opacity="0.56"/>
<circle cx="288.4" cy="278.0" r="1.6" fill="white" opacity="0.91"/>
<circle cx="846.3" cy="12.0" r="1.1" fill="white" opacity="0.69"/>
<circle cx="161.3" cy="267.1" r="1.7" fill="white" opacity="0.75"/>
<circle cx="519.5" cy="307.4" r="1.2" fill="white" opacity="0.37"/>
<circle cx="100.8" cy="142.6" r="2.1" fill="white" opacity="0.31"/>
  </g>

  <!-- Text Box with Frosted Glass (shadow only on box, not text) -->
  <g filter="url(#filter-bw18nbfxjp-shadow)">
    <g filter="url(#filter-bw18nbfxjp-blur)">
      <rect x="60" y="183.8" width="1080" height="262.4" rx="20" ry="20" fill="#0f172a"/>
    </g>
    <rect x="60" y="183.8" width="1080" height="262.4" rx="20" ry="20"
          fill="rgba(15, 23, 42, 0.75)"/>
  </g>

  <!-- Text (separate from shadow group) -->
  <text
        font-family="system-ui, -apple-system, BlinkMacSystemFont, 'Segoe UI', sans-serif"
        font-size="64"
        font-weight="700"
        fill="#ffffff">
    <tspan x="600" y="289.4" text-anchor="middle">Best Portable Power Stations</tspan>
      <tspan x="600" y="372.6" text-anchor="middle">for Cuba 2025: Blackout Guide</tspan>
  </text>

  <!-- Watermark -->
  <text x="1160" y="605"
        font-family="system-ui, -apple-system, sans-serif"
        font-size="18"
        font-weight="600"
        fill="rgba(255,255,255,0.4)"
        text-anchor="end">
    veguitas.com
  </text>
</svg>