<svg xmlns="http://www.w3.org/2000/svg" width="100%" height="100%" viewBox="0 0 1200 630" preserveAspectRatio="xMidYMid meet">
  <defs>
    
    <linearGradient id="sky-61j" x1="0%" y1="0%" x2="0%" y2="100%">
      <stop offset="0%" stop-color="#8b5cf6"/>
      <stop offset="30%" stop-color="#e4572e"/>
      <stop offset="60%" stop-color="#f97316"/>
      <stop offset="100%" stop-color="#ffc914"/>
    </linearGradient>
  

    <radialGradient id="sun-glow-5pb" cx="50%" cy="50%" r="50%">
      <stop offset="0%" stop-color="#ffc914" stop-opacity="1"/>
      <stop offset="40%" stop-color="#f97316" stop-opacity="0.8"/>
      <stop offset="100%" stop-color="#e4572e" stop-opacity="0"/>
    </radialGradient>
  

    <filter id="filter-bw18nbfxjp-sun-glow" x="-100%" y="-100%" width="300%" height="300%">
      <feGaussianBlur in="SourceGraphic" stdDeviation="30"/>
    </filter>
  

    <linearGradient id="water-5es" x1="0%" y1="0%" x2="0%" y2="100%">
      <stop offset="0%" stop-color="#e4572e" stop-opacity="0.4"/>
      <stop offset="100%" stop-color="#0c1445" stop-opacity="0.9"/>
    </linearGradient>
  
    <filter id="filter-bw18nbfxjp-blur" x="-20%" y="-20%" width="140%" height="140%">
      <feGaussianBlur in="SourceGraphic" stdDeviation="12"/>
    </filter>
    <filter id="filter-bw18nbfxjp-shadow" x="-50%" y="-50%" width="200%" height="200%">
      <feDropShadow dx="0" dy="4" stdDeviation="6" flood-color="rgba(0,0,0,0.2)"/>
    </filter>
  </defs>

  <!-- Pattern Background -->
  <g>
    <rect width="1200" height="630" fill="url(#sky-61j)"/>
<circle cx="691.2042097002268" cy="346.4048620001413" r="259.7480906522833" fill="url(#sun-glow-5pb)" filter="url(#filter-bw18nbfxjp-sun-glow)"/>
<circle cx="691.2042097002268" cy="346.4048620001413" r="103.89923626091331" fill="#ffc914" opacity="0.95"/>
<rect x="574.4894431950524" y="480.3040982610546" width="193.29690365120769" height="5.377822731621563" rx="2" fill="#ffc914" opacity="0.30"/>
<rect x="589.3825601018034" y="503.0599191612564" width="144.65249178465456" height="3.0183822233229876" rx="2" fill="#ffc914" opacity="0.25"/>
<rect x="639.1658814554103" y="532.0569435101934" width="140.12600101996213" height="4.999160150066018" rx="2" fill="#ffc914" opacity="0.20"/>
<rect x="586.26806196291" y="594.92507632263" width="196.69301458634436" height="2.880164730362594" rx="2" fill="#ffc914" opacity="0.15"/>
<rect x="620.5249015055597" y="650.8721412359737" width="107.4686270672828" height="4.790668076835573" rx="2" fill="#ffc914" opacity="0.10"/>
<rect x="477.3931366321631" y="624.2919835648499" width="349.7122206026688" height="4.569574313238263" rx="2" fill="#ffc914" opacity="0.05"/>
<rect x="576.6327154869214" y="697.2277633906342" width="238.36663127876818" height="3.0152891064062715" rx="2" fill="#ffc914" opacity="-0.00"/>
<rect x="0" y="409.5" width="1200" height="220.5" fill="url(#water-5es)"/>

      <path d="M 70.80181910423562 630
               Q 87.19418614497408 512.25873800111
                 97.97014740295708 394.51747600222006
               L 109.7442453331314 394.51747600222006
               Q 98.9682840751484 512.25873800111
                 94.35001496458426 630
               Z" fill="#2e282a"/>
    

        <path d="M 97.97014740295708 394.51747600222006
                 Q 150.65433083175296 396.62759985907326 203.33851426054883 435.8011468228746"
              stroke="#2e282a" stroke-width="5.403177208034322" fill="none" stroke-linecap="round"/>
      

          <path d="M 112.01926298396931 400.021965444974 Q 127.02091170839769 405.021965444974 125.79163459545461 423.3497525643698"
                stroke="#2e282a" stroke-width="2" fill="none"/>
        

          <path d="M 126.06837856498154 405.52645488772794 Q 144.1548296230247 410.52645488772794 137.34620084867572 432.7114015856186"
                stroke="#2e282a" stroke-width="2" fill="none"/>
        

          <path d="M 140.1174941459938 411.0309443304819 Q 157.1396772108308 416.0309443304819 141.40670820166994 438.0409178187765"
                stroke="#2e282a" stroke-width="2" fill="none"/>
        

          <path d="M 154.166609727006 416.5354337732358 Q 173.9841909020176 421.5354337732358 162.45596202210214 445.9147573749542"
                stroke="#2e282a" stroke-width="2" fill="none"/>
        

          <path d="M 168.21572530801825 422.03992321598975 Q 183.3161235416443 427.03992321598975 171.7548251912082 447.03628010085674"
                stroke="#2e282a" stroke-width="2" fill="none"/>
        

        <path d="M 97.97014740295708 394.51747600222006
                 Q 128.62537944160658 416.31187913528527 159.28061148025608 488.97777483065903"
              stroke="#2e282a" stroke-width="4.822504009818658" fill="none" stroke-linecap="round"/>
      

          <path d="M 104.10119381068698 403.96350588506397 Q 118.75766353017143 408.96350588506397 80.80457604943564 422.85895443247864"
                stroke="#2e282a" stroke-width="2" fill="none"/>
        

          <path d="M 110.23224021841688 413.40953576790787 Q 120.82303991143507 418.40953576790787 106.5867194429487 433.84230063186135"
                stroke="#2e282a" stroke-width="2" fill="none"/>
        

          <path d="M 116.36328662614679 422.85556565075177 Q 130.20635370266965 427.85556565075177 105.82886763851005 445.6574018562865"
                stroke="#2e282a" stroke-width="2" fill="none"/>
        

          <path d="M 122.49433303387669 432.3015955335957 Q 142.17966580666433 437.3015955335957 96.15022527371758 456.9306530205177"
                stroke="#2e282a" stroke-width="2" fill="none"/>
        

          <path d="M 128.62537944160658 441.7476254164395 Q 139.3167877121109 446.7476254164395 114.99296813915154 459.98446651766164"
                stroke="#2e282a" stroke-width="2" fill="none"/>
        

          <path d="M 134.7564258493365 451.1936552992835 Q 151.68677585170354 456.1936552992835 118.30893360001392 475.9925319755643"
                stroke="#2e282a" stroke-width="2" fill="none"/>
        

          <path d="M 140.88747225706638 460.6396851821273 Q 159.00519865220585 465.6396851821273 128.41101693629318 487.6495801079145"
                stroke="#2e282a" stroke-width="2" fill="none"/>
        

        <path d="M 97.97014740295708 394.51747600222006
                 Q 69.21011185905367 411.04003953306824 40.450076315150255 465.9989744673047"
              stroke="#2e282a" stroke-width="4.278703815070912" fill="none" stroke-linecap="round"/>
      

          <path d="M 88.76693602890799 405.9545157566336 Q 100.7355414838027 410.9545157566336 65.60770347252966 412.9279660073594"
                stroke="#2e282a" stroke-width="2" fill="none"/>
        

          <path d="M 79.5637246548589 417.39155551104716 Q 90.96268173553233 422.39155551104716 56.903791536151445 426.1393253840493"
                stroke="#2e282a" stroke-width="2" fill="none"/>
        

          <path d="M 70.36051328080981 428.8285952654607 Q 80.92021589187249 433.8285952654607 49.763401065682885 436.4947012375642"
                stroke="#2e282a" stroke-width="2" fill="none"/>
        

          <path d="M 61.15730190676071 440.26563501987425 Q 80.5888600143687 445.26563501987425 22.873561357027228 453.6084261993408"
                stroke="#2e282a" stroke-width="2" fill="none"/>
        

        <path d="M 97.97014740295708 394.51747600222006
                 Q 49.224367297803795 391.37223428962494 0.4785871926505081 445.67471465319005"
              stroke="#2e282a" stroke-width="3.779844004428014" fill="none" stroke-linecap="round"/>
      

          <path d="M 84.97127270824954 401.33844115568274 Q 93.83496259721674 406.33844115568274 73.75823862406662 404.47316875726204"
                stroke="#2e282a" stroke-width="2" fill="none"/>
        

          <path d="M 71.972398013542 408.15940630914537 Q 80.17143566751813 413.15940630914537 67.05044948266779 410.33842017463684"
                stroke="#2e282a" stroke-width="2" fill="none"/>
        

          <path d="M 58.97352331883445 414.98037146260805 Q 69.08117059601642 419.98037146260805 45.60173607543316 417.3999123762976"
                stroke="#2e282a" stroke-width="2" fill="none"/>
        

          <path d="M 45.974648624126914 421.8013366160707 Q 55.5025573222005 426.8013366160707 35.40836347320453 423.8723109075631"
                stroke="#2e282a" stroke-width="2" fill="none"/>
        

          <path d="M 32.97577392941936 428.6223017695334 Q 47.29006528671495 433.6223017695334 21.763683604688186 425.4514553768727"
                stroke="#2e282a" stroke-width="2" fill="none"/>
        

        <path d="M 97.97014740295708 394.51747600222006
                 Q 72.34377705629615 376.18974823252677 46.71740670963523 433.0647170214831"
              stroke="#2e282a" stroke-width="3.7772642481140792" fill="none" stroke-linecap="round"/>
      

          <path d="M 91.1364486438475 399.6571081381218 Q 105.83080127984485 404.6571081381218 112.03462121547237 399.3255741192702"
                stroke="#2e282a" stroke-width="2" fill="none"/>
        

          <path d="M 84.30274988473792 404.79674027402353 Q 102.85883412878428 409.79674027402353 112.87548607028656 402.9549520142249"
                stroke="#2e282a" stroke-width="2" fill="none"/>
        

          <path d="M 77.46905112562834 409.9363724099253 Q 96.51782627199444 414.9363724099253 94.792215416398 402.970735689909"
                stroke="#2e282a" stroke-width="2" fill="none"/>
        

          <path d="M 70.63535236651876 415.076004545827 Q 87.04592234295194 420.076004545827 83.45548971911374 409.9691244405055"
                stroke="#2e282a" stroke-width="2" fill="none"/>
        

          <path d="M 63.80165360740918 420.21563668172877 Q 71.39150468156274 425.21563668172877 71.17691577900582 423.58184317402265"
                stroke="#2e282a" stroke-width="2" fill="none"/>
        

        <path d="M 97.97014740295708 394.51747600222006
                 Q 133.52769483117854 380.298870375564 169.0852422594 409.5715303831235"
              stroke="#2e282a" stroke-width="4.217094998806715" fill="none" stroke-linecap="round"/>
      

          <path d="M 106.09758681512199 396.2379393600376 Q 123.1175948575767 401.2379393600376 133.2662605484947 416.4920344277464"
                stroke="#2e282a" stroke-width="2" fill="none"/>
        

          <path d="M 114.22502622728689 397.9584027178551 Q 122.26046864547288 402.9584027178551 129.88540606130275 409.76296934715145"
                stroke="#2e282a" stroke-width="2" fill="none"/>
        

          <path d="M 122.3524656394518 399.67886607567266 Q 141.86102470299443 404.67886607567266 157.43850016457594 418.21270589495566"
                stroke="#2e282a" stroke-width="2" fill="none"/>
        

          <path d="M 130.4799050516167 401.3993294334902 Q 138.19734140168384 406.3993294334902 145.9126898621266 411.52626274456884"
                stroke="#2e282a" stroke-width="2" fill="none"/>
        

          <path d="M 138.6073444637816 403.11979279130776 Q 150.8655365212701 408.11979279130776 162.28727899295455 416.294449889609"
                stroke="#2e282a" stroke-width="2" fill="none"/>
        

          <path d="M 146.7347838759465 404.84025614912525 Q 161.7600518751001 409.84025614912525 170.45337456518874 424.0660781924684"
                stroke="#2e282a" stroke-width="2" fill="none"/>
        

      <path d="M 1007.1164068230428 630
               Q 1026.4443149571307 484.45713059743866
                 1042.8298372076824 338.9142611948773
               L 1055.1353786629625 338.9142611948773
               Q 1038.7498564124107 484.45713059743866
                 1031.7274897336029 630
               Z" fill="#2e282a"/>
    

        <path d="M 1042.8298372076824 338.9142611948773
                 Q 1099.9474060507112 340.5106818985712 1157.06497489374 402.6196550879473"
              stroke="#2e282a" stroke-width="4.9517223697621375" fill="none" stroke-linecap="round"/>
      

          <path d="M 1058.0611888991568 347.4083137139533 Q 1073.859434786429 352.4083137139533 1079.7718552753643 368.8863934527408"
                stroke="#2e282a" stroke-width="2" fill="none"/>
        

          <path d="M 1073.2925405906312 355.90236623302934 Q 1086.7997373681314 360.90236623302934 1077.8491376209 379.2160329203867"
                stroke="#2e282a" stroke-width="2" fill="none"/>
        

          <path d="M 1088.5238922821054 364.3964187521053 Q 1100.018705776606 369.3964187521053 1100.660625799329 384.15888064224"
                stroke="#2e282a" stroke-width="2" fill="none"/>
        

          <path d="M 1103.7552439735798 372.8904712711813 Q 1117.424547407433 377.8904712711813 1109.3366089073597 396.271874326756"
                stroke="#2e282a" stroke-width="2" fill="none"/>
        

          <path d="M 1118.9865956650542 381.38452379025733 Q 1128.3836501071423 386.38452379025733 1131.7562158384108 398.2793647851331"
                stroke="#2e282a" stroke-width="2" fill="none"/>
        

        <path d="M 1042.8298372076824 338.9142611948773
                 Q 1047.0430687572455 356.31600992728727 1051.2563003068087 415.7511042264209"
              stroke="#2e282a" stroke-width="4.344967097276822" fill="none" stroke-linecap="round"/>
      

          <path d="M 1043.7928615618682 347.6956146841966 Q 1060.411321241171 352.6956146841966 1018.5005615873544 368.47745555727636"
                stroke="#2e282a" stroke-width="2" fill="none"/>
        

          <path d="M 1044.7558859160542 356.47696817351584 Q 1054.9494431925611 361.47696817351584 1025.0016389079633 368.99709539952227"
                stroke="#2e282a" stroke-width="2" fill="none"/>
        

          <path d="M 1045.71891027024 365.2583216628351 Q 1059.8803542238752 370.2583216628351 1019.6076009197104 380.7443380547342"
                stroke="#2e282a" stroke-width="2" fill="none"/>
        

          <path d="M 1046.6819346244258 374.0396751521544 Q 1062.2435516842918 379.0396751521544 1029.5588475382008 397.0344393930824"
                stroke="#2e282a" stroke-width="2" fill="none"/>
        

          <path d="M 1047.6449589786118 382.8210286414737 Q 1064.4042607169597 387.8210286414737 1019.9597769451448 402.26861397850223"
                stroke="#2e282a" stroke-width="2" fill="none"/>
        

          <path d="M 1048.6079833327976 391.60238213079293 Q 1059.395968497004 396.60238213079293 1029.3508294685732 406.4676806997953"
                stroke="#2e282a" stroke-width="2" fill="none"/>
        

        <path d="M 1042.8298372076824 338.9142611948773
                 Q 1014.4540504929162 356.6004961342275 986.07826377815 434.10832710583287"
              stroke="#2e282a" stroke-width="3.473578011849895" fill="none" stroke-linecap="round"/>
      

          <path d="M 1037.1546798647291 348.4336677859729 Q 1047.548576047379 353.4336677859729 1016.9111586557244 360.7965135534418"
                stroke="#2e282a" stroke-width="2" fill="none"/>
        

          <path d="M 1031.4795225217758 357.95307437706845 Q 1039.2629491327616 362.95307437706845 1016.0542890017846 366.90556661001546"
                stroke="#2e282a" stroke-width="2" fill="none"/>
        

          <path d="M 1025.8043651788228 367.472480968164 Q 1044.6530467294122 372.472480968164 988.3205156217397 379.47574125854555"
                stroke="#2e282a" stroke-width="2" fill="none"/>
        

          <path d="M 1020.1292078358695 376.99188755925957 Q 1034.1316511637872 381.99188755925957 992.2778732076544 388.4561993458485"
                stroke="#2e282a" stroke-width="2" fill="none"/>
        

          <path d="M 1014.4540504929162 386.51129415035507 Q 1023.640828761693 391.51129415035507 996.337783599109 398.043323333418"
                stroke="#2e282a" stroke-width="2" fill="none"/>
        

          <path d="M 1008.778893149963 396.0307007414507 Q 1026.8458103514672 401.0307007414507 976.0034751359726 398.42435532015577"
                stroke="#2e282a" stroke-width="2" fill="none"/>
        

          <path d="M 1003.1037358070098 405.5501073325462 Q 1018.7221775312282 410.5501073325462 972.9615919284533 419.6487061777503"
                stroke="#2e282a" stroke-width="2" fill="none"/>
        

        <path d="M 1042.8298372076824 338.9142611948773
                 Q 993.011725004393 332.5401998114785 943.1936128011037 366.7603083987274"
              stroke="#2e282a" stroke-width="4.215593496104702" fill="none" stroke-linecap="round"/>
      

          <path d="M 1032.8662147670245 341.69886591526233 Q 1040.494680430899 346.69886591526233 1028.6179054345598 344.37210296435177"
                stroke="#2e282a" stroke-width="2" fill="none"/>
        

          <path d="M 1022.9025923263666 344.48347063564734 Q 1034.2003072304337 349.48347063564734 1021.8571238481925 343.19785541232585"
                stroke="#2e282a" stroke-width="2" fill="none"/>
        

          <path d="M 1012.9389698857088 347.26807535603234 Q 1026.488860355585 352.26807535603234 1007.427151773335 344.0014067078876"
                stroke="#2e282a" stroke-width="2" fill="none"/>
        

          <path d="M 1002.9753474450509 350.05268007641735 Q 1021.730434287044 355.05268007641735 981.8157190978316 344.56653095849305"
                stroke="#2e282a" stroke-width="2" fill="none"/>
        

          <path d="M 993.011725004393 352.83728479680235 Q 1003.0960309833553 357.83728479680235 994.1918756150626 352.77025751903227"
                stroke="#2e282a" stroke-width="2" fill="none"/>
        

          <path d="M 983.0481025637351 355.62188951718736 Q 996.2314803941632 360.62188951718736 985.9809713198771 352.5203239147628"
                stroke="#2e282a" stroke-width="2" fill="none"/>
        

          <path d="M 973.0844801230772 358.40649423757236 Q 989.0266454967854 363.40649423757236 960.4607154490411 353.767068765024"
                stroke="#2e282a" stroke-width="2" fill="none"/>
        

        <path d="M 1042.8298372076824 338.9142611948773
                 Q 1026.5936172474733 317.3757992803778 1010.3573972872642 366.1041179966704"
              stroke="#2e282a" stroke-width="5.076613517710939" fill="none" stroke-linecap="round"/>
      

          <path d="M 1039.1187012167775 342.02167340079654 Q 1049.4304880838736 347.02167340079654 1050.7391815757805 343.50263252468136"
                stroke="#2e282a" stroke-width="2" fill="none"/>
        

          <path d="M 1035.4075652258725 345.12908560671576 Q 1045.7482768824812 350.12908560671576 1043.2628726905932 345.56332093661246"
                stroke="#2e282a" stroke-width="2" fill="none"/>
        

          <path d="M 1031.6964292349676 348.236497812635 Q 1042.3384145127293 353.236497812635 1039.6222089296402 348.3598913757066"
                stroke="#2e282a" stroke-width="2" fill="none"/>
        

          <path d="M 1027.9852932440626 351.3439100185542 Q 1037.2193662443242 356.3439100185542 1042.876895964627 355.882395001878"
                stroke="#2e282a" stroke-width="2" fill="none"/>
        

          <path d="M 1024.2741572531577 354.45132222447336 Q 1040.3156354436123 359.45132222447336 1043.1080820192637 351.4647968226964"
                stroke="#2e282a" stroke-width="2" fill="none"/>
        

          <path d="M 1020.5630212622528 357.5587344303926 Q 1039.0098067753315 362.5587344303926 1036.8466203873447 351.00594023579026"
                stroke="#2e282a" stroke-width="2" fill="none"/>
        

        <path d="M 1042.8298372076824 338.9142611948773
                 Q 1075.4743367745846 328.4858437545262 1108.118836341487 354.1196646161805"
              stroke="#2e282a" stroke-width="4.894002496032044" fill="none" stroke-linecap="round"/>
      

          <path d="M 1053.2760770690911 341.3471257422858 Q 1065.6070741308904 346.3471257422858 1077.8920029339038 352.1004762534115"
                stroke="#2e282a" stroke-width="2" fill="none"/>
        

          <path d="M 1063.7223169304998 343.77999028969435 Q 1080.832871590821 348.77999028969435 1096.902210748415 357.96863474128094"
                stroke="#2e282a" stroke-width="2" fill="none"/>
        

          <path d="M 1074.1685567919085 346.21285483710284 Q 1093.380816928755 351.21285483710284 1110.3199988550782 362.72278945691136"
                stroke="#2e282a" stroke-width="2" fill="none"/>
        

          <path d="M 1084.6147966533174 348.6457193845114 Q 1093.4521081924179 353.6457193845114 1099.356203568184 363.52125071778175"
                stroke="#2e282a" stroke-width="2" fill="none"/>
        
  </g>

  <!-- Text Box with Frosted Glass (shadow only on box, not text) -->
  <g filter="url(#filter-bw18nbfxjp-shadow)">
    <g filter="url(#filter-bw18nbfxjp-blur)">
      <rect x="60" y="183.8" width="1080" height="262.4" rx="20" ry="20" fill="#ffffff"/>
    </g>
    <rect x="60" y="183.8" width="1080" height="262.4" rx="20" ry="20"
          fill="rgba(255, 255, 255, 0.8)"/>
  </g>

  <!-- Text (separate from shadow group) -->
  <text
        font-family="system-ui, -apple-system, BlinkMacSystemFont, 'Segoe UI', sans-serif"
        font-size="64"
        font-weight="700"
        fill="#2e282a">
    <tspan x="600" y="289.4" text-anchor="middle">Best Portable Power Stations</tspan>
      <tspan x="600" y="372.6" text-anchor="middle">for Cuba 2025: Blackout Guide</tspan>
  </text>

  <!-- Watermark -->
  <text x="1160" y="605"
        font-family="system-ui, -apple-system, sans-serif"
        font-size="18"
        font-weight="600"
        fill="rgba(0,0,0,0.3)"
        text-anchor="end">
    veguitas.com
  </text>
</svg>