<svg xmlns="http://www.w3.org/2000/svg" version="1.1" xmlns:xlink="http://www.w3.org/1999/xlink" width="1200" height="630" viewBox="0 0 1200 630"><g transform="matrix(0.23829150102151112,0.97119367818212,-0.97119367818212,0.23829150102151112,762.9511080144612,-342.77802973104804)"><rect width="53.5395374283822" height="2710.645679538364" x="-2176.7684678792925" y="-677.661419884591"></rect><rect width="53.5395374283822" height="2710.645679538364" x="-2123.2289304509104" y="-677.661419884591"></rect><rect width="53.5395374283822" height="2710.645679538364" x="-2069.6893930225283" y="-677.661419884591"></rect><rect width="53.5395374283822" height="2710.645679538364" x="-2016.1498555941462" y="-677.661419884591" fill="#c89666"></rect><rect width="53.5395374283822" height="2710.645679538364" x="-1962.6103181657636" y="-677.661419884591"></rect><rect width="53.5395374283822" height="2710.645679538364" x="-1909.0707807373815" y="-677.661419884591"></rect><rect width="53.5395374283822" height="2710.645679538364" x="-1855.5312433089994" y="-677.661419884591"></rect><rect width="53.5395374283822" height="2710.645679538364" x="-1801.9917058806172" y="-677.661419884591"></rect><rect width="53.5395374283822" height="2710.645679538364" x="-1748.4521684522351" y="-677.661419884591" fill="#c89666"></rect><rect width="53.5395374283822" height="2710.645679538364" x="-1694.9126310238528" y="-677.661419884591"></rect><rect width="53.5395374283822" height="2710.645679538364" x="-1641.3730935954704" y="-677.661419884591"></rect><rect width="53.5395374283822" height="2710.645679538364" x="-1587.8335561670883" y="-677.661419884591"></rect><rect width="53.5395374283822" height="2710.645679538364" x="-1534.2940187387062" y="-677.661419884591"></rect><rect width="53.5395374283822" height="2710.645679538364" x="-1480.754481310324" y="-677.661419884591" fill="#c89666"></rect><rect width="53.5395374283822" height="2710.645679538364" x="-1427.214943881942" y="-677.661419884591"></rect><rect width="53.5395374283822" height="2710.645679538364" x="-1373.6754064535596" y="-677.661419884591"></rect><rect width="53.5395374283822" height="2710.645679538364" x="-1320.1358690251773" y="-677.661419884591"></rect><rect width="53.5395374283822" height="2710.645679538364" x="-1266.5963315967952" y="-677.661419884591"></rect><rect width="53.5395374283822" height="2710.645679538364" x="-1213.056794168413" y="-677.661419884591" fill="#c89666"></rect><rect width="53.5395374283822" height="2710.645679538364" x="-1159.517256740031" y="-677.661419884591"></rect><rect width="53.5395374283822" height="2710.645679538364" x="-1105.9777193116486" y="-677.661419884591"></rect><rect width="53.5395374283822" height="2710.645679538364" x="-1052.4381818832665" y="-677.661419884591"></rect><rect width="53.5395374283822" height="2710.645679538364" x="-998.8986444548842" y="-677.661419884591"></rect><rect width="53.5395374283822" height="2710.645679538364" x="-945.359107026502" y="-677.661419884591" fill="#c89666"></rect><rect width="53.5395374283822" height="2710.645679538364" x="-891.8195695981199" y="-677.661419884591"></rect><rect width="53.5395374283822" height="2710.645679538364" x="-838.2800321697376" y="-677.661419884591"></rect><rect width="53.5395374283822" height="2710.645679538364" x="-784.7404947413554" y="-677.661419884591"></rect><rect width="53.5395374283822" height="2710.645679538364" x="-731.2009573129733" y="-677.661419884591"></rect><rect width="53.5395374283822" height="2710.645679538364" x="-677.661419884591" y="-677.661419884591" fill="#c89666"></rect><rect width="53.5395374283822" height="2710.645679538364" x="-624.1218824562088" y="-677.661419884591" fill="#d4a574"></rect><rect width="53.5395374283822" height="2710.645679538364" x="-570.5823450278267" y="-677.661419884591" fill="#e6c39e"></rect><rect width="53.5395374283822" height="2710.645679538364" x="-517.0428075994445" y="-677.661419884591" fill="#f5deb3"></rect><rect width="53.5395374283822" height="2710.645679538364" x="-463.50327017106224" y="-677.661419884591" fill="#ffeaa7"></rect><rect width="53.5395374283822" height="2710.645679538364" x="-409.96373274268007" y="-677.661419884591" fill="#c89666"></rect><rect width="53.5395374283822" height="2710.645679538364" x="-356.4241953142979" y="-677.661419884591" fill="#d4a574"></rect><rect width="53.5395374283822" height="2710.645679538364" x="-302.88465788591566" y="-677.661419884591" fill="#e6c39e"></rect><rect width="53.5395374283822" height="2710.645679538364" x="-249.34512045753348" y="-677.661419884591" fill="#f5deb3"></rect><rect width="53.5395374283822" height="2710.645679538364" x="-195.8055830291513" y="-677.661419884591" fill="#ffeaa7"></rect><rect width="53.5395374283822" height="2710.645679538364" x="-142.26604560076908" y="-677.661419884591" fill="#c89666"></rect><rect width="53.5395374283822" height="2710.645679538364" x="-88.72650817238684" y="-677.661419884591" fill="#d4a574"></rect><rect width="53.5395374283822" height="2710.645679538364" x="-35.186970744004725" y="-677.661419884591" fill="#e6c39e"></rect><rect width="53.5395374283822" height="2710.645679538364" x="18.352566684377507" y="-677.661419884591" fill="#f5deb3"></rect><rect width="53.5395374283822" height="2710.645679538364" x="71.89210411275974" y="-677.661419884591" fill="#ffeaa7"></rect><rect width="53.5395374283822" height="2710.645679538364" x="125.43164154114186" y="-677.661419884591" fill="#c89666"></rect><rect width="53.5395374283822" height="2710.645679538364" x="178.9711789695241" y="-677.661419884591" fill="#d4a574"></rect><rect width="53.5395374283822" height="2710.645679538364" x="232.51071639790632" y="-677.661419884591" fill="#e6c39e"></rect><rect width="53.5395374283822" height="2710.645679538364" x="286.05025382628844" y="-677.661419884591" fill="#f5deb3"></rect><rect width="53.5395374283822" height="2710.645679538364" x="339.5897912546707" y="-677.661419884591" fill="#ffeaa7"></rect><rect width="53.5395374283822" height="2710.645679538364" x="393.1293286830529" y="-677.661419884591" fill="#c89666"></rect><rect width="53.5395374283822" height="2710.645679538364" x="446.668866111435" y="-677.661419884591" fill="#d4a574"></rect><rect width="53.5395374283822" height="2710.645679538364" x="500.20840353981737" y="-677.661419884591" fill="#e6c39e"></rect><rect width="53.5395374283822" height="2710.645679538364" x="553.7479409681995" y="-677.661419884591" fill="#f5deb3"></rect><rect width="53.5395374283822" height="2710.645679538364" x="607.2874783965816" y="-677.661419884591" fill="#ffeaa7"></rect><rect width="53.5395374283822" height="2710.645679538364" x="660.827015824964" y="-677.661419884591" fill="#c89666"></rect><rect width="53.5395374283822" height="2710.645679538364" x="714.3665532533461" y="-677.661419884591" fill="#d4a574"></rect><rect width="53.5395374283822" height="2710.645679538364" x="767.9060906817282" y="-677.661419884591" fill="#e6c39e"></rect><rect width="53.5395374283822" height="2710.645679538364" x="821.4456281101105" y="-677.661419884591" fill="#f5deb3"></rect><rect width="53.5395374283822" height="2710.645679538364" x="874.9851655384927" y="-677.661419884591" fill="#ffeaa7"></rect><rect width="53.5395374283822" height="2710.645679538364" x="928.5247029668748" y="-677.661419884591" fill="#c89666"></rect><rect width="53.5395374283822" height="2710.645679538364" x="982.0642403952571" y="-677.661419884591" fill="#d4a574"></rect><rect width="53.5395374283822" height="2710.645679538364" x="1035.6037778236391" y="-677.661419884591" fill="#e6c39e"></rect><rect width="53.5395374283822" height="2710.645679538364" x="1089.1433152520212" y="-677.661419884591" fill="#f5deb3"></rect><rect width="53.5395374283822" height="2710.645679538364" x="1142.6828526804038" y="-677.661419884591" fill="#ffeaa7"></rect><rect width="53.5395374283822" height="2710.645679538364" x="1196.222390108786" y="-677.661419884591" fill="#c89666"></rect><rect width="53.5395374283822" height="2710.645679538364" x="1249.761927537168" y="-677.661419884591" fill="#d4a574"></rect><rect width="53.5395374283822" height="2710.645679538364" x="1303.3014649655502" y="-677.661419884591" fill="#e6c39e"></rect><rect width="53.5395374283822" height="2710.645679538364" x="1356.8410023939323" y="-677.661419884591" fill="#f5deb3"></rect><rect width="53.5395374283822" height="2710.645679538364" x="1410.3805398223149" y="-677.661419884591" fill="#ffeaa7"></rect><rect width="53.5395374283822" height="2710.645679538364" x="1463.920077250697" y="-677.661419884591" fill="#c89666"></rect><rect width="53.5395374283822" height="2710.645679538364" x="1517.459614679079" y="-677.661419884591" fill="#d4a574"></rect><rect width="53.5395374283822" height="2710.645679538364" x="1570.9991521074612" y="-677.661419884591" fill="#e6c39e"></rect><rect width="53.5395374283822" height="2710.645679538364" x="1624.5386895358433" y="-677.661419884591" fill="#f5deb3"></rect><rect width="53.5395374283822" height="2710.645679538364" x="1678.078226964226" y="-677.661419884591" fill="#ffeaa7"></rect><rect width="53.5395374283822" height="2710.645679538364" x="1731.617764392608" y="-677.661419884591" fill="#c89666"></rect><rect width="53.5395374283822" height="2710.645679538364" x="1785.1573018209901" y="-677.661419884591" fill="#d4a574"></rect><rect width="53.5395374283822" height="2710.645679538364" x="1838.6968392493723" y="-677.661419884591" fill="#e6c39e"></rect><rect width="53.5395374283822" height="2710.645679538364" x="1892.2363766777544" y="-677.661419884591" fill="#f5deb3"></rect><rect width="53.5395374283822" height="2710.645679538364" x="1945.7759141061365" y="-677.661419884591" fill="#ffeaa7"></rect><rect width="53.5395374283822" height="2710.645679538364" x="1999.315451534519" y="-677.661419884591" fill="#c89666"></rect><rect width="53.5395374283822" height="2710.645679538364" x="2052.854988962901" y="-677.661419884591" fill="#d4a574"></rect><rect width="53.5395374283822" height="2710.645679538364" x="2106.3945263912833" y="-677.661419884591" fill="#e6c39e"></rect><rect width="53.5395374283822" height="2710.645679538364" x="2159.9340638196654" y="-677.661419884591" fill="#f5deb3"></rect><rect width="53.5395374283822" height="2710.645679538364" x="2213.4736012480475" y="-677.661419884591" fill="#ffeaa7"></rect><rect width="53.5395374283822" height="2710.645679538364" x="2267.0131386764297" y="-677.661419884591" fill="#c89666"></rect></g><rect width="1200" height="193.6" x="0" y="376.4" fill="rgba(255,255,255,0.4)"></rect><text font-family="system-ui, -apple-system, sans-serif" font-size="64" font-weight="700" text-anchor="middle" fill="rgba(255,255,255,0.5)" x="602" y="474.42812499999997"><tspan dy="0" x="602">Best Portable Power Stations</tspan></text><text font-family="system-ui, -apple-system, sans-serif" font-size="64" font-weight="700" text-anchor="middle" fill="#1a1a1a" x="600" y="472.42812499999997"><tspan dy="0" x="600">Best Portable Power Stations</tspan></text><text font-family="system-ui, -apple-system, sans-serif" font-size="64" font-weight="700" text-anchor="middle" fill="rgba(255,255,255,0.5)" x="602" y="551.228125"><tspan dy="0" x="602">for Cuba 2025: Blackout Guide</tspan></text><text font-family="system-ui, -apple-system, sans-serif" font-size="64" font-weight="700" text-anchor="middle" fill="#1a1a1a" x="600" y="549.228125"><tspan dy="0" x="600">for Cuba 2025: Blackout Guide</tspan></text><text font-family="system-ui, -apple-system, sans-serif" font-size="18" font-weight="500" fill="#1a1a1a" opacity="0.6" x="1070" y="614.2392578125"><tspan dy="0" x="1070">veguitas.com</tspan></text></svg>