<svg xmlns="http://www.w3.org/2000/svg" width="100%" height="100%" viewBox="0 0 1200 630" preserveAspectRatio="xMidYMid meet">
  <defs>
    
    <linearGradient id="prism-bg-5bo" x1="0%" y1="0%" x2="100%" y2="100%">
      <stop offset="0%" stop-color="#fafafa"/>
      <stop offset="100%" stop-color="#f0f0f0"/>
    </linearGradient>
  
<filter id="filter-bw18nbfxjp-unused"/>
    <filter id="filter-bw18nbfxjp-blur" x="-20%" y="-20%" width="140%" height="140%">
      <feGaussianBlur in="SourceGraphic" stdDeviation="12"/>
    </filter>
    <filter id="filter-bw18nbfxjp-shadow" x="-50%" y="-50%" width="200%" height="200%">
      <feDropShadow dx="0" dy="4" stdDeviation="6" flood-color="rgba(0,0,0,0.2)"/>
    </filter>
  </defs>

  <!-- Pattern Background -->
  <g>
    <rect width="1200" height="630" fill="url(#prism-bg-5bo)"/>

        <polygon points="15.2,31.4 96.1,-13.7 -31.3,86.2"
                 fill="#8b5cf6" opacity="0.35"/>
      

        <polygon points="96.1,-13.7 93.4,120.9 -31.3,86.2"
                 fill="#fb7185" opacity="0.33"/>
      

        <polygon points="96.1,-13.7 191.5,-22.9 93.4,120.9"
                 fill="#45aaf2" opacity="0.26"/>
      

        <polygon points="191.5,-22.9 215.0,109.8 93.4,120.9"
                 fill="#f472b6" opacity="0.31"/>
      

        <polygon points="191.5,-22.9 315.9,-14.0 215.0,109.8"
                 fill="#06b6d4" opacity="0.26"/>
      

        <polygon points="315.9,-14.0 347.7,133.5 215.0,109.8"
                 fill="#06b6d4" opacity="0.33"/>
      

        <polygon points="315.9,-14.0 444.3,11.0 347.7,133.5"
                 fill="#f472b6" opacity="0.31"/>
      

        <polygon points="444.3,11.0 453.1,135.5 347.7,133.5"
                 fill="#8b5cf6" opacity="0.48"/>
      

        <polygon points="444.3,11.0 535.1,-3.8 453.1,135.5"
                 fill="#06b6d4" opacity="0.24"/>
      

        <polygon points="535.1,-3.8 552.6,73.2 453.1,135.5"
                 fill="#f472b6" opacity="0.37"/>
      

        <polygon points="535.1,-3.8 666.4,-22.1 552.6,73.2"
                 fill="#fb7185" opacity="0.19"/>
      

        <polygon points="666.4,-22.1 672.9,111.7 552.6,73.2"
                 fill="#06b6d4" opacity="0.41"/>
      

        <polygon points="666.4,-22.1 773.5,-10.3 672.9,111.7"
                 fill="#45aaf2" opacity="0.52"/>
      

        <polygon points="773.5,-10.3 793.6,109.5 672.9,111.7"
                 fill="#8b5cf6" opacity="0.24"/>
      

        <polygon points="773.5,-10.3 847.4,9.3 793.6,109.5"
                 fill="#06b6d4" opacity="0.34"/>
      

        <polygon points="847.4,9.3 862.3,97.5 793.6,109.5"
                 fill="#8b5cf6" opacity="0.49"/>
      

        <polygon points="847.4,9.3 979.6,2.6 862.3,97.5"
                 fill="#fb7185" opacity="0.24"/>
      

        <polygon points="979.6,2.6 995.5,131.2 862.3,97.5"
                 fill="#f472b6" opacity="0.25"/>
      

        <polygon points="979.6,2.6 1100.5,-14.8 995.5,131.2"
                 fill="#45aaf2" opacity="0.32"/>
      

        <polygon points="1100.5,-14.8 1076.0,102.9 995.5,131.2"
                 fill="#06b6d4" opacity="0.33"/>
      

        <polygon points="1100.5,-14.8 1188.5,15.5 1076.0,102.9"
                 fill="#45aaf2" opacity="0.54"/>
      

        <polygon points="1188.5,15.5 1185.7,126.9 1076.0,102.9"
                 fill="#06b6d4" opacity="0.49"/>
      

        <polygon points="-31.3,86.2 93.4,120.9 -7.0,206.3"
                 fill="#f472b6" opacity="0.40"/>
      

        <polygon points="93.4,120.9 83.0,221.3 -7.0,206.3"
                 fill="#8b5cf6" opacity="0.35"/>
      

        <polygon points="93.4,120.9 215.0,109.8 83.0,221.3"
                 fill="#f472b6" opacity="0.21"/>
      

        <polygon points="215.0,109.8 219.8,200.5 83.0,221.3"
                 fill="#8b5cf6" opacity="0.18"/>
      

        <polygon points="215.0,109.8 347.7,133.5 219.8,200.5"
                 fill="#45aaf2" opacity="0.21"/>
      

        <polygon points="347.7,133.5 311.9,190.6 219.8,200.5"
                 fill="#f472b6" opacity="0.28"/>
      

        <polygon points="347.7,133.5 453.1,135.5 311.9,190.6"
                 fill="#8b5cf6" opacity="0.32"/>
      

        <polygon points="453.1,135.5 424.0,197.1 311.9,190.6"
                 fill="#45aaf2" opacity="0.34"/>
      

        <polygon points="453.1,135.5 552.6,73.2 424.0,197.1"
                 fill="#fb7185" opacity="0.30"/>
      

        <polygon points="552.6,73.2 531.2,198.8 424.0,197.1"
                 fill="#8b5cf6" opacity="0.40"/>
      

        <polygon points="552.6,73.2 672.9,111.7 531.2,198.8"
                 fill="#fb7185" opacity="0.34"/>
      

        <polygon points="672.9,111.7 637.8,213.2 531.2,198.8"
                 fill="#fb7185" opacity="0.35"/>
      

        <polygon points="672.9,111.7 793.6,109.5 637.8,213.2"
                 fill="#f472b6" opacity="0.47"/>
      

        <polygon points="793.6,109.5 744.9,197.9 637.8,213.2"
                 fill="#8b5cf6" opacity="0.21"/>
      

        <polygon points="793.6,109.5 862.3,97.5 744.9,197.9"
                 fill="#06b6d4" opacity="0.16"/>
      

        <polygon points="862.3,97.5 857.0,207.7 744.9,197.9"
                 fill="#f472b6" opacity="0.55"/>
      

        <polygon points="862.3,97.5 995.5,131.2 857.0,207.7"
                 fill="#06b6d4" opacity="0.25"/>
      

        <polygon points="995.5,131.2 955.2,205.3 857.0,207.7"
                 fill="#8b5cf6" opacity="0.40"/>
      

        <polygon points="995.5,131.2 1076.0,102.9 955.2,205.3"
                 fill="#06b6d4" opacity="0.32"/>
      

        <polygon points="1076.0,102.9 1074.8,204.6 955.2,205.3"
                 fill="#45aaf2" opacity="0.31"/>
      

        <polygon points="1076.0,102.9 1185.7,126.9 1074.8,204.6"
                 fill="#06b6d4" opacity="0.30"/>
      

        <polygon points="1185.7,126.9 1204.9,237.5 1074.8,204.6"
                 fill="#fb7185" opacity="0.42"/>
      

        <polygon points="-7.0,206.3 83.0,221.3 -5.4,343.2"
                 fill="#8b5cf6" opacity="0.21"/>
      

        <polygon points="83.0,221.3 119.7,313.1 -5.4,343.2"
                 fill="#8b5cf6" opacity="0.32"/>
      

        <polygon points="83.0,221.3 219.8,200.5 119.7,313.1"
                 fill="#8b5cf6" opacity="0.44"/>
      

        <polygon points="219.8,200.5 219.1,308.7 119.7,313.1"
                 fill="#8b5cf6" opacity="0.37"/>
      

        <polygon points="219.8,200.5 311.9,190.6 219.1,308.7"
                 fill="#f472b6" opacity="0.16"/>
      

        <polygon points="311.9,190.6 323.0,321.9 219.1,308.7"
                 fill="#06b6d4" opacity="0.28"/>
      

        <polygon points="311.9,190.6 424.0,197.1 323.0,321.9"
                 fill="#fb7185" opacity="0.43"/>
      

        <polygon points="424.0,197.1 454.5,311.9 323.0,321.9"
                 fill="#45aaf2" opacity="0.40"/>
      

        <polygon points="424.0,197.1 531.2,198.8 454.5,311.9"
                 fill="#06b6d4" opacity="0.48"/>
      

        <polygon points="531.2,198.8 555.3,334.0 454.5,311.9"
                 fill="#fb7185" opacity="0.29"/>
      

        <polygon points="531.2,198.8 637.8,213.2 555.3,334.0"
                 fill="#45aaf2" opacity="0.30"/>
      

        <polygon points="637.8,213.2 632.4,315.0 555.3,334.0"
                 fill="#45aaf2" opacity="0.48"/>
      

        <polygon points="637.8,213.2 744.9,197.9 632.4,315.0"
                 fill="#45aaf2" opacity="0.26"/>
      

        <polygon points="744.9,197.9 789.3,320.2 632.4,315.0"
                 fill="#fb7185" opacity="0.46"/>
      

        <polygon points="744.9,197.9 857.0,207.7 789.3,320.2"
                 fill="#8b5cf6" opacity="0.34"/>
      

        <polygon points="857.0,207.7 878.1,338.0 789.3,320.2"
                 fill="#fb7185" opacity="0.27"/>
      

        <polygon points="857.0,207.7 955.2,205.3 878.1,338.0"
                 fill="#f472b6" opacity="0.36"/>
      

        <polygon points="955.2,205.3 960.0,291.0 878.1,338.0"
                 fill="#f472b6" opacity="0.47"/>
      

        <polygon points="955.2,205.3 1074.8,204.6 960.0,291.0"
                 fill="#8b5cf6" opacity="0.43"/>
      

        <polygon points="1074.8,204.6 1107.1,323.6 960.0,291.0"
                 fill="#8b5cf6" opacity="0.38"/>
      

        <polygon points="1074.8,204.6 1204.9,237.5 1107.1,323.6"
                 fill="#45aaf2" opacity="0.27"/>
      

        <polygon points="1204.9,237.5 1179.9,323.7 1107.1,323.6"
                 fill="#f472b6" opacity="0.54"/>
      

        <polygon points="-5.4,343.2 119.7,313.1 -1.3,411.6"
                 fill="#45aaf2" opacity="0.23"/>
      

        <polygon points="119.7,313.1 124.5,419.7 -1.3,411.6"
                 fill="#45aaf2" opacity="0.54"/>
      

        <polygon points="119.7,313.1 219.1,308.7 124.5,419.7"
                 fill="#fb7185" opacity="0.47"/>
      

        <polygon points="219.1,308.7 202.9,435.6 124.5,419.7"
                 fill="#45aaf2" opacity="0.35"/>
      

        <polygon points="219.1,308.7 323.0,321.9 202.9,435.6"
                 fill="#45aaf2" opacity="0.17"/>
      

        <polygon points="323.0,321.9 328.1,417.7 202.9,435.6"
                 fill="#06b6d4" opacity="0.48"/>
      

        <polygon points="323.0,321.9 454.5,311.9 328.1,417.7"
                 fill="#8b5cf6" opacity="0.21"/>
      

        <polygon points="454.5,311.9 430.4,432.8 328.1,417.7"
                 fill="#8b5cf6" opacity="0.22"/>
      

        <polygon points="454.5,311.9 555.3,334.0 430.4,432.8"
                 fill="#fb7185" opacity="0.53"/>
      

        <polygon points="555.3,334.0 525.9,439.1 430.4,432.8"
                 fill="#f472b6" opacity="0.24"/>
      

        <polygon points="555.3,334.0 632.4,315.0 525.9,439.1"
                 fill="#fb7185" opacity="0.38"/>
      

        <polygon points="632.4,315.0 628.8,428.1 525.9,439.1"
                 fill="#8b5cf6" opacity="0.15"/>
      

        <polygon points="632.4,315.0 789.3,320.2 628.8,428.1"
                 fill="#fb7185" opacity="0.18"/>
      

        <polygon points="789.3,320.2 777.1,430.6 628.8,428.1"
                 fill="#fb7185" opacity="0.37"/>
      

        <polygon points="789.3,320.2 878.1,338.0 777.1,430.6"
                 fill="#45aaf2" opacity="0.42"/>
      

        <polygon points="878.1,338.0 853.3,416.1 777.1,430.6"
                 fill="#06b6d4" opacity="0.21"/>
      

        <polygon points="878.1,338.0 960.0,291.0 853.3,416.1"
                 fill="#45aaf2" opacity="0.18"/>
      

        <polygon points="960.0,291.0 958.2,440.0 853.3,416.1"
                 fill="#fb7185" opacity="0.35"/>
      

        <polygon points="960.0,291.0 1107.1,323.6 958.2,440.0"
                 fill="#f472b6" opacity="0.45"/>
      

        <polygon points="1107.1,323.6 1078.9,424.9 958.2,440.0"
                 fill="#fb7185" opacity="0.49"/>
      

        <polygon points="1107.1,323.6 1179.9,323.7 1078.9,424.9"
                 fill="#f472b6" opacity="0.43"/>
      

        <polygon points="1179.9,323.7 1192.2,436.6 1078.9,424.9"
                 fill="#45aaf2" opacity="0.21"/>
      

        <polygon points="-1.3,411.6 124.5,419.7 1.0,511.8"
                 fill="#f472b6" opacity="0.41"/>
      

        <polygon points="124.5,419.7 130.4,540.2 1.0,511.8"
                 fill="#fb7185" opacity="0.49"/>
      

        <polygon points="124.5,419.7 202.9,435.6 130.4,540.2"
                 fill="#fb7185" opacity="0.43"/>
      

        <polygon points="202.9,435.6 224.7,530.2 130.4,540.2"
                 fill="#06b6d4" opacity="0.38"/>
      

        <polygon points="202.9,435.6 328.1,417.7 224.7,530.2"
                 fill="#f472b6" opacity="0.46"/>
      

        <polygon points="328.1,417.7 310.8,520.0 224.7,530.2"
                 fill="#f472b6" opacity="0.32"/>
      

        <polygon points="328.1,417.7 430.4,432.8 310.8,520.0"
                 fill="#f472b6" opacity="0.31"/>
      

        <polygon points="430.4,432.8 430.4,490.9 310.8,520.0"
                 fill="#45aaf2" opacity="0.28"/>
      

        <polygon points="430.4,432.8 525.9,439.1 430.4,490.9"
                 fill="#45aaf2" opacity="0.23"/>
      

        <polygon points="525.9,439.1 533.4,525.7 430.4,490.9"
                 fill="#fb7185" opacity="0.16"/>
      

        <polygon points="525.9,439.1 628.8,428.1 533.4,525.7"
                 fill="#fb7185" opacity="0.32"/>
      

        <polygon points="628.8,428.1 628.3,546.8 533.4,525.7"
                 fill="#fb7185" opacity="0.43"/>
      

        <polygon points="628.8,428.1 777.1,430.6 628.3,546.8"
                 fill="#f472b6" opacity="0.32"/>
      

        <polygon points="777.1,430.6 744.5,551.5 628.3,546.8"
                 fill="#f472b6" opacity="0.40"/>
      

        <polygon points="777.1,430.6 853.3,416.1 744.5,551.5"
                 fill="#06b6d4" opacity="0.45"/>
      

        <polygon points="853.3,416.1 859.8,534.4 744.5,551.5"
                 fill="#fb7185" opacity="0.18"/>
      

        <polygon points="853.3,416.1 958.2,440.0 859.8,534.4"
                 fill="#f472b6" opacity="0.36"/>
      

        <polygon points="958.2,440.0 984.0,537.8 859.8,534.4"
                 fill="#8b5cf6" opacity="0.53"/>
      

        <polygon points="958.2,440.0 1078.9,424.9 984.0,537.8"
                 fill="#45aaf2" opacity="0.23"/>
      

        <polygon points="1078.9,424.9 1102.1,513.2 984.0,537.8"
                 fill="#fb7185" opacity="0.20"/>
      

        <polygon points="1078.9,424.9 1192.2,436.6 1102.1,513.2"
                 fill="#45aaf2" opacity="0.53"/>
      

        <polygon points="1192.2,436.6 1178.7,512.2 1102.1,513.2"
                 fill="#f472b6" opacity="0.47"/>
      

        <polygon points="1.0,511.8 130.4,540.2 -10.2,639.4"
                 fill="#45aaf2" opacity="0.19"/>
      

        <polygon points="130.4,540.2 102.1,638.1 -10.2,639.4"
                 fill="#45aaf2" opacity="0.21"/>
      

        <polygon points="130.4,540.2 224.7,530.2 102.1,638.1"
                 fill="#f472b6" opacity="0.47"/>
      

        <polygon points="224.7,530.2 234.7,640.8 102.1,638.1"
                 fill="#f472b6" opacity="0.48"/>
      

        <polygon points="224.7,530.2 310.8,520.0 234.7,640.8"
                 fill="#f472b6" opacity="0.23"/>
      

        <polygon points="310.8,520.0 307.3,635.5 234.7,640.8"
                 fill="#fb7185" opacity="0.46"/>
      

        <polygon points="310.8,520.0 430.4,490.9 307.3,635.5"
                 fill="#f472b6" opacity="0.34"/>
      

        <polygon points="430.4,490.9 418.1,624.7 307.3,635.5"
                 fill="#06b6d4" opacity="0.28"/>
      

        <polygon points="430.4,490.9 533.4,525.7 418.1,624.7"
                 fill="#fb7185" opacity="0.41"/>
      

        <polygon points="533.4,525.7 559.0,628.3 418.1,624.7"
                 fill="#fb7185" opacity="0.54"/>
      

        <polygon points="533.4,525.7 628.3,546.8 559.0,628.3"
                 fill="#fb7185" opacity="0.49"/>
      

        <polygon points="628.3,546.8 672.5,603.2 559.0,628.3"
                 fill="#f472b6" opacity="0.28"/>
      

        <polygon points="628.3,546.8 744.5,551.5 672.5,603.2"
                 fill="#f472b6" opacity="0.27"/>
      

        <polygon points="744.5,551.5 757.0,610.0 672.5,603.2"
                 fill="#fb7185" opacity="0.41"/>
      

        <polygon points="744.5,551.5 859.8,534.4 757.0,610.0"
                 fill="#8b5cf6" opacity="0.17"/>
      

        <polygon points="859.8,534.4 850.6,636.4 757.0,610.0"
                 fill="#06b6d4" opacity="0.39"/>
      

        <polygon points="859.8,534.4 984.0,537.8 850.6,636.4"
                 fill="#06b6d4" opacity="0.30"/>
      

        <polygon points="984.0,537.8 956.7,641.4 850.6,636.4"
                 fill="#06b6d4" opacity="0.16"/>
      

        <polygon points="984.0,537.8 1102.1,513.2 956.7,641.4"
                 fill="#fb7185" opacity="0.38"/>
      

        <polygon points="1102.1,513.2 1103.4,630.6 956.7,641.4"
                 fill="#fb7185" opacity="0.32"/>
      

        <polygon points="1102.1,513.2 1178.7,512.2 1103.4,630.6"
                 fill="#45aaf2" opacity="0.27"/>
      

        <polygon points="1178.7,512.2 1180.6,632.9 1103.4,630.6"
                 fill="#45aaf2" opacity="0.19"/>
      

        <polygon points="666.4,-22.1 773.5,-10.3 672.9,111.7"
                 fill="white" opacity="0.5"/>
      

        <polygon points="310.8,520.0 430.4,490.9 307.3,635.5"
                 fill="white" opacity="0.5"/>
      

        <polygon points="-7.0,206.3 83.0,221.3 -5.4,343.2"
                 fill="white" opacity="0.5"/>
      

        <polygon points="83.0,221.3 219.8,200.5 119.7,313.1"
                 fill="white" opacity="0.5"/>
      

        <polygon points="1107.1,323.6 1179.9,323.7 1078.9,424.9"
                 fill="white" opacity="0.5"/>
      

        <polygon points="224.7,530.2 310.8,520.0 234.7,640.8"
                 fill="white" opacity="0.5"/>
      

        <polygon points="219.8,200.5 311.9,190.6 219.1,308.7"
                 fill="white" opacity="0.5"/>
      

        <polygon points="628.3,546.8 744.5,551.5 672.5,603.2"
                 fill="white" opacity="0.5"/>
      
<line x1="15.2" y1="31.4" x2="-31.3" y2="86.2" stroke="#45aaf2" stroke-width="1" opacity="0.3"/>
<line x1="191.5" y1="-22.9" x2="215.0" y2="109.8" stroke="#fb7185" stroke-width="1" opacity="0.3"/>
<line x1="444.3" y1="11.0" x2="535.1" y2="-3.8" stroke="#fb7185" stroke-width="1" opacity="0.3"/>
<line x1="444.3" y1="11.0" x2="453.1" y2="135.5" stroke="#8b5cf6" stroke-width="1" opacity="0.3"/>
<line x1="535.1" y1="-3.8" x2="552.6" y2="73.2" stroke="#8b5cf6" stroke-width="1" opacity="0.3"/>
<line x1="773.5" y1="-10.3" x2="847.4" y2="9.3" stroke="#8b5cf6" stroke-width="1" opacity="0.3"/>
<line x1="979.6" y1="2.6" x2="995.5" y2="131.2" stroke="#8b5cf6" stroke-width="1" opacity="0.3"/>
<line x1="1100.5" y1="-14.8" x2="1188.5" y2="15.5" stroke="#8b5cf6" stroke-width="1" opacity="0.3"/>
<line x1="1100.5" y1="-14.8" x2="1076.0" y2="102.9" stroke="#fb7185" stroke-width="1" opacity="0.3"/>
<line x1="-31.3" y1="86.2" x2="93.4" y2="120.9" stroke="#45aaf2" stroke-width="1" opacity="0.3"/>
<line x1="-31.3" y1="86.2" x2="-7.0" y2="206.3" stroke="#fb7185" stroke-width="1" opacity="0.3"/>
<line x1="453.1" y1="135.5" x2="552.6" y2="73.2" stroke="#8b5cf6" stroke-width="1" opacity="0.3"/>
<line x1="552.6" y1="73.2" x2="672.9" y2="111.7" stroke="#45aaf2" stroke-width="1" opacity="0.3"/>
<line x1="552.6" y1="73.2" x2="531.2" y2="198.8" stroke="#8b5cf6" stroke-width="1" opacity="0.3"/>
<line x1="672.9" y1="111.7" x2="793.6" y2="109.5" stroke="#45aaf2" stroke-width="1" opacity="0.3"/>
<line x1="672.9" y1="111.7" x2="637.8" y2="213.2" stroke="#fb7185" stroke-width="1" opacity="0.3"/>
<line x1="995.5" y1="131.2" x2="955.2" y2="205.3" stroke="#45aaf2" stroke-width="1" opacity="0.3"/>
<line x1="1076.0" y1="102.9" x2="1074.8" y2="204.6" stroke="#8b5cf6" stroke-width="1" opacity="0.3"/>
<line x1="-7.0" y1="206.3" x2="83.0" y2="221.3" stroke="#45aaf2" stroke-width="1" opacity="0.3"/>
<line x1="-7.0" y1="206.3" x2="-5.4" y2="343.2" stroke="#fb7185" stroke-width="1" opacity="0.3"/>
<line x1="83.0" y1="221.3" x2="119.7" y2="313.1" stroke="#8b5cf6" stroke-width="1" opacity="0.3"/>
<line x1="219.8" y1="200.5" x2="311.9" y2="190.6" stroke="#fb7185" stroke-width="1" opacity="0.3"/>
<line x1="311.9" y1="190.6" x2="424.0" y2="197.1" stroke="#fb7185" stroke-width="1" opacity="0.3"/>
<line x1="531.2" y1="198.8" x2="637.8" y2="213.2" stroke="#8b5cf6" stroke-width="1" opacity="0.3"/>
<line x1="637.8" y1="213.2" x2="744.9" y2="197.9" stroke="#45aaf2" stroke-width="1" opacity="0.3"/>
<line x1="1074.8" y1="204.6" x2="1204.9" y2="237.5" stroke="#fb7185" stroke-width="1" opacity="0.3"/>
<line x1="1074.8" y1="204.6" x2="1107.1" y2="323.6" stroke="#45aaf2" stroke-width="1" opacity="0.3"/>
<line x1="-5.4" y1="343.2" x2="119.7" y2="313.1" stroke="#fb7185" stroke-width="1" opacity="0.3"/>
<line x1="119.7" y1="313.1" x2="124.5" y2="419.7" stroke="#45aaf2" stroke-width="1" opacity="0.3"/>
<line x1="219.1" y1="308.7" x2="323.0" y2="321.9" stroke="#45aaf2" stroke-width="1" opacity="0.3"/>
<line x1="454.5" y1="311.9" x2="555.3" y2="334.0" stroke="#fb7185" stroke-width="1" opacity="0.3"/>
<line x1="454.5" y1="311.9" x2="430.4" y2="432.8" stroke="#fb7185" stroke-width="1" opacity="0.3"/>
<line x1="632.4" y1="315.0" x2="789.3" y2="320.2" stroke="#45aaf2" stroke-width="1" opacity="0.3"/>
<line x1="789.3" y1="320.2" x2="777.1" y2="430.6" stroke="#45aaf2" stroke-width="1" opacity="0.3"/>
<line x1="960.0" y1="291.0" x2="958.2" y2="440.0" stroke="#45aaf2" stroke-width="1" opacity="0.3"/>
<line x1="124.5" y1="419.7" x2="202.9" y2="435.6" stroke="#8b5cf6" stroke-width="1" opacity="0.3"/>
<line x1="525.9" y1="439.1" x2="628.8" y2="428.1" stroke="#fb7185" stroke-width="1" opacity="0.3"/>
<line x1="1078.9" y1="424.9" x2="1102.1" y2="513.2" stroke="#45aaf2" stroke-width="1" opacity="0.3"/>
<line x1="1.0" y1="511.8" x2="130.4" y2="540.2" stroke="#45aaf2" stroke-width="1" opacity="0.3"/>
<line x1="1.0" y1="511.8" x2="-10.2" y2="639.4" stroke="#fb7185" stroke-width="1" opacity="0.3"/>
<line x1="430.4" y1="490.9" x2="533.4" y2="525.7" stroke="#8b5cf6" stroke-width="1" opacity="0.3"/>
<line x1="533.4" y1="525.7" x2="559.0" y2="628.3" stroke="#fb7185" stroke-width="1" opacity="0.3"/>
<line x1="628.3" y1="546.8" x2="744.5" y2="551.5" stroke="#8b5cf6" stroke-width="1" opacity="0.3"/>
<line x1="628.3" y1="546.8" x2="672.5" y2="603.2" stroke="#fb7185" stroke-width="1" opacity="0.3"/>
<line x1="744.5" y1="551.5" x2="859.8" y2="534.4" stroke="#fb7185" stroke-width="1" opacity="0.3"/>
<line x1="859.8" y1="534.4" x2="984.0" y2="537.8" stroke="#fb7185" stroke-width="1" opacity="0.3"/>
<line x1="859.8" y1="534.4" x2="850.6" y2="636.4" stroke="#fb7185" stroke-width="1" opacity="0.3"/>
<line x1="984.0" y1="537.8" x2="1102.1" y2="513.2" stroke="#45aaf2" stroke-width="1" opacity="0.3"/>
<line x1="984.0" y1="537.8" x2="956.7" y2="641.4" stroke="#fb7185" stroke-width="1" opacity="0.3"/>
  </g>

  <!-- Text Box with Frosted Glass (shadow only on box, not text) -->
  <g filter="url(#filter-bw18nbfxjp-shadow)">
    <g filter="url(#filter-bw18nbfxjp-blur)">
      <rect x="60" y="183.8" width="1080" height="262.4" rx="20" ry="20" fill="#ffffff"/>
    </g>
    <rect x="60" y="183.8" width="1080" height="262.4" rx="20" ry="20"
          fill="rgba(255, 255, 255, 0.8)"/>
  </g>

  <!-- Text (separate from shadow group) -->
  <text
        font-family="system-ui, -apple-system, BlinkMacSystemFont, 'Segoe UI', sans-serif"
        font-size="64"
        font-weight="700"
        fill="#2e282a">
    <tspan x="600" y="289.4" text-anchor="middle">Best Portable Power Stations</tspan>
      <tspan x="600" y="372.6" text-anchor="middle">for Cuba 2025: Blackout Guide</tspan>
  </text>

  <!-- Watermark -->
  <text x="1160" y="605"
        font-family="system-ui, -apple-system, sans-serif"
        font-size="18"
        font-weight="600"
        fill="rgba(0,0,0,0.3)"
        text-anchor="end">
    veguitas.com
  </text>
</svg>