<svg xmlns="http://www.w3.org/2000/svg" version="1.1" xmlns:xlink="http://www.w3.org/1999/xlink" width="1200" height="630" viewBox="0 0 1200 630"><rect width="200" height="315" x="0" y="0" fill="#f5b7b1"></rect><circle r="85" cx="100" cy="157.5" fill="#abebc6"></circle><rect width="200" height="315" x="200" y="0" fill="#f9e79f"></rect><rect width="200" height="78.75" x="200" y="0" fill="#f5b7b1"></rect><rect width="200" height="78.75" x="200" y="157.5" fill="#f5b7b1"></rect><rect width="200" height="315" x="400" y="0" fill="#aed6f1"></rect><circle r="85" cx="500" cy="157.5" fill="#f9e79f"></circle><rect width="200" height="315" x="600" y="0" fill="#aed6f1"></rect><circle r="85" cx="700" cy="157.5" fill="#aed6f1"></circle><rect width="200" height="315" x="800" y="0" fill="#abebc6"></rect><polygon points="800,0 800,315 1000,315" fill="#aed6f1"></polygon><rect width="200" height="315" x="1000" y="0" fill="#f9e79f"></rect><path d="M 1000 315 A 100 157.5 0 0 1 1200 315 Z" fill="#abebc6"></path><rect width="200" height="315" x="0" y="315" fill="#f9e79f"></rect><circle r="85" cx="100" cy="472.5" fill="#abebc6"></circle><rect width="200" height="315" x="200" y="315" fill="#d7bde2"></rect><circle r="30" cx="250" cy="393.75" fill="#abebc6"></circle><circle r="30" cx="350" cy="393.75" fill="#abebc6"></circle><circle r="30" cx="250" cy="551.25" fill="#abebc6"></circle><circle r="30" cx="350" cy="551.25" fill="#abebc6"></circle><rect width="200" height="315" x="400" y="315" fill="#f9e79f"></rect><circle r="85" cx="500" cy="472.5" fill="#f5b7b1"></circle><circle r="50" cx="500" cy="472.5" fill="#f9e79f"></circle><rect width="200" height="315" x="600" y="315" fill="#f5b7b1"></rect><circle r="30" cx="650" cy="393.75" fill="#f9e79f"></circle><circle r="30" cx="750" cy="393.75" fill="#f9e79f"></circle><circle r="30" cx="650" cy="551.25" fill="#f9e79f"></circle><circle r="30" cx="750" cy="551.25" fill="#f9e79f"></circle><rect width="200" height="315" x="800" y="315" fill="#aed6f1"></rect><path d="M 800 630 A 100 157.5 0 0 1 1000 630 Z" fill="#aed6f1"></path><rect width="200" height="315" x="1000" y="315" fill="#f5b7b1"></rect><circle r="30" cx="1050" cy="393.75" fill="#abebc6"></circle><circle r="30" cx="1150" cy="393.75" fill="#abebc6"></circle><circle r="30" cx="1050" cy="551.25" fill="#abebc6"></circle><circle r="30" cx="1150" cy="551.25" fill="#abebc6"></circle><rect width="1200" height="193.6" x="0" y="376.4" fill="rgba(255,255,255,0.4)"></rect><text font-family="system-ui, -apple-system, sans-serif" font-size="64" font-weight="700" text-anchor="middle" fill="rgba(255,255,255,0.5)" x="602" y="474.42812499999997"><tspan dy="0" x="602">Best Portable Power Stations</tspan></text><text font-family="system-ui, -apple-system, sans-serif" font-size="64" font-weight="700" text-anchor="middle" fill="#1a1a1a" x="600" y="472.42812499999997"><tspan dy="0" x="600">Best Portable Power Stations</tspan></text><text font-family="system-ui, -apple-system, sans-serif" font-size="64" font-weight="700" text-anchor="middle" fill="rgba(255,255,255,0.5)" x="602" y="551.228125"><tspan dy="0" x="602">for Cuba 2025: Blackout Guide</tspan></text><text font-family="system-ui, -apple-system, sans-serif" font-size="64" font-weight="700" text-anchor="middle" fill="#1a1a1a" x="600" y="549.228125"><tspan dy="0" x="600">for Cuba 2025: Blackout Guide</tspan></text><text font-family="system-ui, -apple-system, sans-serif" font-size="18" font-weight="500" fill="#1a1a1a" opacity="0.6" x="1070" y="614.2392578125"><tspan dy="0" x="1070">veguitas.com</tspan></text></svg>