<svg xmlns="http://www.w3.org/2000/svg" width="100%" height="100%" viewBox="0 0 1200 630" preserveAspectRatio="xMidYMid meet">
  <defs>
    
    <linearGradient id="sky-32n" x1="0%" y1="0%" x2="0%" y2="100%">
      <stop offset="0%" stop-color="#8b5cf6"/>
      <stop offset="30%" stop-color="#e4572e"/>
      <stop offset="60%" stop-color="#f97316"/>
      <stop offset="100%" stop-color="#ffc914"/>
    </linearGradient>
  

    <radialGradient id="sun-glow-61j" cx="50%" cy="50%" r="50%">
      <stop offset="0%" stop-color="#ffc914" stop-opacity="1"/>
      <stop offset="40%" stop-color="#f97316" stop-opacity="0.8"/>
      <stop offset="100%" stop-color="#e4572e" stop-opacity="0"/>
    </radialGradient>
  

    <filter id="filter-bw18nbfxjp-sun-glow" x="-100%" y="-100%" width="300%" height="300%">
      <feGaussianBlur in="SourceGraphic" stdDeviation="30"/>
    </filter>
  

    <linearGradient id="water-4yf" x1="0%" y1="0%" x2="0%" y2="100%">
      <stop offset="0%" stop-color="#e4572e" stop-opacity="0.4"/>
      <stop offset="100%" stop-color="#0c1445" stop-opacity="0.9"/>
    </linearGradient>
  
    <filter id="filter-bw18nbfxjp-blur" x="-20%" y="-20%" width="140%" height="140%">
      <feGaussianBlur in="SourceGraphic" stdDeviation="12"/>
    </filter>
    <filter id="filter-bw18nbfxjp-shadow" x="-50%" y="-50%" width="200%" height="200%">
      <feDropShadow dx="0" dy="4" stdDeviation="6" flood-color="rgba(0,0,0,0.2)"/>
    </filter>
  </defs>

  <!-- Pattern Background -->
  <g>
    <rect width="1200" height="630" fill="url(#sky-32n)"/>
<circle cx="460.3273753076792" cy="307.44110504630953" r="349.8867404763587" fill="url(#sun-glow-61j)" filter="url(#filter-bw18nbfxjp-sun-glow)"/>
<circle cx="460.3273753076792" cy="307.44110504630953" r="139.95469619054347" fill="#ffc914" opacity="0.95"/>
<rect x="248.82479113293812" y="477.395801236853" width="385.2031041169539" height="3.19734741281718" rx="2" fill="#ffc914" opacity="0.30"/>
<rect x="361.4324347348884" y="522.7294717240147" width="127.55820900201797" height="2.8201838517561555" rx="2" fill="#ffc914" opacity="0.25"/>
<rect x="344.32059585815296" y="532.6715345866978" width="158.76422624569386" height="4.720986890606582" rx="2" fill="#ffc914" opacity="0.20"/>
<rect x="301.5234167338349" y="604.8769046133384" width="282.06992687191814" height="3.7364143822342157" rx="2" fill="#ffc914" opacity="0.15"/>
<rect x="249.60686394479126" y="583.8007431477308" width="326.4201074372977" height="3.322200213558972" rx="2" fill="#ffc914" opacity="0.10"/>
<rect x="399.5768968714401" y="682.045854118187" width="187.97577060759068" height="2.441801489330828" rx="2" fill="#ffc914" opacity="0.05"/>
<rect x="0" y="409.5" width="1200" height="220.5" fill="url(#water-4yf)"/>

      <path d="M 134.25086738425307 630
               Q 146.64262974495068 489.041133930441
                 155.09548202622682 348.082267860882
               L 163.86459340923466 348.082267860882
               Q 155.41174112795852 489.041133930441
                 151.78909015026875 630
               Z" fill="#2e282a"/>
    

        <path d="M 155.09548202622682 348.082267860882
                 Q 202.09941002913692 349.2628789996975 249.10333803204702 414.0459680104998"
              stroke="#2e282a" stroke-width="5.269711518427357" fill="none" stroke-linecap="round"/>
      

          <path d="M 170.13673898715805 358.63645988482085 Q 183.03158699544892 363.63645988482085 186.77478899045286 378.4889178613305"
                stroke="#2e282a" stroke-width="2" fill="none"/>
        

          <path d="M 185.1779959480893 369.19065190875966 Q 202.69123431489896 374.19065190875966 207.70294985096226 392.60221896899003"
                stroke="#2e282a" stroke-width="2" fill="none"/>
        

          <path d="M 200.21925290902053 379.74484393269853 Q 213.13955176884681 384.74484393269853 215.90812619451756 400.01124234621886"
                stroke="#2e282a" stroke-width="2" fill="none"/>
        

          <path d="M 215.26050986995176 390.2990359566374 Q 230.67831584932935 395.2990359566374 226.72047012024638 414.6125285067856"
                stroke="#2e282a" stroke-width="2" fill="none"/>
        

        <path d="M 155.09548202622682 348.082267860882
                 Q 162.04084817770388 375.7318923828269 168.9862143291809 450.0276904512778"
              stroke="#2e282a" stroke-width="5.299139185342938" fill="none" stroke-linecap="round"/>
      

          <path d="M 156.48455525652224 358.27681011992155 Q 171.58495349014828 363.27681011992155 127.79223350351067 372.989526419415"
                stroke="#2e282a" stroke-width="2" fill="none"/>
        

          <path d="M 157.87362848681764 368.47135237896117 Q 174.75602177361392 373.47135237896117 139.80002303694368 392.7314856041676"
                stroke="#2e282a" stroke-width="2" fill="none"/>
        

          <path d="M 159.26270171711303 378.66589463800074 Q 174.35646842469077 383.66589463800074 131.32325823958294 394.381545778882"
                stroke="#2e282a" stroke-width="2" fill="none"/>
        

          <path d="M 160.65177494740846 388.8604368970403 Q 180.40008670382002 393.8604368970403 124.64016570557281 406.9713441941161"
                stroke="#2e282a" stroke-width="2" fill="none"/>
        

          <path d="M 162.04084817770388 399.05497915607987 Q 170.13860682708662 404.05497915607987 148.36859308125622 413.39560759998847"
                stroke="#2e282a" stroke-width="2" fill="none"/>
        

          <path d="M 163.42992140799927 409.2495214151195 Q 174.9239572248671 414.2495214151195 147.84688759798894 427.6996766609395"
                stroke="#2e282a" stroke-width="2" fill="none"/>
        

          <path d="M 164.81899463829467 419.44406367415905 Q 181.66782905780127 424.44406367415905 137.34985176279042 439.20340631171587"
                stroke="#2e282a" stroke-width="2" fill="none"/>
        

        <path d="M 155.09548202622682 348.082267860882
                 Q 103.51431846531659 361.0115818565634 51.93315490440638 407.688745320018"
              stroke="#2e282a" stroke-width="4.396863198839128" fill="none" stroke-linecap="round"/>
      

          <path d="M 144.77924931404476 354.0429156067956 Q 162.89697570918423 359.0429156067956 110.20760031246854 358.6159200238706"
                stroke="#2e282a" stroke-width="2" fill="none"/>
        

          <path d="M 134.46301660186273 360.0035633527092 Q 146.26821871998382 365.0035633527092 111.43617226032137 367.39513337141835"
                stroke="#2e282a" stroke-width="2" fill="none"/>
        

          <path d="M 124.14678388968069 365.9642110986228 Q 136.97471645247617 370.9642110986228 100.73501330535984 370.7174879915387"
                stroke="#2e282a" stroke-width="2" fill="none"/>
        

          <path d="M 113.83055117749865 371.9248588445364 Q 130.25299524318217 376.9248588445364 81.12360341120285 380.4213426179184"
                stroke="#2e282a" stroke-width="2" fill="none"/>
        

          <path d="M 103.51431846531659 377.88550659044995 Q 117.66218842735134 382.88550659044995 77.16841009049371 382.72454714098666"
                stroke="#2e282a" stroke-width="2" fill="none"/>
        

          <path d="M 93.19808575313456 383.84615433636355 Q 109.1081766218451 388.84615433636355 63.1671989567502 388.5861684992806"
                stroke="#2e282a" stroke-width="2" fill="none"/>
        

          <path d="M 82.8818530409525 389.80680208227716 Q 92.60838000342929 394.80680208227716 64.20387488025509 397.0886023639129"
                stroke="#2e282a" stroke-width="2" fill="none"/>
        

        <path d="M 155.09548202622682 348.082267860882
                 Q 111.04168500415503 338.9695442683552 66.98788798208325 376.91438228565147"
              stroke="#2e282a" stroke-width="4.9406325914897025" fill="none" stroke-linecap="round"/>
      

          <path d="M 143.347802820341 351.9265497841846 Q 152.0799504096669 356.9265497841846 139.92165741486568 353.3640861529097"
                stroke="#2e282a" stroke-width="2" fill="none"/>
        

          <path d="M 131.60012361445519 355.77083170748716 Q 146.2690906322427 360.77083170748716 121.29093160477018 352.0373422239"
                stroke="#2e282a" stroke-width="2" fill="none"/>
        

          <path d="M 119.8524444085694 359.6151136307898 Q 127.99138875863599 364.6151136307898 113.48958475802831 362.1237239466017"
                stroke="#2e282a" stroke-width="2" fill="none"/>
        

          <path d="M 108.10476520268358 363.4593955540924 Q 118.35345972091537 368.4593955540924 102.45108994108976 363.60826727672514"
                stroke="#2e282a" stroke-width="2" fill="none"/>
        

          <path d="M 96.35708599679776 367.30367747739496 Q 109.50169573226151 372.30367747739496 88.17351190129467 364.81215860043284"
                stroke="#2e282a" stroke-width="2" fill="none"/>
        

        <path d="M 155.09548202622682 348.082267860882
                 Q 144.95608643112936 332.2664170080891 134.8166908360319 371.02351873257686"
              stroke="#2e282a" stroke-width="5.702912450535223" fill="none" stroke-linecap="round"/>
      

          <path d="M 152.3916432008675 351.1411013104413 Q 170.1073684441919 356.1411013104413 176.05804831855514 347.956935121473"
                stroke="#2e282a" stroke-width="2" fill="none"/>
        

          <path d="M 149.68780437550816 354.19993476000064 Q 168.77279199202388 359.19993476000064 178.53002220240282 351.69919998043474"
                stroke="#2e282a" stroke-width="2" fill="none"/>
        

          <path d="M 146.98396555014887 357.25876820955995 Q 159.71510580433068 362.25876820955995 169.7194012530599 361.52667234318193"
                stroke="#2e282a" stroke-width="2" fill="none"/>
        

          <path d="M 144.28012672478954 360.31760165911925 Q 155.9057734826828 365.31760165911925 165.36108439883793 365.413117137219"
                stroke="#2e282a" stroke-width="2" fill="none"/>
        

          <path d="M 141.5762878994302 363.37643510867855 Q 154.85913564617124 368.37643510867855 163.43645354464576 365.8287643584379"
                stroke="#2e282a" stroke-width="2" fill="none"/>
        

        <path d="M 155.09548202622682 348.082267860882
                 Q 183.12736034636023 328.82141274336027 211.15923866649368 362.89520472890575"
              stroke="#2e282a" stroke-width="3.4786472115665674" fill="none" stroke-linecap="round"/>
      

          <path d="M 162.5706495782624 350.0573261099518 Q 182.3306711124287 355.0573261099518 201.77582696180505 362.54669703690394"
                stroke="#2e282a" stroke-width="2" fill="none"/>
        

          <path d="M 170.045817130298 352.03238435902165 Q 183.24196130065863 357.03238435902165 195.84236936327747 364.8203395573226"
                stroke="#2e282a" stroke-width="2" fill="none"/>
        

          <path d="M 177.52098468233356 354.0074426080915 Q 194.25217544411765 359.0074426080915 208.81305134195404 358.080016071248"
                stroke="#2e282a" stroke-width="2" fill="none"/>
        

          <path d="M 184.99615223436913 355.9825008571613 Q 194.91011758566665 360.9825008571613 203.46687479050948 369.58733248294493"
                stroke="#2e282a" stroke-width="2" fill="none"/>
        

          <path d="M 192.47131978640473 357.95755910623114 Q 206.22153919436178 362.95755910623114 217.98452613385365 362.82554105919723"
                stroke="#2e282a" stroke-width="2" fill="none"/>
        

      <path d="M 1018.0078584281728 630
               Q 1025.4601604556665 455.075958709931
                 1018.3252817206085 280.151917419862
               L 1028.83538892027 280.151917419862
               Q 1035.970267655328 455.075958709931
                 1039.0280728274956 630
               Z" fill="#2e282a"/>
    

        <path d="M 1018.3252817206085 280.151917419862
                 Q 1077.4742636432693 292.48602716258654 1136.6232455659301 335.5777391384857"
              stroke="#2e282a" stroke-width="3.4185656500048935" fill="none" stroke-linecap="round"/>
      

          <path d="M 1031.8450490172168 286.48629704484756 Q 1047.4772255578923 291.48629704484756 1026.1503074630075 311.85696466393745"
                stroke="#2e282a" stroke-width="2" fill="none"/>
        

          <path d="M 1045.3648163138248 292.8206766698331 Q 1054.369761964056 297.8206766698331 1047.0677970381728 311.7852742808105"
                stroke="#2e282a" stroke-width="2" fill="none"/>
        

          <path d="M 1058.884583610433 299.1550562948187 Q 1077.0776254306286 304.1550562948187 1055.6851769207478 327.27763116374615"
                stroke="#2e282a" stroke-width="2" fill="none"/>
        

          <path d="M 1072.4043509070411 305.48943591980424 Q 1084.5556897906004 310.48943591980424 1073.8272855979355 327.61992852643243"
                stroke="#2e282a" stroke-width="2" fill="none"/>
        

          <path d="M 1085.9241182036494 311.82381554478985 Q 1103.5527971788106 316.82381554478985 1092.4919302439503 339.1439276593262"
                stroke="#2e282a" stroke-width="2" fill="none"/>
        

          <path d="M 1099.4438855002577 318.1581951697754 Q 1108.6130691501953 323.1581951697754 1100.327621294024 337.3167257051827"
                stroke="#2e282a" stroke-width="2" fill="none"/>
        

        <path d="M 1018.3252817206085 280.151917419862
                 Q 1061.0766213587624 300.0666565128548 1103.8279609969163 344.9679105121561"
              stroke="#2e282a" stroke-width="4.555066494969651" fill="none" stroke-linecap="round"/>
      

          <path d="M 1029.7256389574495 288.7940498321679 Q 1042.1343029959708 293.7940498321679 1021.0986654418905 310.42885860633135"
                stroke="#2e282a" stroke-width="2" fill="none"/>
        

          <path d="M 1041.1259961942906 297.43618224447374 Q 1060.6623401987363 302.43618224447374 1021.6687437567888 324.3779226791479"
                stroke="#2e282a" stroke-width="2" fill="none"/>
        

          <path d="M 1052.5263534311316 306.07831465677964 Q 1069.7504767356086 311.07831465677964 1048.7423129819722 333.19820610145905"
                stroke="#2e282a" stroke-width="2" fill="none"/>
        

          <path d="M 1063.9267106679727 314.72044706908554 Q 1071.925398155534 319.72044706908554 1058.2311963703394 332.19502269215826"
                stroke="#2e282a" stroke-width="2" fill="none"/>
        

          <path d="M 1075.3270679048137 323.36257948139144 Q 1089.4092370784483 328.36257948139144 1062.984698871621 346.02054022935505"
                stroke="#2e282a" stroke-width="2" fill="none"/>
        

        <path d="M 1018.3252817206085 280.151917419862
                 Q 996.3505460286689 302.78929054438356 974.3758103367294 354.62952963210506"
              stroke="#2e282a" stroke-width="3.2817711657844484" fill="none" stroke-linecap="round"/>
      

          <path d="M 1012.4653522027579 290.08226571482777 Q 1021.9385939187991 295.08226571482777 993.9758067454849 298.01429912747625"
                stroke="#2e282a" stroke-width="2" fill="none"/>
        

          <path d="M 1006.6054226849074 300.0126140097935 Q 1016.038281910688 305.0126140097935 987.797843643368 309.2726303461509"
                stroke="#2e282a" stroke-width="2" fill="none"/>
        

          <path d="M 1000.7454931670568 309.94296230475925 Q 1015.8709552964197 314.94296230475925 972.5200960952141 325.3845930034554"
                stroke="#2e282a" stroke-width="2" fill="none"/>
        

          <path d="M 994.8855636492063 319.87331059972496 Q 1006.2379986381549 324.87331059972496 975.3542881157761 335.66210142230693"
                stroke="#2e282a" stroke-width="2" fill="none"/>
        

          <path d="M 989.0256341313558 329.8036588946907 Q 1000.4048706951631 334.8036588946907 966.6072300292839 337.8438593758262"
                stroke="#2e282a" stroke-width="2" fill="none"/>
        

        <path d="M 1018.3252817206085 280.151917419862
                 Q 977.7002866297187 289.57076363424727 937.0752915388289 329.6778772015258"
              stroke="#2e282a" stroke-width="5.953485799720511" fill="none" stroke-linecap="round"/>
      

          <path d="M 1010.2002827024305 285.10451339802836 Q 1025.818724426649 290.10451339802836 979.6457794222498 291.85777592509277"
                stroke="#2e282a" stroke-width="2" fill="none"/>
        

          <path d="M 1002.0752836842526 290.0571093761948 Q 1014.7022092653874 295.0571093761948 981.4811271787704 292.7489338796399"
                stroke="#2e282a" stroke-width="2" fill="none"/>
        

          <path d="M 993.9502846660746 295.00970535436113 Q 1006.5152575665109 300.00970535436113 969.7310417863282 301.6577488254573"
                stroke="#2e282a" stroke-width="2" fill="none"/>
        

          <path d="M 985.8252856478966 299.96230133252755 Q 998.5102189699128 304.96230133252755 970.2494799553234 299.94950438857643"
                stroke="#2e282a" stroke-width="2" fill="none"/>
        

          <path d="M 977.7002866297187 304.9148973106939 Q 994.0710871909903 309.9148973106939 945.2354676089595 312.790752187528"
                stroke="#2e282a" stroke-width="2" fill="none"/>
        

          <path d="M 969.5752876115407 309.86749328886026 Q 983.4690058711826 314.86749328886026 943.617895669698 314.90877793378127"
                stroke="#2e282a" stroke-width="2" fill="none"/>
        

          <path d="M 961.4502885933628 314.8200892670267 Q 969.1794981733558 319.8200892670267 947.9521773296594 321.05300434501765"
                stroke="#2e282a" stroke-width="2" fill="none"/>
        

        <path d="M 1018.3252817206085 280.151917419862
                 Q 959.602844614302 268.79955393545526 900.8804075079954 301.39315132593094"
              stroke="#2e282a" stroke-width="5.720553887542337" fill="none" stroke-linecap="round"/>
      

          <path d="M 1002.6659651589267 282.9840819406712 Q 1018.6081305326348 287.9840819406712 994.2704881673172 277.6044971503234"
                stroke="#2e282a" stroke-width="2" fill="none"/>
        

          <path d="M 987.006648597245 285.8162464614804 Q 1001.2736324435639 290.8162464614804 984.0384246683996 281.6266643764371"
                stroke="#2e282a" stroke-width="2" fill="none"/>
        

          <path d="M 971.3473320355632 288.6484109822896 Q 987.4998883593588 293.6484109822896 975.1041570581382 282.60544859279224"
                stroke="#2e282a" stroke-width="2" fill="none"/>
        

          <path d="M 955.6880154738815 291.48057550309875 Q 967.004039035985 296.48057550309875 957.3686525567689 290.19579575305545"
                stroke="#2e282a" stroke-width="2" fill="none"/>
        

          <path d="M 940.0286989121997 294.31274002390796 Q 948.0797693015376 299.31274002390796 935.3711903138519 296.6058186003983"
                stroke="#2e282a" stroke-width="2" fill="none"/>
        

        <path d="M 1018.3252817206085 280.151917419862
                 Q 992.7947119757958 267.30858843805805 967.2641422309833 300.9412768359935"
              stroke="#2e282a" stroke-width="5.188498235307634" fill="none" stroke-linecap="round"/>
      

          <path d="M 1010.1554994022684 283.47821492644306 Q 1026.1969775927232 288.47821492644306 1018.0458636858781 277.9294348970383"
                stroke="#2e282a" stroke-width="2" fill="none"/>
        

          <path d="M 1001.9857170839284 286.80451243302406 Q 1020.4325025970072 291.80451243302406 1004.8682716131368 278.4141177767893"
                stroke="#2e282a" stroke-width="2" fill="none"/>
        

          <path d="M 993.8159347655884 290.1308099396051 Q 1002.0565755244744 295.1308099396051 1002.7470682736305 293.2049978079923"
                stroke="#2e282a" stroke-width="2" fill="none"/>
        

          <path d="M 985.6461524472484 293.45710744618617 Q 1001.0378295140486 298.45710744618617 985.4118455382005 288.06587624147886"
                stroke="#2e282a" stroke-width="2" fill="none"/>
        

        <path d="M 1018.3252817206085 280.151917419862
                 Q 1023.2399017668827 262.94621730298724 1028.1545218131569 299.8025578423076"
              stroke="#2e282a" stroke-width="4.0275856289081275" fill="none" stroke-linecap="round"/>
      

          <path d="M 1019.3082057298633 282.11698146210654 Q 1038.5204658667099 287.11698146210654 1054.114650159944 283.9782594432766"
                stroke="#2e282a" stroke-width="2" fill="none"/>
        

          <path d="M 1020.2911297391181 284.08204550435113 Q 1029.1284412782186 289.08204550435113 1037.6178945660754 292.33737350166746"
                stroke="#2e282a" stroke-width="2" fill="none"/>
        

          <path d="M 1021.274053748373 286.04710954659566 Q 1033.5686329019043 291.04710954659566 1044.3095507988098 291.7461625029466"
                stroke="#2e282a" stroke-width="2" fill="none"/>
        

          <path d="M 1022.2569777576279 288.01217358884026 Q 1035.6104991536845 293.01217358884026 1042.8494023828732 289.5089656242929"
                stroke="#2e282a" stroke-width="2" fill="none"/>
        

          <path d="M 1023.2399017668827 289.9772376310848 Q 1038.476884078936 294.9772376310848 1045.7923534358654 289.72968373235466"
                stroke="#2e282a" stroke-width="2" fill="none"/>
        

          <path d="M 1024.2228257761376 291.9423016733293 Q 1033.2443825773003 296.9423016733293 1042.160892355092 300.9702271037339"
                stroke="#2e282a" stroke-width="2" fill="none"/>
        

          <path d="M 1025.2057497853923 293.9073657155739 Q 1038.129373687999 298.9073657155739 1050.1038005976445 300.437232978393"
                stroke="#2e282a" stroke-width="2" fill="none"/>
        

        <path d="M 1018.3252817206085 280.151917419862
                 Q 1068.8838494657036 271.1707385654809 1119.4424172107986 314.57670971782875"
              stroke="#2e282a" stroke-width="3.4105582726188004" fill="none" stroke-linecap="round"/>
      

          <path d="M 1029.8815257766303 284.0861793967725 Q 1043.0601124704601 289.0861793967725 1053.1326459887066 300.292748454447"
                stroke="#2e282a" stroke-width="2" fill="none"/>
        

          <path d="M 1041.4377698326518 288.02044137368296 Q 1054.4463835675072 293.02044137368296 1062.4640631830812 305.68188890584617"
                stroke="#2e282a" stroke-width="2" fill="none"/>
        

          <path d="M 1052.9940138886736 291.95470335059343 Q 1070.5186732184661 296.95470335059343 1085.7763655053473 308.1549485268327"
                stroke="#2e282a" stroke-width="2" fill="none"/>
        

          <path d="M 1064.5502579446954 295.88896532750397 Q 1077.0550350491728 300.88896532750397 1087.1198030443054 311.2762985204511"
                stroke="#2e282a" stroke-width="2" fill="none"/>
        

          <path d="M 1076.106502000717 299.82322730441444 Q 1092.5999365982223 304.82322730441444 1100.9304608276134 320.68491004063543"
                stroke="#2e282a" stroke-width="2" fill="none"/>
        

          <path d="M 1087.6627460567388 303.7574892813249 Q 1100.6386530262525 308.7574892813249 1111.0926022780127 319.3373298743959"
                stroke="#2e282a" stroke-width="2" fill="none"/>
        

      <path d="M 1121.5475659619551 630
               Q 1137.0479370919056 503.6564063699916
                 1151.189092467539 377.3128127399832
               L 1160.6289684365038 377.3128127399832
               Q 1146.4878130608704 503.6564063699916
                 1140.4273178998847 630
               Z" fill="#2e282a"/>
    

        <path d="M 1151.189092467539 377.3128127399832
                 Q 1192.1799094725088 386.1922671260955 1233.1707264774789 442.62748397235157"
              stroke="#2e282a" stroke-width="4.795724515803158" fill="none" stroke-linecap="round"/>
      

          <path d="M 1160.558422068675 384.777346595111 Q 1176.2802290706486 389.777346595111 1171.167320545272 409.57728016542194"
                stroke="#2e282a" stroke-width="2" fill="none"/>
        

          <path d="M 1169.927751669811 392.24188045023885 Q 1181.9600139336305 397.24188045023885 1179.4325283426897 413.2958453626588"
                stroke="#2e282a" stroke-width="2" fill="none"/>
        

          <path d="M 1179.297081270947 399.70641430536665 Q 1189.6396218093512 404.70641430536665 1173.0114122041712 419.5598774470381"
                stroke="#2e282a" stroke-width="2" fill="none"/>
        

          <path d="M 1188.666410872083 407.17094816049445 Q 1199.9284923034243 412.17094816049445 1187.4532062105686 428.4166812081212"
                stroke="#2e282a" stroke-width="2" fill="none"/>
        

          <path d="M 1198.035740473219 414.63548201562224 Q 1216.2960739379328 419.63548201562224 1199.941136308069 442.8709459505124"
                stroke="#2e282a" stroke-width="2" fill="none"/>
        

          <path d="M 1207.4050700743549 422.1000158707501 Q 1226.326221161043 427.1000158707501 1208.73617500222 451.00945791336545"
                stroke="#2e282a" stroke-width="2" fill="none"/>
        

        <path d="M 1151.189092467539 377.3128127399832
                 Q 1180.768815607678 392.0693293685968 1210.3485387478174 435.09263812661254"
              stroke="#2e282a" stroke-width="5.323136345716193" fill="none" stroke-linecap="round"/>
      

          <path d="M 1159.0770186382429 385.01678945820044 Q 1168.443024834603 390.01678945820044 1152.8840099222045 403.85611821275097"
                stroke="#2e282a" stroke-width="2" fill="none"/>
        

          <path d="M 1166.9649448089465 392.72076617641767 Q 1186.6466971382895 397.72076617641767 1147.0438665499962 419.69601389195316"
                stroke="#2e282a" stroke-width="2" fill="none"/>
        

          <path d="M 1174.8528709796503 400.42474289463496 Q 1193.6453462058691 405.42474289463496 1152.233286745702 425.4329315727825"
                stroke="#2e282a" stroke-width="2" fill="none"/>
        

          <path d="M 1182.7407971503542 408.1287196128522 Q 1198.084594358979 413.1287196128522 1174.6307590035228 432.92699427896247"
                stroke="#2e282a" stroke-width="2" fill="none"/>
        

          <path d="M 1190.628723321058 415.8326963310694 Q 1208.1952907784555 420.8326963310694 1177.8658097537723 442.19916514855703"
                stroke="#2e282a" stroke-width="2" fill="none"/>
        

        <path d="M 1151.189092467539 377.3128127399832
                 Q 1144.2731165252435 394.998878060989 1137.357140582948 436.5064829455128"
              stroke="#2e282a" stroke-width="3.3663007928989828" fill="none" stroke-linecap="round"/>
      

          <path d="M 1149.80589727908 383.23217976053616 Q 1161.4784813763304 388.23217976053616 1131.0750190495894 400.19908507748863"
                stroke="#2e282a" stroke-width="2" fill="none"/>
        

          <path d="M 1148.4227020906208 389.1515467810891 Q 1158.0207069801788 394.1515467810891 1131.430619123977 403.6168549421969"
                stroke="#2e282a" stroke-width="2" fill="none"/>
        

          <path d="M 1147.0395069021617 395.07091380164206 Q 1160.6251929560096 400.07091380164206 1122.345541283865 410.73861889844375"
                stroke="#2e282a" stroke-width="2" fill="none"/>
        

          <path d="M 1145.6563117137025 400.990280822195 Q 1157.521035871197 405.990280822195 1123.5431016563227 415.29413544020707"
                stroke="#2e282a" stroke-width="2" fill="none"/>
        

          <path d="M 1144.2731165252435 406.909647842748 Q 1159.6211889555952 411.909647842748 1116.992018161916 423.9451823178206"
                stroke="#2e282a" stroke-width="2" fill="none"/>
        

          <path d="M 1142.8899213367845 412.829014863301 Q 1157.6047704647067 417.829014863301 1114.8250450872597 427.25817563394673"
                stroke="#2e282a" stroke-width="2" fill="none"/>
        

          <path d="M 1141.5067261483252 418.74838188385394 Q 1155.144534563549 423.74838188385394 1116.223831519517 433.86537593969337"
                stroke="#2e282a" stroke-width="2" fill="none"/>
        

        <path d="M 1151.189092467539 377.3128127399832
                 Q 1106.4343133899383 384.09205184826203 1061.6795343123374 449.26158501597416"
              stroke="#2e282a" stroke-width="3.4274703534319997" fill="none" stroke-linecap="round"/>
      

          <path d="M 1140.9594286783731 385.53552957152505 Q 1148.7804163524315 390.53552957152505 1133.6374122318507 388.62431643727814"
                stroke="#2e282a" stroke-width="2" fill="none"/>
        

          <path d="M 1130.7297648892072 393.75824640306683 Q 1146.4132487064726 398.75824640306683 1116.082718142104 389.8896606769205"
                stroke="#2e282a" stroke-width="2" fill="none"/>
        

          <path d="M 1120.5001011000413 401.9809632346087 Q 1131.0661683957724 406.9809632346087 1101.9435924301386 406.92569127418227"
                stroke="#2e282a" stroke-width="2" fill="none"/>
        

          <path d="M 1110.2704373108754 410.20368006615047 Q 1125.8161349392794 415.20368006615047 1088.4963610743062 409.10678339344133"
                stroke="#2e282a" stroke-width="2" fill="none"/>
        

          <path d="M 1100.0407735217095 418.4263968976923 Q 1112.9425012651564 423.4263968976923 1075.9390039611249 423.81871257927975"
                stroke="#2e282a" stroke-width="2" fill="none"/>
        

          <path d="M 1089.8111097325436 426.64911372923416 Q 1106.7315223047608 431.64911372923416 1061.805856599642 427.15033428898124"
                stroke="#2e282a" stroke-width="2" fill="none"/>
        

        <path d="M 1151.189092467539 377.3128127399832
                 Q 1102.3523864501462 371.5831381143249 1053.5156804327537 425.92575245050597"
              stroke="#2e282a" stroke-width="3.9240453871898353" fill="none" stroke-linecap="round"/>
      

          <path d="M 1138.165970862901 383.79453803471955 Q 1151.075132632686 388.79453803471955 1125.2996640682431 382.602532183894"
                stroke="#2e282a" stroke-width="2" fill="none"/>
        

          <path d="M 1125.142849258263 390.27626332945596 Q 1135.6470182479818 395.27626332945596 1118.1435166472968 390.3722287013441"
                stroke="#2e282a" stroke-width="2" fill="none"/>
        

          <path d="M 1112.119727653625 396.7579886241923 Q 1126.4295132723046 401.7579886241923 1110.6906575624303 392.4660536914695"
                stroke="#2e282a" stroke-width="2" fill="none"/>
        

          <path d="M 1099.0966060489868 403.23971391892866 Q 1115.411999878705 408.23971391892866 1100.8724368718429 396.9484990458458"
                stroke="#2e282a" stroke-width="2" fill="none"/>
        

          <path d="M 1086.0734844443489 409.72143921366506 Q 1097.569773124704 414.72143921366506 1072.8485826221604 410.3171770751223"
                stroke="#2e282a" stroke-width="2" fill="none"/>
        

        <path d="M 1151.189092467539 377.3128127399832
                 Q 1129.7674351279006 361.92407481589726 1108.3457777882625 412.49739202531146"
              stroke="#2e282a" stroke-width="4.87298514903523" fill="none" stroke-linecap="round"/>
      

          <path d="M 1146.2927136470503 381.3339075154493 Q 1163.9597035804004 386.3339075154493 1162.7811411463238 375.70843238810056"
                stroke="#2e282a" stroke-width="2" fill="none"/>
        

          <path d="M 1141.3963348265615 385.35500229091537 Q 1150.1855343695142 390.35500229091537 1148.6664186839387 387.3527214421501"
                stroke="#2e282a" stroke-width="2" fill="none"/>
        

          <path d="M 1136.4999560060728 389.3760970663815 Q 1148.7162443306347 394.3760970663815 1141.50534435366 387.4189141915866"
                stroke="#2e282a" stroke-width="2" fill="none"/>
        

          <path d="M 1131.603577185584 393.39719184184753 Q 1139.2099958393246 398.39719184184753 1142.5051616615317 398.09186727925794"
                stroke="#2e282a" stroke-width="2" fill="none"/>
        

          <path d="M 1126.7071983650953 397.41828661731364 Q 1137.6431400429851 402.41828661731364 1137.1776847106105 397.8168779027394"
                stroke="#2e282a" stroke-width="2" fill="none"/>
        

          <path d="M 1121.8108195446066 401.4393813927797 Q 1133.6819816673042 406.4393813927797 1138.2080259842871 402.85408026894055"
                stroke="#2e282a" stroke-width="2" fill="none"/>
        

        <path d="M 1151.189092467539 377.3128127399832
                 Q 1162.8538304125423 356.21074241695345 1174.5185683575453 387.6657750660187"
              stroke="#2e282a" stroke-width="5.7063170343171805" fill="none" stroke-linecap="round"/>
      

          <path d="M 1153.5220400565397 378.3481089725868 Q 1170.9816385766119 383.3481089725868 1187.024564091435 383.42542664433097"
                stroke="#2e282a" stroke-width="2" fill="none"/>
        

          <path d="M 1155.8549876455402 379.3834052051903 Q 1166.4222101217786 384.3834052051903 1174.909787456305 384.81231759880615"
                stroke="#2e282a" stroke-width="2" fill="none"/>
        

          <path d="M 1158.1879352345409 380.41870143779386 Q 1172.8472086424285 385.41870143779386 1187.2025625898582 388.31343501635945"
                stroke="#2e282a" stroke-width="2" fill="none"/>
        

          <path d="M 1160.5208828235416 381.45399767039737 Q 1178.1209257803064 386.45399767039737 1189.1401012597544 381.2072129988504"
                stroke="#2e282a" stroke-width="2" fill="none"/>
        

          <path d="M 1162.8538304125423 382.48929390300094 Q 1182.6391824771881 387.48929390300094 1198.1327569190278 383.52773753931706"
                stroke="#2e282a" stroke-width="2" fill="none"/>
        

          <path d="M 1165.1867780015427 383.5245901356045 Q 1174.5722123697024 388.5245901356045 1179.5006299754812 387.4529520785332"
                stroke="#2e282a" stroke-width="2" fill="none"/>
        

          <path d="M 1167.5197255905434 384.559886368208 Q 1187.0546156811245 389.559886368208 1200.7604537027933 384.2946328646187"
                stroke="#2e282a" stroke-width="2" fill="none"/>
        

        <path d="M 1151.189092467539 377.3128127399832
                 Q 1188.241939584747 368.6982032386866 1225.294786701955 426.0148593518372"
              stroke="#2e282a" stroke-width="4.46289086365141" fill="none" stroke-linecap="round"/>
      

          <path d="M 1163.0460035450456 385.10514019787985 Q 1171.302679623936 390.10514019787985 1175.3525945910167 400.61056062492514"
                stroke="#2e282a" stroke-width="2" fill="none"/>
        

          <path d="M 1174.902914622552 392.8974676557765 Q 1186.7187271852608 397.8974676557765 1191.61661722543 411.250698338734"
                stroke="#2e282a" stroke-width="2" fill="none"/>
        

          <path d="M 1186.7598257000586 400.6897951136731 Q 1196.0918374641128 405.6897951136731 1204.370548908447 413.7804343006098"
                stroke="#2e282a" stroke-width="2" fill="none"/>
        

          <path d="M 1198.6167367775652 408.48212257156973 Q 1211.7212864611956 413.48212257156973 1223.9775690250806 421.78912564672487"
                stroke="#2e282a" stroke-width="2" fill="none"/>
        
  </g>

  <!-- Text Box with Frosted Glass (shadow only on box, not text) -->
  <g filter="url(#filter-bw18nbfxjp-shadow)">
    <g filter="url(#filter-bw18nbfxjp-blur)">
      <rect x="60" y="183.8" width="1080" height="262.4" rx="20" ry="20" fill="#ffffff"/>
    </g>
    <rect x="60" y="183.8" width="1080" height="262.4" rx="20" ry="20"
          fill="rgba(255, 255, 255, 0.8)"/>
  </g>

  <!-- Text (separate from shadow group) -->
  <text
        font-family="system-ui, -apple-system, BlinkMacSystemFont, 'Segoe UI', sans-serif"
        font-size="64"
        font-weight="700"
        fill="#2e282a">
    <tspan x="600" y="289.4" text-anchor="middle">Best Portable Power Stations</tspan>
      <tspan x="600" y="372.6" text-anchor="middle">for Cuba 2025: Blackout Guide</tspan>
  </text>

  <!-- Watermark -->
  <text x="1160" y="605"
        font-family="system-ui, -apple-system, sans-serif"
        font-size="18"
        font-weight="600"
        fill="rgba(0,0,0,0.3)"
        text-anchor="end">
    veguitas.com
  </text>
</svg>