<svg xmlns="http://www.w3.org/2000/svg" version="1.1" xmlns:xlink="http://www.w3.org/1999/xlink" width="1200" height="630" viewBox="0 0 1200 630"><rect width="1200" height="630" fill="#002200"></rect><path d="M 946.0409361251748 39.70554175349005 L 939.9137020648643 49.641209312427684 L 932.3307112995452 63.05787344595773 L 923.4577956954442 79.14290354219898 L 913.4607871187883 97.08366898927017 L 902.505517435804 116.06753917529007 L 890.7578185127184 135.28188348837742 L 878.383522215758 153.91407131665102 L 865.5484604111499 171.1514720482296 L 852.4184649651207 186.18145507123194 L 839.1593677438975 198.19138977377688 L 825.3993392731315 207.76897915354004 L 810.7598338354312 216.08345291784786 L 795.3966089324583 223.1944705192949 L 779.4654220658748 229.16169141047584 L 763.1220307373424 234.04477504398525 L 746.5221924485228 237.90338087241778 L 729.8216647010781 240.79716834836805 L 713.1762049966699 242.78579692443063 L 696.7415708369601 243.92892605320017 L 680.6735197236106 244.28621518727135 L 664.4955271039446 243.89460330680615 L 647.781330817344 242.71274300550016 L 630.7620819535595 240.68286415624837 L 613.6689316023406 237.7471966319457 L 596.7330308534381 233.8479703054872 L 580.1855307966015 228.92741504976775 L 564.2575825215814 222.92776073768235 L 549.1803371181277 215.791237242126 L 535.1849456759908 207.46007443599353 L 522.5025592849207 197.87650219218003 L 510.6007065669578 186.62499895766328 L 498.9438578486799 173.53462918665105 L 487.75857677664334 158.91450176288313 L 477.2714269974045 143.07372557009924 L 467.70897215751967 126.32140949203931 L 459.29777590354513 108.96666241244301 L 452.26440188203725 91.31859321505013 L 446.8354137395524 73.68631078360046 L 443.23737512264677 56.37892400183386 L 441.6968496778766 39.70554175349008 L 442.2863552605067 22.949035948077746 L 444.81122467518105 5.39044472996413 L 449.0972439925252 -12.663873664823083 L 454.9701992831651 -30.907561000256226 L 462.2558766177262 -49.0342590403076 L 470.7800620668344 -66.73760954894954 L 480.3685417011153 -83.71125429015437 L 490.8471015911946 -99.6488350278944 L 502.04152780769806 -114.24399352614196 L 513.7776064212512 -127.19037154886934 L 526.4939305742754 -138.85125231078294 L 540.6148294207999 -149.746164657415 L 555.9446930488633 -159.8031187989766 L 572.2879115465038 -168.95012494567897 L 589.4488750017595 -177.11519330773316 L 607.2319735026689 -184.22633409535035 L 625.4415971372705 -190.21155751874167 L 643.8821359936026 -194.9988737881182 L 662.3579801597031 -198.51629311369115 L 680.6735197236106 -200.69182570567156 L 699.6994328009262 -201.74398504401276 L 720.1222841793883 -201.86882358476612 L 741.4702939552419 -200.9606600022899 L 763.2716822247313 -198.91381297094244 L 785.0546690841014 -195.6226011650821 L 806.3474746295971 -190.98134325906716 L 826.6783189574628 -184.8843579272559 L 845.5754221639436 -177.22596384400669 L 862.5670043452836 -167.90047968367782 L 877.1812855977282 -156.80222412062767 L 889.5468677493865 -142.44819824048986 L 900.2244494938436 -124.12410920631895 L 909.390396225557 -102.87733480860457 L 917.2210733389846 -79.75525283783625 L 923.892846228584 -55.80524108450356 L 929.5820802888127 -32.074677339096105 L 934.4651409141284 -9.610939392103425 L 938.718393498989 10.538594965984885 L 942.518203437852 27.326547944679263 L 946.0409361251748 39.70554175349005 Z" fill="#008800" opacity="0.7669744748945619"></path><path d="M 1303.269919950685 517.0670795073167 L 1302.6038947404857 528.7438258661455 L 1302.6607013296143 544.7519909605361 L 1303.0307867674971 564.0198639063626 L 1303.3045981035602 585.4757338194989 L 1303.0725823872299 608.047889815819 L 1301.9251866679322 630.6646210111969 L 1299.4528579950934 652.2542165215067 L 1295.24604341814 671.7449654626222 L 1288.895189986498 688.0651569504174 L 1279.9907447495932 700.1430801007662 L 1268.123495497816 708.1997589727154 L 1253.4908236930896 713.4693885900138 L 1236.5930668921385 716.4000145155894 L 1217.930562651689 717.4396823123702 L 1198.003648528466 717.0364375432841 L 1177.3126620791952 715.6383257712589 L 1156.3579408606024 713.6933925592226 L 1135.639822429412 711.6496834701031 L 1115.6586443423507 709.9552440668283 L 1096.9147441561438 709.0581199123264 L 1078.3175791778674 709.1941668069038 L 1058.742423778553 710.0297759076947 L 1038.6383411108577 711.1587958128679 L 1018.4543943274382 712.1750751205923 L 998.639646580951 712.6724624290368 L 979.6431610240531 712.2448063363703 L 961.9140008094014 710.4859554407614 L 945.9012290896525 706.9897583403794 L 932.0539090174633 701.3500636333928 L 920.8211037454902 693.1607199179704 L 912.3124703349623 681.9929766831468 L 906.1232342541773 668.0298332469513 L 901.9308112663955 651.7827629510447 L 899.4126171348773 633.7632391370881 L 898.2460676228836 614.4827351467426 L 898.1085784936746 594.4527243216692 L 898.6775655105109 574.1846800035288 L 899.6304444366532 554.1900755339826 L 900.6446310353616 534.9803842546917 L 901.397541069897 517.0670795073167 L 901.7667722436693 499.7653399153288 L 902.0188550818585 482.16429235967416 L 902.4146045803798 464.4363325682273 L 903.2148357351483 446.75385626886265 L 904.6803635420794 429.2892591894548 L 907.072002997088 412.2149370578784 L 910.6505690960896 395.70328560200784 L 915.6768768349992 379.9267005497176 L 922.4117412097321 365.0575776288823 L 931.1159772162033 351.26831256737637 L 942.1353656040786 337.887049832445 L 955.3915319792599 324.3617555955023 L 970.5090586220173 311.04455814067717 L 987.112527812621 298.28758575209804 L 1004.8265218313411 286.4429667138934 L 1023.2756229584478 275.86282931019207 L 1042.0844134742115 266.8993018251225 L 1060.8774756589016 259.90451254281334 L 1079.2793917927893 255.2305897473932 L 1096.9147441561438 253.2296617229906 L 1114.8076761870543 254.03801084107153 L 1133.9164785419562 257.36617945779847 L 1153.7669543286408 262.9276858343449 L 1173.8849066548987 270.4360482318844 L 1193.7961386285206 279.6047849115904 L 1213.0264533572972 290.1474141346364 L 1231.1016539490195 301.7774541621961 L 1247.5475435114786 314.2084232554428 L 1261.8899251524647 327.1538396755501 L 1273.654601979769 340.3272216836915 L 1282.7079465717645 355.1660237628119 L 1289.4674812120602 372.76592391036746 L 1294.2857335663018 392.3277756592983 L 1297.5152313001347 413.05243254254503 L 1299.508502079204 434.14074809304793 L 1300.6180735691548 454.7935758437473 L 1301.196473435633 474.2117693275835 L 1301.596229344284 491.5961820774969 L 1302.1698689607529 506.1476676264279 L 1303.269919950685 517.0670795073167 Z" fill="#004400" opacity="0.8188226421515423"></path><path d="M 1134.7248565843508 548.0641050746797 L 1130.7209157840623 556.0485459448101 L 1125.9179747505361 566.4624361063167 L 1120.350494702818 578.8312875975137 L 1114.0529368599537 592.6806124567153 L 1107.059762440989 607.5359227222358 L 1099.4054326649698 622.9227304323896 L 1091.1244087509413 638.3665476254912 L 1082.2511519179493 653.3928863398546 L 1072.82012338504 667.5272586137943 L 1062.8657843712592 680.2951764856247 L 1052.1236074398157 692.8961856271063 L 1040.410895343112 706.4887618902249 L 1027.8848545839835 720.536812583632 L 1014.7026916652646 734.5042450159791 L 1001.0216130897905 747.8549664959177 L 986.9988253603963 760.0528843320993 L 972.7915349799164 770.5619058331753 L 958.5569484511863 778.8459383077974 L 944.4522722770405 784.3688890646171 L 930.6347129603141 786.594665412286 L 916.9078586740891 785.2376007075139 L 902.9995627708414 780.694939235798 L 888.9534295224969 773.4549546989691 L 874.8130632009814 764.0059207988586 L 860.6220680782216 752.8361112372979 L 846.4240484261428 740.4337997161182 L 832.2626085166713 727.2872599371507 L 818.181352621733 713.8847656022265 L 804.2238850132542 700.7145904131769 L 790.4338099631608 688.2650080718331 L 775.698338036134 676.0374323088885 L 759.354033634259 663.2485128394956 L 742.1185317855673 649.9593773421749 L 724.7094675180896 636.2311534954468 L 707.8444758598573 622.1249689778324 L 692.2411918389017 607.7019514678518 L 678.617250483254 593.0232286440256 L 667.6902868209452 578.1499281848746 L 660.1779358800068 563.1431777689191 L 656.79783268847 548.0641050746797 L 657.8349424230066 532.418974944846 L 662.7033649675137 515.8700984031873 L 670.8144374108589 498.7126723998434 L 681.5794968419101 481.2418938849544 L 694.4098803495351 463.7529598086602 L 708.716925022602 446.54106712110087 L 723.9119679499786 429.9014127724163 L 739.4063462205328 414.12919371274637 L 754.6113969231324 399.51960689223125 L 768.9384571466453 386.3678492610109 L 783.1375937691478 373.97434195988603 L 798.2359758529673 361.64429989656395 L 814.0605937633485 349.68011067154407 L 830.4384378655363 338.3841618853258 L 847.1964985247758 328.0588411384085 L 864.1617661063116 319.0065360312917 L 881.1612309753884 311.5296341644749 L 898.0218834972512 305.9305231384573 L 914.570714037145 302.51159055373853 L 930.6347129603141 301.5752240108178 L 946.7853732853039 303.3960434654277 L 963.5196085325338 307.813028418383 L 980.5525398200597 314.4751057878069 L 997.599288265938 323.03120249182257 L 1014.3749749882245 333.1302454485532 L 1030.5947211049756 344.421161576122 L 1045.9736477342478 356.55287779265205 L 1060.226875994097 369.1743210162668 L 1073.0695270025794 381.9344181650891 L 1084.2167218777513 394.4820961572424 L 1093.6693138601297 408.07407304988857 L 1101.7232069238705 423.77260133006405 L 1108.5360982874856 440.93490956070343 L 1114.2656851694883 458.9182263047414 L 1119.069664788391 477.07978012511256 L 1123.1057343627065 494.7767995847517 L 1126.5315911109474 511.36651324659323 L 1129.504932251627 526.206149673572 L 1132.183455003257 538.6529374286226 L 1134.7248565843508 548.0641050746797 Z" fill="#004400" opacity="0.6265029869126411"></path><path d="M 975.0523630953138 214.21827486756206 L 970.3867139512918 221.29202794001264 L 964.5990912385325 230.44289222352802 L 957.8223072056275 241.28701254854295 L 950.1891741011672 253.44053374549227 L 941.8325041737431 266.5196006448108 L 932.885109671946 280.1403580769332 L 923.479802844367 293.9189508722944 L 913.7493959395969 307.4715238613291 L 903.8267012062269 320.4142218744722 L 893.8445308928478 332.36318974215845 L 883.6405333898399 344.4546769577636 L 872.986782137764 357.71800526752685 L 861.9177269604827 371.6089278811784 L 850.4678176818594 385.58319800844856 L 838.6715041257569 399.09656885906753 L 826.5632361160375 411.60479364276534 L 814.1774634765645 422.5636255692724 L 801.5486360312007 431.42881784831894 L 788.7112036038089 437.6561236896349 L 775.6996160182514 440.7012963029508 L 762.0383119573371 440.4305887672139 L 747.4273649460272 437.3341013161933 L 732.1646770714146 431.80335789185193 L 716.5481504205926 424.22988243615214 L 700.8756870806542 415.00519889105686 L 685.4451891386923 404.5208311985287 L 670.5545586818 393.1683033005304 L 656.5016977970704 381.33913913902455 L 643.5845085715966 369.424862655974 L 632.100893092472 357.81699779334144 L 621.5736314424046 345.9825470346754 L 611.4286659473955 333.2193758199122 L 601.8186420594762 319.6653025255956 L 592.896205230678 305.45814552826937 L 584.8140009130327 290.7357232044772 L 577.7246745585713 275.6358539307631 L 571.7808716193255 260.29635608367073 L 567.1352375473268 244.85504803974388 L 563.9404177946062 229.44974817552642 L 562.3490578131956 214.2182748675621 L 562.3299465476683 198.38293404982895 L 563.7074455354955 181.3687507025656 L 566.4175591180552 163.61762177170692 L 570.3962916367254 145.57144420318753 L 575.5796474328841 127.67211494294233 L 581.9036308479092 110.36153093690602 L 589.3042462231788 94.08158913101336 L 597.7174979000708 79.27418647119907 L 607.0793902199633 66.38121990339799 L 617.3259275242342 55.84458637354487 L 629.0941658835528 47.541308781155635 L 642.80439120538 40.944803015362425 L 658.0674525862826 35.89155550652413 L 674.4941991228261 32.21805268499969 L 691.6954799115767 29.760780981148024 L 709.2821440491006 28.35622682532806 L 726.865040631964 27.840876647898703 L 744.0550187567328 28.051216879218906 L 760.4629275199733 28.823733949647565 L 775.6996160182514 29.9949142895436 L 790.2623304938124 31.692630193734534 L 804.8308827588725 34.157491453789355 L 819.2899702649532 37.39509074517919 L 833.5242904635769 41.41102074337522 L 847.4185408062652 46.21087412384858 L 860.8574187445403 51.80024356207043 L 873.7256217299241 58.184721733511914 L 885.9078472139386 65.3699013136442 L 897.2887926481059 73.36137497793844 L 907.7531554839477 82.16473540186576 L 917.4084731194358 92.72903968271937 L 926.4340615666799 105.57574195184021 L 934.8222861984088 120.06903043577108 L 942.5655123873515 135.57309336105476 L 949.6561055062367 151.45211895423404 L 956.0864309277936 167.07029544185173 L 961.8488540247507 181.79181105045055 L 966.9357401698372 194.98085400657337 L 971.3394547357818 206.00161253676293 L 975.0523630953138 214.21827486756206 Z" fill="#008800" opacity="0.8028296142716618"></path><path d="M 1414.3324367743003 614.813454272136 L 1408.1218814152444 622.5360655634021 L 1400.261340157043 632.6151319584118 L 1391.0035512720117 644.58848653546 L 1380.601253032466 657.9939623728418 L 1369.3071837107223 672.3693925488521 L 1357.3740815790961 687.2526101417858 L 1345.0546849099026 702.1814482299377 L 1332.6017319754583 716.693739891603 L 1320.2679610480786 730.3273182050763 L 1308.3061104000801 742.6200162486526 L 1296.555946029242 754.6044773356314 L 1284.6663500963741 767.3336764107249 L 1272.603735118337 780.3759439993474 L 1260.3345136119901 793.2996106269132 L 1247.8250980941937 805.6730068188372 L 1235.041901081807 817.0644631005332 L 1221.9513350916914 827.0423099974159 L 1208.5198126407051 835.1748780349 L 1194.7137462457094 841.0304977383994 L 1180.4995484235635 844.1774996333288 L 1165.0508882818801 844.6248886398052 L 1147.9435245666637 842.8253247241307 L 1129.7470042523612 839.0126209809969 L 1111.0308743134196 833.4205905050956 L 1092.3646817242861 826.2830463911182 L 1074.3179734594084 817.8338017337568 L 1057.4602964932337 808.3066696277027 L 1042.3611978002086 797.9354631676478 L 1029.590224354781 786.9539954482836 L 1019.7169231313972 775.5960795643024 L 1012.8094672645699 763.1240205572191 L 1008.3150894110821 748.8855150556027 L 1005.8719258287889 733.2424635347256 L 1005.1181127755448 716.5567664698598 L 1005.6917865092049 699.1903243362773 L 1007.2310832876238 681.50503760925 L 1009.3741393686566 663.8628067640504 L 1011.7590910101582 646.62553227595 L 1014.0240744699829 630.1551146202213 L 1015.8072260059862 614.813454272136 L 1017.1231937022121 600.0348923886625 L 1018.3553814860952 585.1298698604263 L 1019.6950593805755 570.2744367631867 L 1021.3334974085925 555.644643172703 L 1023.4619655930868 541.4165391647341 L 1026.2717339569979 527.7661748150393 L 1029.9540725232657 514.8696001993774 L 1034.70025131483 502.9028653935076 L 1040.7015403546309 492.04202047318904 L 1048.1492096656082 482.4631155141807 L 1057.2205017855026 474.11775365474153 L 1067.8155306929732 466.7964773005245 L 1079.7098735723373 460.4337454283796 L 1092.679107607912 454.96401701515714 L 1106.4988099840152 450.3217510377071 L 1120.944557884964 446.44140647287986 L 1135.791928495076 443.2574422975255 L 1150.8164989986683 440.70431748849415 L 1165.793846580058 438.71649102263603 L 1180.4995484235635 437.22842187680124 L 1195.5997387167517 435.96960928671956 L 1211.6972267800904 434.85774351847016 L 1228.4726024972474 434.1095700944277 L 1245.60645575189 433.94183453696667 L 1262.7793764276853 434.57128236846165 L 1279.671954408301 436.2146591112873 L 1295.964779577404 439.0887102878182 L 1311.338441818662 443.4101814204289 L 1325.4735310157419 449.39581803149395 L 1338.0506370523115 457.2623656433881 L 1349.3134913239828 468.15701003817475 L 1359.7287402822935 482.4923035160193 L 1369.3113463947973 499.38304137644917 L 1378.0762721290491 517.9440189189916 L 1386.0384799526025 537.2900314431738 L 1393.2129323330123 556.535874248523 L 1399.6145917378326 574.7963426345666 L 1405.258420634618 591.1862319008318 L 1410.1593814909222 604.8203373468459 L 1414.3324367743003 614.813454272136 Z" fill="#00ff00" opacity="0.6147506481268077"></path><path d="M 1371.1806774208335 195.48884828654278 L 1368.069038736217 204.05731947731928 L 1364.519089594802 215.59286603248577 L 1360.4689831284506 229.41162530674498 L 1355.856872469026 244.8297346547998 L 1350.62091074839 261.1633314313529 L 1344.6992510984066 277.7285529911073 L 1338.030046650937 293.8415366887656 L 1330.5514505378446 308.81841987903067 L 1322.201615890992 321.97533991660544 L 1312.918695842241 332.6284341561925 L 1302.4294842475863 341.3256428952471 L 1290.6463374087957 349.0805683015524 L 1277.7857521263952 355.90784053530354 L 1264.0642252009086 361.8220897566955 L 1249.6982534328617 366.83794612592334 L 1234.9043336227792 370.97003980318215 L 1219.8989625711856 374.2330009486669 L 1204.8986370786065 376.64145972257273 L 1190.1198539455665 378.21004628509456 L 1175.7791099725912 378.95339079642764 L 1161.203517413731 378.9416547337465 L 1145.7947345429147 378.1986446775015 L 1129.8810771904834 376.6694584428011 L 1113.7908611867779 374.299193844754 L 1097.8524023621387 371.0329486984685 L 1082.3940165469069 366.81582081905333 L 1067.744019571423 361.5929080216167 L 1054.2307272660285 355.3093081212675 L 1042.1824554610637 347.910118933114 L 1031.9275199868694 339.34043827226475 L 1023.2872461557347 329.17972105736334 L 1015.8218945763557 317.25126673124737 L 1009.4681840236834 303.86593989531644 L 1004.1628332726697 289.33460515097005 L 999.8425610982654 273.96812709960767 L 996.4440862754221 258.0773703426291 L 993.9041275790912 241.9731994814337 L 992.1594037842241 225.9664791174212 L 991.146633665772 210.36807385199108 L 990.8025359986866 195.4888482865428 L 991.0793693666465 180.54110822564803 L 992.016235734709 164.76486767780236 L 993.6801189498927 148.51255355029178 L 996.1380028592171 132.13659275040217 L 999.4568713097007 115.98941218541945 L 1003.7037081483621 100.42343876262962 L 1008.9454972222204 85.79109938931857 L 1015.2492223782946 72.44482097277222 L 1022.6818674636033 60.73703042027652 L 1031.3104163251658 51.02015463911749 L 1041.5972355706767 43.22751366015002 L 1053.7297308075038 36.95658330036745 L 1067.362444382172 32.05602414626314 L 1082.149918641208 28.37449678433047 L 1097.7466959311375 25.760661801062774 L 1113.8073185984863 24.063179782953416 L 1129.98632898978 23.130711316495756 L 1145.9382694515448 22.811916988183143 L 1161.3176823303065 22.95545738450892 L 1175.7791099725912 23.40999309196647 L 1189.8802564848029 24.175356808751836 L 1204.2892098629907 25.408400166388233 L 1218.826088288149 27.193312151359773 L 1233.311009941272 29.614281750150536 L 1247.5640930033533 32.75549794924463 L 1261.4054556553872 36.701149735126144 L 1274.6552160783672 41.53542609427918 L 1287.1334924532875 47.34251601318786 L 1298.6604029611426 54.20660847833624 L 1309.0560657829255 62.21189247620845 L 1318.4297576380702 72.31309457313164 L 1327.0287319237489 84.95331131997077 L 1334.8800718375653 99.44928668001648 L 1342.0108605771231 115.11776461655958 L 1348.4481813400255 131.27548909289072 L 1354.2191173238762 147.23920407230068 L 1359.3507517262788 162.32565351808014 L 1363.870167744837 175.85158139351987 L 1367.8044485771543 187.13373166191047 L 1371.1806774208335 195.48884828654278 Z" fill="#00ff00" opacity="0.6262855728585239"></path><path d="M 382.2980284720602 347.53687365375663 L 379.6789105792245 353.94999514966105 L 376.62845960069274 362.5049696517503 L 373.12490030809647 372.7282321566616 L 369.1464574730675 384.14621766103204 L 364.6713558672378 396.2853611614987 L 359.6778202622389 408.6720976546989 L 354.14407542970264 420.83286213726984 L 348.0483461412609 432.2940896058486 L 341.3688571685453 442.58221505707235 L 334.08383328318763 451.22367348757837 L 325.9711720236413 458.8056346455817 L 316.9300648517993 466.14540839468935 L 307.1206774244527 473.1146399046261 L 296.70317539839294 479.5849743451167 L 285.83772443041113 485.4280568858859 L 274.68449017729864 490.51553269665857 L 263.4036382958466 494.71904694715937 L 252.15533444284623 497.91024480711314 L 241.09974427508894 499.9607714462446 L 230.3970334493659 500.7422720342784 L 219.67194017597726 500.1879331557954 L 208.5498879647138 498.3937449595518 L 197.1920704216024 495.4755579615354 L 185.75968115267008 491.54922267773435 L 174.41391376394364 486.73058962413677 L 163.3159618614501 481.13550931673046 L 152.62701905121634 474.8798322715036 L 142.50827893926922 468.07940900444413 L 133.12093513163583 460.8500900315401 L 124.62618123434285 453.3077258687797 L 116.73530008158637 445.1935730314617 L 109.12072950833605 436.24374386335734 L 101.88539562177976 426.5663726231628 L 95.13222452910524 416.2695935695743 L 88.96414233750035 405.46154096128794 L 83.48407515415283 394.25034905700005 L 78.79494908625051 382.7441521154068 L 74.99969024098122 371.05108439520427 L 72.20122472553271 359.2792801550888 L 70.50247864709286 347.53687365375663 L 69.77144543209631 335.2315701431761 L 69.82804990999728 321.92217775431135 L 70.7031152925127 307.94348506435244 L 72.42746479135957 293.63028065048894 L 75.03192161825478 279.3173530899107 L 78.54730898491533 265.33949095980756 L 83.00445010305816 252.0314828373692 L 88.43416818440025 239.7281172997854 L 94.86728644065853 228.76418292424594 L 102.33462808354994 219.4744682879407 L 111.40958148717861 211.46699565921793 L 122.37873093611813 204.17681147748186 L 134.84269350778962 197.6792405765058 L 148.40208627961437 192.04960779006328 L 162.65752632901342 187.36323795192774 L 177.20963073340806 183.69545589587264 L 191.65901657021945 181.12158645567126 L 205.60630091686875 179.71695446509725 L 218.65210085077717 179.55688475792388 L 230.39703344936586 180.71670216792472 L 241.14481028891572 183.57869971532085 L 251.4783349055905 188.27714776891463 L 261.4170123166355 194.5153371853511 L 270.98024753929633 201.9965588212753 L 280.18744559081824 210.42410353333236 L 289.0580114884467 219.50126217816734 L 297.6113502494271 228.93132561242533 L 305.8668668910049 238.4175846927514 L 313.84396643042555 247.6633302757906 L 321.5620538849344 256.37185321818805 L 329.14133958615093 265.2704481436001 L 336.62848333005394 275.0708659916113 L 343.9325643304271 285.4530820927591 L 350.9626618010546 296.09707177758077 L 357.6278549557204 306.6828103766138 L 363.8372230082082 316.8902732203955 L 369.49984517230223 326.3994356394632 L 374.5248006617862 334.89027296435444 L 378.8211686904443 342.04276052560635 L 382.2980284720602 347.53687365375663 Z" fill="#008800" opacity="0.8164616045986426"></path><path d="M 1121.1776687175181 400.68174067947695 L 1118.191627093697 407.14322321364904 L 1114.6427189713922 415.7355578968184 L 1110.5406258904125 425.9947855273397 L 1105.8950293905677 437.45694690356777 L 1100.7156110116678 449.65808282385734 L 1095.0120522935217 462.1342340865633 L 1088.7940347759397 474.4214414900405 L 1082.0712399987308 486.0557458326436 L 1074.853349501705 496.57318791272746 L 1067.150044824671 505.5098085286468 L 1058.7638741753656 513.4838373122618 L 1049.5751019982836 521.3198780459417 L 1039.7099841883733 528.8635327538049 L 1029.2947766405834 535.9604034599694 L 1018.4557352498629 542.4560921885541 L 1007.3191159111602 548.1962009636768 L 996.0111745194241 553.0263318094565 L 984.658166969603 556.792086750011 L 973.3863491566458 559.3390678094592 L 962.3219769755012 560.5128770119192 L 950.8702120678439 560.2890186842308 L 938.5696566398428 558.8140005385159 L 925.746727433188 556.1899296768152 L 912.7278411895687 552.5189132011695 L 899.8394146506747 547.9030582136205 L 887.407864558196 542.4444718162086 L 875.759607653822 536.2452611109749 L 865.2210606792423 529.4075331999607 L 856.1186403761467 522.0333951852064 L 848.778763486225 514.2249541687532 L 843.2521045779622 505.58782866082777 L 839.2283099387646 495.79702898721683 L 836.4922538887033 485.05874997330227 L 834.8288107478495 473.579186444466 L 834.0228548362744 461.5645332260898 L 833.8592604740488 449.2209851435557 L 834.1229019812442 436.7547370222455 L 834.5986536779317 424.371983687541 L 835.0713898841822 412.2789199648241 L 835.3259849200673 400.68174067947695 L 835.2323085259645 388.9595213364438 L 834.9411594108992 376.5534722121499 L 834.6588053479131 363.7629902891979 L 834.5915141100481 350.88747255019007 L 834.9455534703459 338.2263159777291 L 835.9271912018482 326.0789175544175 L 837.7426950775971 314.7446742628578 L 840.5983328706338 304.52298308565247 L 844.7003723540008 295.7132410054041 L 850.2550813007393 288.6148450047151 L 857.6299562337168 283.234646012306 L 866.8152545676683 279.265964339952 L 877.4513854134362 276.53790104483824 L 889.1787578818642 274.87955718414975 L 901.637781083795 274.12003381507145 L 914.4688641300719 274.0884319947884 L 927.3124161315379 274.6138527804857 L 939.8088461990361 275.52539722934824 L 951.5985634434095 276.6521663985612 L 962.3219769755012 277.8232613453095 L 972.2656986071064 279.12928191487384 L 981.9618661927926 280.79778988792197 L 991.4191779075614 282.8633292247195 L 1000.6463319264143 285.3604438855322 L 1009.6520264243525 288.32367783062557 L 1018.4449595763776 291.7875750202654 L 1027.0338295574911 295.78667941471736 L 1035.4273345426943 300.3555349742469 L 1043.634172706989 305.52868565911984 L 1051.6630422253763 311.3406754296018 L 1059.7302914634934 318.41595887600766 L 1067.947093628174 327.0656318489775 L 1076.164384156215 336.85420019926505 L 1084.2330984844125 347.34616977762386 L 1092.0041720495642 358.10604643480764 L 1099.3285402884667 368.6983360215699 L 1106.0571386379168 378.6875443886643 L 1112.0409025347103 387.6381773868446 L 1117.130767415645 395.1147408668642 L 1121.1776687175181 400.68174067947695 Z" fill="#00ff00" opacity="0.8023020188655283"></path><path d="M 993.1094805888858 361.33602749932624 L 991.3389285735777 366.2362991785991 L 989.3212775375263 372.83056879455955 L 987.0202180041531 380.72912602610376 L 984.3994404968802 389.5422605521282 L 981.4226355391294 398.8802620515291 L 978.0534936543226 408.3534202032027 L 974.2557053658813 417.57202468604527 L 969.9929611972275 426.14636517895326 L 965.2289516717831 433.6867313608228 L 959.9273673129701 439.80341291055026 L 953.8175680919956 444.9301023571733 L 946.7868527093157 449.71188403130185 L 939.0358197822238 454.07613531419065 L 930.7650679280144 457.9502335870945 L 922.1751957639812 461.261556231268 L 913.466801907418 463.9374806279659 L 904.840484975619 465.90538415844304 L 896.496843585878 467.0926442039541 L 888.6364763554891 467.4266381457538 L 881.459981901746 466.83474336509704 L 874.8403131944349 465.074316380156 L 868.4988603543916 462.08586760194765 L 862.4088777254838 458.07150525099325 L 856.5436196515802 453.2333375478141 L 850.8763404765488 447.77347271293155 L 845.3802945442577 441.8940189668667 L 840.0287361985751 435.7970845301411 L 834.7949197833693 429.68477762327586 L 829.6520996425082 423.75920646679236 L 824.5735301198603 418.222479281212 L 819.318971780561 412.9474021377855 L 813.7826945078963 407.6537180325934 L 808.1397166229602 402.3139405734009 L 802.5650564468468 396.9005833679733 L 797.2337323006502 391.38616002407593 L 792.3207625054641 385.74318414947396 L 788.0011653823826 379.94416935193277 L 784.4499592525 373.96162923921753 L 781.8421624369099 367.76807741909363 L 780.3527932567066 361.33602749932624 L 779.941603726633 354.3979513689102 L 780.4047333737454 346.83372670627125 L 781.6717817876072 338.83697580332097 L 783.6723485577818 330.6013209519711 L 786.3360332738326 322.3203844441332 L 789.5924355253231 314.18778857171895 L 793.371154901817 306.39715562664014 L 797.6017909928775 299.14210790080824 L 802.2139433880681 292.6162676861351 L 807.137211676952 287.01325727453224 L 812.6530232091703 282.1298920808502 L 818.9907343453464 277.6524982920976 L 826.0018381915178 273.60896435842324 L 833.5378278537222 270.0271787299758 L 841.4501964379971 266.9350298569038 L 849.5904370503802 264.36040618935624 L 857.810042796909 262.33119617748156 L 865.9605067836211 260.8752882714287 L 873.8933221165543 260.0205709213463 L 881.459981901746 259.79493257738295 L 888.9242107986265 260.2346410552842 L 896.5865296561739 261.33092378586554 L 904.3536258647467 263.0441086418806 L 912.1321868147041 265.33452349608325 L 919.8288998964049 268.16249622122723 L 927.3504525002082 271.4883546900664 L 934.6035320164727 275.27242677535435 L 941.4948258355573 279.47504034984513 L 947.931021347821 284.05652328629225 L 953.8188059436225 288.9772034574497 L 959.2639414946153 294.7900501667725 L 964.4219532283826 301.8434100481392 L 969.2741735691784 309.7906769699388 L 973.8019349412566 318.28524480056006 L 977.9865697688715 326.98050740839216 L 981.8094104762769 335.5298586618238 L 985.251789487727 343.5866924292442 L 988.2950392274759 350.804402579042 L 990.9204921197775 356.8363829796064 L 993.1094805888858 361.33602749932624 Z" fill="#004400" opacity="0.84937386930912"></path><path d="M 90.06584199390858 328.08636503800665 L 89.6401919554531 332.2699323509461 L 89.41081727112416 337.899665798007 L 89.24490930979073 344.642887753478 L 89.00965944032183 352.16692059164774 L 88.57225903158644 360.139086686805 L 87.79989945245357 368.2267084132383 L 86.55977207179218 376.0971081452363 L 84.71906825847128 383.41760825708775 L 82.14497938135986 389.8555311230812 L 78.70469680932695 395.0781991175055 L 74.26235894979301 399.36930789803586 L 68.88021460953496 403.23146518263695 L 62.72262075645634 406.6603614360317 L 55.95393435846068 409.6516871229426 L 48.73851238345157 412.20113270809253 L 41.24071179933252 414.30438865620425 L 33.6248895740071 415.95714543200046 L 26.05540267537884 417.155093500204 L 18.696608071351317 417.89392332553746 L 11.712862729828059 418.1693253727234 L 4.8186893259978785 417.98603191458767 L -2.3149549169343 417.3511411392835 L -9.589061209040766 416.263892384526 L -16.90462076039382 414.72352498802985 L -24.162624781065734 412.7292782875098 L -31.264064481128813 410.280391620681 L -38.10993107065535 407.376104325258 L -44.60121575971763 404.0156557389558 L -50.638909758387946 400.19828519948925 L -56.124004276738596 395.9232320445733 L -61.28902599206253 391.0123525184391 L -66.36583217389196 385.3674667028444 L -71.2544099206581 379.10775969179326 L -75.85474633079217 372.35241657929 L -80.06682850272533 365.2206224593386 L -83.79064353488884 357.83156242594333 L -86.92617852571384 350.30442157310836 L -89.37342057363158 342.7583849948377 L -91.03235677707322 335.3126377851358 L -91.80297423446999 328.08636503800665 L -91.67135935920258 320.69130907137685 L -90.73349946403536 312.7881718162384 L -89.05423299647497 304.5695777861934 L -86.69839840402798 296.2281514948442 L -83.73083413420109 287.95651745579266 L -80.21637863450091 279.94730018264124 L -76.21987035243404 272.393124188992 L -71.80614773550717 265.486613988447 L -67.04004923122687 259.42039409460864 L -61.9864132870998 254.38708902107882 L -56.349759583343534 250.30657658289292 L -49.89869251525722 246.9345857002237 L -42.79417760296993 244.2175175443798 L -35.197180366610716 242.10177328667 L -27.268666326308633 240.53375409840294 L -19.169601002192724 239.45986115088732 L -11.060949914392053 238.8264956154318 L -3.1036785830356557 238.58005866334514 L 4.541247471747379 238.66695146593597 L 11.712862729828037 239.033575194513 L 18.724082014969444 239.73214942137648 L 25.915674101988664 240.84726899052126 L 33.16845439733753 242.37389798079792 L 40.36323830746785 244.30700047105697 L 47.380841238831444 246.64154054014895 L 54.10207859788013 249.3724822669245 L 60.407765791065735 252.49478973023403 L 66.17871822484005 256.0034270089282 L 71.29575130565493 259.8933581818575 L 75.63968043996218 264.1595473278725 L 79.15199089667519 269.2684655327221 L 81.92377332961063 275.48448583634786 L 84.0602512225752 282.499425248889 L 85.66664805937567 290.0051007804848 L 86.84818732381876 297.6933294412745 L 87.71009249971118 305.25592824139744 L 88.35758707085965 312.38471419099284 L 88.89589452107086 318.7715043002 L 89.43023833415164 324.10811557915815 L 90.06584199390858 328.08636503800665 Z" fill="#004400" opacity="0.809488018138528"></path><rect width="1200" height="193.6" x="0" y="376.4" fill="rgba(0,0,0,0.4)"></rect><text font-family="system-ui, -apple-system, sans-serif" font-size="64" font-weight="700" text-anchor="middle" fill="rgba(0,0,0,0.5)" x="602" y="474.42812499999997"><tspan dy="0" x="602">Best Portable Power Stations</tspan></text><text font-family="system-ui, -apple-system, sans-serif" font-size="64" font-weight="700" text-anchor="middle" fill="#ffffff" x="600" y="472.42812499999997"><tspan dy="0" x="600">Best Portable Power Stations</tspan></text><text font-family="system-ui, -apple-system, sans-serif" font-size="64" font-weight="700" text-anchor="middle" fill="rgba(0,0,0,0.5)" x="602" y="551.228125"><tspan dy="0" x="602">for Cuba 2025: Blackout Guide</tspan></text><text font-family="system-ui, -apple-system, sans-serif" font-size="64" font-weight="700" text-anchor="middle" fill="#ffffff" x="600" y="549.228125"><tspan dy="0" x="600">for Cuba 2025: Blackout Guide</tspan></text><text font-family="system-ui, -apple-system, sans-serif" font-size="18" font-weight="500" fill="#ffffff" opacity="0.6" x="1070" y="614.2392578125"><tspan dy="0" x="1070">veguitas.com</tspan></text></svg>