<svg xmlns="http://www.w3.org/2000/svg" width="100%" height="100%" viewBox="0 0 1200 630" preserveAspectRatio="xMidYMid meet">
  <defs>
    
    <linearGradient id="ocean-sky-1lt" x1="0%" y1="0%" x2="0%" y2="100%">
      <stop offset="0%" stop-color="#0f172a"/>
      <stop offset="60%" stop-color="#0c1445"/>
      <stop offset="100%" stop-color="#45aaf2" stop-opacity="0.5"/>
    </linearGradient>
  

    <radialGradient id="moon-glow-10g" cx="50%" cy="50%" r="50%">
      <stop offset="0%" stop-color="#ffc914" stop-opacity="0.6"/>
      <stop offset="100%" stop-color="#ffc914" stop-opacity="0"/>
    </radialGradient>
    <filter id="filter-2dfkt9l1yph-moon-glow" x="-100%" y="-100%" width="300%" height="300%">
      <feGaussianBlur in="SourceGraphic" stdDeviation="20"/>
    </filter>
  

      <linearGradient id="wave-0-8z" x1="0%" y1="0%" x2="0%" y2="100%">
        <stop offset="0%" stop-color="#45aaf2" stop-opacity="0.4"/>
        <stop offset="100%" stop-color="#0c1445" stop-opacity="0.2"/>
      </linearGradient>
    

      <linearGradient id="wave-1-6di" x1="0%" y1="0%" x2="0%" y2="100%">
        <stop offset="0%" stop-color="#06b6d4" stop-opacity="0.4666666666666667"/>
        <stop offset="100%" stop-color="#0c1445" stop-opacity="0.23333333333333334"/>
      </linearGradient>
    

      <linearGradient id="wave-2-5yw" x1="0%" y1="0%" x2="0%" y2="100%">
        <stop offset="0%" stop-color="#0ea5e9" stop-opacity="0.5333333333333333"/>
        <stop offset="100%" stop-color="#0c1445" stop-opacity="0.26666666666666666"/>
      </linearGradient>
    

      <linearGradient id="wave-3-4qa" x1="0%" y1="0%" x2="0%" y2="100%">
        <stop offset="0%" stop-color="#45aaf2" stop-opacity="0.6000000000000001"/>
        <stop offset="100%" stop-color="#0c1445" stop-opacity="0.30000000000000004"/>
      </linearGradient>
    

      <linearGradient id="wave-4-5ji" x1="0%" y1="0%" x2="0%" y2="100%">
        <stop offset="0%" stop-color="#06b6d4" stop-opacity="0.6666666666666667"/>
        <stop offset="100%" stop-color="#0c1445" stop-opacity="0.33333333333333337"/>
      </linearGradient>
    

      <linearGradient id="wave-5-7f1" x1="0%" y1="0%" x2="0%" y2="100%">
        <stop offset="0%" stop-color="#0ea5e9" stop-opacity="0.7333333333333334"/>
        <stop offset="100%" stop-color="#0c1445" stop-opacity="0.3666666666666667"/>
      </linearGradient>
    

      <linearGradient id="wave-6-3kq" x1="0%" y1="0%" x2="0%" y2="100%">
        <stop offset="0%" stop-color="#45aaf2" stop-opacity="0.8"/>
        <stop offset="100%" stop-color="#0c1445" stop-opacity="0.4"/>
      </linearGradient>
    

    <linearGradient id="moon-refl-4vk" x1="0%" y1="0%" x2="0%" y2="100%">
      <stop offset="0%" stop-color="#ffc914" stop-opacity="0.4"/>
      <stop offset="100%" stop-color="#ffc914" stop-opacity="0"/>
    </linearGradient>
  
    <filter id="filter-2dfkt9l1yph-blur" x="-20%" y="-20%" width="140%" height="140%">
      <feGaussianBlur in="SourceGraphic" stdDeviation="12"/>
    </filter>
    <filter id="filter-2dfkt9l1yph-shadow" x="-50%" y="-50%" width="200%" height="200%">
      <feDropShadow dx="0" dy="4" stdDeviation="6" flood-color="rgba(0,0,0,0.2)"/>
    </filter>
  </defs>

  <!-- Pattern Background -->
  <g>
    <rect width="1200" height="630" fill="url(#ocean-sky-1lt)"/>
<circle cx="1026.3196925260127" cy="132.48429406236392" r="142.44415033143014" fill="url(#moon-glow-10g)" filter="url(#filter-2dfkt9l1yph-moon-glow)"/>
<circle cx="1026.3196925260127" cy="132.48429406236392" r="47.481383443810046" fill="#ffc914" opacity="0.95"/>
<circle cx="181.6" cy="126.6" r="0.7" fill="white" opacity="0.69"/>
<circle cx="292.0" cy="113.1" r="1.0" fill="white" opacity="0.82"/>
<circle cx="927.6" cy="180.8" r="1.6" fill="white" opacity="0.32"/>
<circle cx="65.6" cy="72.4" r="0.9" fill="white" opacity="0.81"/>
<circle cx="598.4" cy="231.1" r="0.7" fill="white" opacity="0.64"/>
<circle cx="1015.9" cy="41.8" r="1.3" fill="white" opacity="0.90"/>
<circle cx="549.4" cy="131.3" r="1.4" fill="white" opacity="0.54"/>
<circle cx="404.9" cy="74.6" r="1.2" fill="white" opacity="0.89"/>
<circle cx="840.6" cy="94.1" r="1.9" fill="white" opacity="0.62"/>
<circle cx="1117.4" cy="203.2" r="0.7" fill="white" opacity="0.65"/>
<circle cx="764.5" cy="146.8" r="1.2" fill="white" opacity="0.73"/>
<circle cx="374.8" cy="163.2" r="1.9" fill="white" opacity="0.79"/>
<circle cx="551.0" cy="231.2" r="1.0" fill="white" opacity="0.58"/>
<circle cx="779.2" cy="38.5" r="1.2" fill="white" opacity="0.72"/>
<circle cx="686.4" cy="88.0" r="0.7" fill="white" opacity="0.79"/>
<circle cx="598.6" cy="128.7" r="1.8" fill="white" opacity="0.91"/>
<circle cx="441.8" cy="146.1" r="1.9" fill="white" opacity="0.41"/>
<circle cx="348.0" cy="56.6" r="1.7" fill="white" opacity="0.57"/>
<circle cx="471.1" cy="64.7" r="1.5" fill="white" opacity="0.76"/>
<circle cx="99.7" cy="8.5" r="1.4" fill="white" opacity="0.64"/>
<circle cx="58.4" cy="39.0" r="1.0" fill="white" opacity="0.42"/>
<circle cx="1129.5" cy="65.1" r="1.8" fill="white" opacity="0.91"/>
<circle cx="205.4" cy="74.8" r="1.9" fill="white" opacity="0.66"/>
<circle cx="1143.8" cy="165.0" r="0.9" fill="white" opacity="0.50"/>
<circle cx="110.0" cy="172.3" r="1.7" fill="white" opacity="0.48"/>
<circle cx="857.5" cy="96.8" r="1.3" fill="white" opacity="0.81"/>
<circle cx="143.0" cy="83.3" r="1.1" fill="white" opacity="0.67"/>
<circle cx="973.6" cy="96.2" r="0.7" fill="white" opacity="0.93"/>
<circle cx="412.7" cy="33.7" r="0.6" fill="white" opacity="0.89"/>
<circle cx="16.3" cy="25.1" r="1.5" fill="white" opacity="0.80"/>
<circle cx="39.2" cy="40.0" r="0.8" fill="white" opacity="0.62"/>
<circle cx="49.5" cy="249.5" r="1.9" fill="white" opacity="0.38"/>
<circle cx="125.5" cy="32.3" r="1.6" fill="white" opacity="0.39"/>
<circle cx="701.9" cy="127.9" r="0.5" fill="white" opacity="0.39"/>
<circle cx="999.6" cy="3.0" r="1.9" fill="white" opacity="0.81"/>
<circle cx="991.7" cy="200.7" r="1.4" fill="white" opacity="0.31"/>
<circle cx="384.2" cy="92.3" r="0.9" fill="white" opacity="1.00"/>
<circle cx="693.3" cy="232.0" r="0.7" fill="white" opacity="0.44"/>
<circle cx="1150.2" cy="24.8" r="0.6" fill="white" opacity="0.64"/>
<circle cx="324.1" cy="9.3" r="1.6" fill="white" opacity="0.37"/>
<circle cx="1156.2" cy="235.3" r="0.9" fill="white" opacity="0.31"/>
<circle cx="219.1" cy="143.6" r="1.6" fill="white" opacity="0.57"/>
<circle cx="1124.3" cy="144.2" r="0.9" fill="white" opacity="0.48"/>
<circle cx="113.0" cy="98.8" r="1.4" fill="white" opacity="0.43"/>
<path d="M 0 630 L 0 294.9 L 15 290.5 L 30 286.4 L 45 282.9 L 60 279.8 L 75 277.4 L 90 275.6 L 105 274.2 L 120 273.3 L 135 272.6 L 150 272.1 L 165 271.6 L 180 270.9 L 195 269.9 L 210 268.6 L 225 266.9 L 240 264.9 L 255 262.6 L 270 260.1 L 285 257.6 L 300 255.1 L 315 253.0 L 330 251.4 L 345 250.5 L 360 250.3 L 375 251.1 L 390 252.7 L 405 255.4 L 420 258.9 L 435 263.1 L 450 268.0 L 465 273.3 L 480 278.9 L 495 284.4 L 510 289.7 L 525 294.6 L 540 298.8 L 555 302.4 L 570 305.1 L 585 307.1 L 600 308.2 L 615 308.7 L 630 308.6 L 645 308.0 L 660 307.1 L 675 306.1 L 690 305.2 L 705 304.4 L 720 303.9 L 735 303.7 L 750 303.7 L 765 304.1 L 780 304.6 L 795 305.2 L 810 305.7 L 825 305.9 L 840 305.8 L 855 305.0 L 870 303.7 L 885 301.5 L 900 298.7 L 915 295.0 L 930 290.7 L 945 285.9 L 960 280.6 L 975 275.2 L 990 269.8 L 1005 264.7 L 1020 260.0 L 1035 255.9 L 1050 252.7 L 1065 250.4 L 1080 249.1 L 1095 248.7 L 1110 249.3 L 1125 250.6 L 1140 252.7 L 1155 255.2 L 1170 258.0 L 1185 261.0 L 1200 263.9 L 1200 630 Z" fill="url(#wave-0-8z)"/>

          <ellipse cx="127.46942341327667" cy="269.0666114187341" rx="79.93324376409873" ry="4.171473382972181"
                   fill="white" opacity="0.32563271385151893"/>
        

          <ellipse cx="274.76512738503516" cy="249.80763022016316" rx="30.246242026332766" ry="4.76116933953017"
                   fill="white" opacity="0.37908940822817383"/>
        

          <ellipse cx="498.4666316304356" cy="276.7591919817357" rx="33.653463744558394" ry="6.148854584433138"
                   fill="white" opacity="0.303357012826018"/>
        

          <ellipse cx="656.8364400882274" cy="304.5336753096754" rx="38.53661767905578" ry="5.947871265932918"
                   fill="white" opacity="0.36618620331864804"/>
        

          <ellipse cx="988.5604383423924" cy="266.3657818381752" rx="68.96940207341686" ry="4.66908357385546"
                   fill="white" opacity="0.3641880359034986"/>
        

          <ellipse cx="1071.7871197964996" cy="253.35860282077908" rx="48.92964146099985" ry="3.099071392789483"
                   fill="white" opacity="0.22876532634254546"/>
        
<path d="M 0 630 L 0 321.2 L 15 317.1 L 30 314.3 L 45 312.7 L 60 311.9 L 75 311.7 L 90 311.6 L 105 311.2 L 120 310.3 L 135 308.8 L 150 306.7 L 165 304.2 L 180 301.7 L 195 299.5 L 210 298.2 L 225 298.1 L 240 299.5 L 255 302.7 L 270 307.5 L 285 313.9 L 300 321.3 L 315 329.3 L 330 337.3 L 345 344.8 L 360 351.2 L 375 356.1 L 390 359.3 L 405 360.9 L 420 360.9 L 435 359.7 L 450 357.6 L 465 355.2 L 480 352.8 L 495 350.8 L 510 349.3 L 525 348.6 L 540 348.3 L 555 348.2 L 570 348.0 L 585 347.3 L 600 345.7 L 615 343.0 L 630 338.9 L 645 333.5 L 660 327.1 L 675 319.9 L 690 312.5 L 705 305.5 L 720 299.4 L 735 294.6 L 750 291.7 L 765 290.6 L 780 291.5 L 795 294.1 L 810 298.1 L 825 303.0 L 840 308.2 L 855 313.4 L 870 318.0 L 885 321.8 L 900 324.8 L 915 326.9 L 930 328.4 L 945 329.6 L 960 330.9 L 975 332.6 L 990 335.0 L 1005 338.3 L 1020 342.5 L 1035 347.5 L 1050 352.8 L 1065 358.0 L 1080 362.7 L 1095 366.4 L 1110 368.5 L 1125 368.8 L 1140 367.2 L 1155 363.6 L 1170 358.4 L 1185 352.0 L 1200 344.8 L 1200 630 Z" fill="url(#wave-1-6di)"/>

          <ellipse cx="141.41057941596955" cy="294.3210293194565" rx="34.48683623690158" ry="4.966263893060386"
                   fill="white" opacity="0.3179923333460465"/>
        

          <ellipse cx="506.2448505079374" cy="353.8787320458125" rx="69.56890433328226" ry="3.871890068985522"
                   fill="white" opacity="0.4761611653957516"/>
        

          <ellipse cx="758.4821360651404" cy="295.0351308251474" rx="74.33835234958678" ry="4.133867772296071"
                   fill="white" opacity="0.34266775411088024"/>
        

          <ellipse cx="1143.7375368084759" cy="352.68014014436636" rx="54.56610209774226" ry="5.842926296405494"
                   fill="white" opacity="0.4066976879257709"/>
        
<path d="M 0 630 L 0 331.7 L 15 332.7 L 30 334.1 L 45 335.5 L 60 337.0 L 75 338.2 L 90 339.2 L 105 339.9 L 120 340.2 L 135 340.1 L 150 339.8 L 165 339.1 L 180 338.3 L 195 337.5 L 210 336.9 L 225 336.5 L 240 336.6 L 255 337.2 L 270 338.6 L 285 340.8 L 300 343.9 L 315 347.9 L 330 352.8 L 345 358.6 L 360 365.1 L 375 372.2 L 390 379.8 L 405 387.7 L 420 395.6 L 435 403.3 L 450 410.7 L 465 417.4 L 480 423.4 L 495 428.5 L 510 432.5 L 525 435.4 L 540 437.2 L 555 437.7 L 570 437.2 L 585 435.6 L 600 433.2 L 615 430.0 L 630 426.2 L 645 422.1 L 660 417.7 L 675 413.4 L 690 409.2 L 705 405.2 L 720 401.7 L 735 398.6 L 750 395.9 L 765 393.8 L 780 392.1 L 795 390.7 L 810 389.5 L 825 388.5 L 840 387.5 L 855 386.3 L 870 384.7 L 885 382.8 L 900 380.3 L 915 377.2 L 930 373.4 L 945 369.0 L 960 364.0 L 975 358.5 L 990 352.5 L 1005 346.3 L 1020 340.0 L 1035 333.8 L 1050 327.9 L 1065 322.6 L 1080 317.9 L 1095 314.1 L 1110 311.3 L 1125 309.6 L 1140 309.2 L 1155 309.9 L 1170 311.9 L 1185 315.0 L 1200 319.2 L 1200 630 Z" fill="url(#wave-2-5yw)"/>

          <ellipse cx="350.61959382146597" cy="369.3436578997414" rx="75.6959021394141" ry="5.779566937126219"
                   fill="white" opacity="0.4147780416533351"/>
        

          <ellipse cx="491.84220526367426" cy="408.81785384294034" rx="55.378396816086024" ry="6.218313304707408"
                   fill="white" opacity="0.39111539765726777"/>
        

          <ellipse cx="825.3785924054682" cy="385.2430580655393" rx="43.731461646966636" ry="5.233486826531589"
                   fill="white" opacity="0.32202381286770104"/>
        
<path d="M 0 630 L 0 400.9 L 15 400.0 L 30 399.5 L 45 399.4 L 60 399.5 L 75 399.8 L 90 400.2 L 105 400.6 L 120 400.8 L 135 400.8 L 150 400.7 L 165 400.3 L 180 399.6 L 195 398.8 L 210 397.8 L 225 396.7 L 240 395.7 L 255 394.8 L 270 394.1 L 285 393.8 L 300 394.0 L 315 394.7 L 330 395.9 L 345 397.8 L 360 400.4 L 375 403.6 L 390 407.3 L 405 411.6 L 420 416.2 L 435 421.2 L 450 426.3 L 465 431.3 L 480 436.2 L 495 440.9 L 510 445.1 L 525 448.7 L 540 451.8 L 555 454.1 L 570 455.8 L 585 456.7 L 600 456.9 L 615 456.5 L 630 455.5 L 645 454.1 L 660 452.3 L 675 450.3 L 690 448.1 L 705 446.0 L 720 444.0 L 735 442.1 L 750 440.5 L 765 439.1 L 780 438.1 L 795 437.2 L 810 436.6 L 825 436.2 L 840 435.8 L 855 435.4 L 870 434.8 L 885 434.1 L 900 433.0 L 915 431.6 L 930 429.7 L 945 427.3 L 960 424.5 L 975 421.2 L 990 417.5 L 1005 413.5 L 1020 409.3 L 1035 404.9 L 1050 400.6 L 1065 396.4 L 1080 392.6 L 1095 389.1 L 1110 386.3 L 1125 384.1 L 1140 382.6 L 1155 381.9 L 1170 381.9 L 1185 382.8 L 1200 384.4 L 1200 630 Z" fill="url(#wave-3-4qa)"/>

          <ellipse cx="97.47126521542668" cy="389.6384595698552" rx="63.870120462961495" ry="4.970343676395714"
                   fill="white" opacity="0.3185689224395901"/>
        

          <ellipse cx="454.43107879254967" cy="422.81370137652976" rx="52.4458996206522" ry="5.645767883397639"
                   fill="white" opacity="0.4990927772363648"/>
        

          <ellipse cx="869.3544187350199" cy="427.67567397160906" rx="40.82906291121617" ry="5.526583321392536"
                   fill="white" opacity="0.4218561404151842"/>
        

          <ellipse cx="1058.2122049061581" cy="393.8889851241322" rx="60.62862182268873" ry="5.927265834994614"
                   fill="white" opacity="0.28252162465360015"/>
        
<path d="M 0 630 L 0 446.9 L 15 449.5 L 30 451.2 L 45 452.1 L 60 452.7 L 75 453.7 L 90 455.6 L 105 458.9 L 120 464.0 L 135 470.8 L 150 478.8 L 165 487.4 L 180 495.7 L 195 502.8 L 210 507.9 L 225 510.5 L 240 510.2 L 255 507.2 L 270 502.1 L 285 495.5 L 300 488.3 L 315 481.3 L 330 475.3 L 345 470.6 L 360 467.2 L 375 465.1 L 390 463.6 L 405 462.1 L 420 460.2 L 435 457.2 L 450 453.1 L 465 447.9 L 480 442.2 L 495 436.5 L 510 431.7 L 525 428.6 L 540 427.8 L 555 429.7 L 570 434.3 L 585 441.3 L 600 449.9 L 615 459.2 L 630 468.4 L 645 476.6 L 660 483.1 L 675 487.6 L 690 490.1 L 705 491.1 L 720 491.0 L 735 490.5 L 750 490.2 L 765 490.6 L 780 491.9 L 795 493.9 L 810 496.3 L 825 498.2 L 840 499.1 L 855 498.3 L 870 495.3 L 885 490.0 L 900 482.6 L 915 473.5 L 930 463.6 L 945 453.9 L 960 445.3 L 975 438.6 L 990 434.2 L 1005 432.4 L 1020 432.9 L 1035 435.3 L 1050 438.8 L 1065 442.7 L 1080 446.2 L 1095 449.1 L 1110 450.9 L 1125 451.9 L 1140 452.6 L 1155 453.4 L 1170 455.0 L 1185 458.0 L 1200 462.7 L 1200 630 Z" fill="url(#wave-4-5ji)"/>

          <ellipse cx="329.56355549395084" cy="480.21908767561547" rx="56.9291287753731" ry="4.569662334397435"
                   fill="white" opacity="0.36823595569003376"/>
        

          <ellipse cx="408.5832789540291" cy="451.248995324462" rx="40.91964750085026" ry="5.23396429605782"
                   fill="white" opacity="0.30830895600374786"/>
        

          <ellipse cx="1010.9677140600979" cy="434.32472248630063" rx="47.88718397729099" ry="3.329746167175472"
                   fill="white" opacity="0.29879927313886584"/>
        
<path d="M 0 630 L 0 496.3 L 15 493.1 L 30 490.8 L 45 489.5 L 60 488.7 L 75 488.5 L 90 488.6 L 105 488.7 L 120 488.7 L 135 488.4 L 150 487.7 L 165 486.6 L 180 485.0 L 195 483.0 L 210 480.9 L 225 478.7 L 240 476.7 L 255 475.2 L 270 474.4 L 285 474.5 L 300 475.7 L 315 478.0 L 330 481.6 L 345 486.3 L 360 492.2 L 375 499.0 L 390 506.4 L 405 514.3 L 420 522.2 L 435 529.9 L 450 537.0 L 465 543.3 L 480 548.6 L 495 552.7 L 510 555.6 L 525 557.1 L 540 557.5 L 555 556.8 L 570 555.3 L 585 553.1 L 600 550.5 L 615 547.7 L 630 545.1 L 645 542.6 L 660 540.6 L 675 539.1 L 690 538.0 L 705 537.3 L 720 536.9 L 735 536.7 L 750 536.3 L 765 535.7 L 780 534.5 L 795 532.7 L 810 530.0 L 825 526.5 L 840 522.0 L 855 516.6 L 870 510.5 L 885 503.8 L 900 496.8 L 915 489.7 L 930 482.9 L 945 476.7 L 960 471.4 L 975 467.2 L 990 464.2 L 1005 462.6 L 1020 462.5 L 1035 463.7 L 1050 466.3 L 1065 469.9 L 1080 474.4 L 1095 479.5 L 1110 484.9 L 1125 490.3 L 1140 495.6 L 1155 500.3 L 1170 504.6 L 1185 508.1 L 1200 511.0 L 1200 630 Z" fill="url(#wave-5-7f1)"/>
<path d="M 0 630 L 0 557.5 L 15 558.0 L 30 558.5 L 45 559.0 L 60 559.6 L 75 560.4 L 90 561.5 L 105 562.8 L 120 564.5 L 135 566.4 L 150 568.5 L 165 570.8 L 180 573.2 L 195 575.7 L 210 578.0 L 225 580.1 L 240 581.9 L 255 583.2 L 270 584.1 L 285 584.4 L 300 584.2 L 315 583.4 L 330 582.0 L 345 580.1 L 360 577.8 L 375 575.2 L 390 572.3 L 405 569.4 L 420 566.5 L 435 563.6 L 450 561.1 L 465 558.7 L 480 556.8 L 495 555.2 L 510 553.9 L 525 553.0 L 540 552.4 L 555 552.0 L 570 551.7 L 585 551.5 L 600 551.3 L 615 551.0 L 630 550.6 L 645 550.0 L 660 549.2 L 675 548.2 L 690 547.0 L 705 545.7 L 720 544.4 L 735 543.2 L 750 542.1 L 765 541.2 L 780 540.7 L 795 540.6 L 810 541.0 L 825 541.9 L 840 543.4 L 855 545.3 L 870 547.7 L 885 550.5 L 900 553.6 L 915 556.9 L 930 560.3 L 945 563.6 L 960 566.8 L 975 569.7 L 990 572.2 L 1005 574.4 L 1020 576.0 L 1035 577.2 L 1050 577.9 L 1065 578.1 L 1080 578.0 L 1095 577.6 L 1110 576.9 L 1125 576.2 L 1140 575.3 L 1155 574.6 L 1170 573.9 L 1185 573.4 L 1200 573.1 L 1200 630 Z" fill="url(#wave-6-3kq)"/>

    <path d="M 986.3196925260127 313.5 Q 1026.814052007287 318.5 1026.814052007287 323.5 Q 1019.5660573491107 328.5 1019.5660573491107 333.5 Q 1013.9715881235012 338.5 1013.9715881235012 343.5 Q 1011.400365510823 348.5 1011.400365510823 353.5 Q 1012.4819144811834 358.5 1012.4819144811834 363.5 Q 1016.9514341262991 368.5 1016.9514341262991 373.5 Q 1023.7146301570986 378.5 1023.7146301570986 383.5 Q 1031.1156363105347 388.5 1031.1156363105347 393.5 Q 1037.3424281611328 398.5 1037.3424281611328 403.5 Q 1040.8704698969086 408.5 1040.8704698969086 413.5 Q 1040.8359738561874 418.5 1040.8359738561874 423.5 Q 1037.2473858728288 428.5 1037.2473858728288 433.5 Q 1030.9833174415405 438.5 1030.9833174415405 443.5 Q 1023.5774309813261 448.5 1023.5774309813261 453.5 Q 1016.8429457869657 458.5 1016.8429457869657 463.5 Q 1012.4286987074212 468.5 1012.4286987074212 473.5 Q 1011.4154513800139 478.5 1011.4154513800139 483.5 Q 1014.0512820887291 488.5 1014.0512820887291 493.5 Q 1019.6908475482637 498.5 1019.6908475482637 503.5 Q 1026.953385447402 508.5 1026.953385447402 513.5 Q 1034.060773218571 518.5 1034.060773218571 523.5 Q 1039.2728744565743 528.5 1039.2728744565743 533.5 Q 1041.3135849999628 538.5 1041.3135849999628 543.5 Q 1039.683267735447 548.5 1039.683267735447 553.5 Q 1034.7810811886827 558.5 1034.7810811886827 563.5 Q 1027.8072515960505 568.5 1027.8072515960505 573.5 Q 1020.4692156626368 578.5 1020.4692156626368 583.5 Q 1014.5635805078913 588.5 1014.5635805078913 593.5 Q 1011.5362515839222 598.5 1011.5362515839222 603.5 Q 1012.1284245931045 608.5 1012.1284245931045 613.5 Q 1016.1951149300346 618.5 1016.1951149300346 623.5 Q 1022.7406549694483 628.5 1022.7406549694483 633.5" stroke="url(#moon-refl-4vk)" stroke-width="49.08233926165849" fill="none" stroke-linecap="round" opacity="0.5"/>
  
  </g>

  <!-- Text Box with Frosted Glass (shadow only on box, not text) -->
  <g filter="url(#filter-2dfkt9l1yph-shadow)">
    <g filter="url(#filter-2dfkt9l1yph-blur)">
      <rect x="60" y="142.2" width="1080" height="345.6" rx="20" ry="20" fill="#0f172a"/>
    </g>
    <rect x="60" y="142.2" width="1080" height="345.6" rx="20" ry="20"
          fill="rgba(15, 23, 42, 0.75)"/>
  </g>

  <!-- Text (separate from shadow group) -->
  <text
        font-family="system-ui, -apple-system, BlinkMacSystemFont, 'Segoe UI', sans-serif"
        font-size="64"
        font-weight="700"
        fill="#ffffff">
    <tspan x="600" y="247.8" text-anchor="middle">Linternas LED Recargables</tspan>
      <tspan x="600" y="331.0" text-anchor="middle">Esenciales para los Apagones de</tspan>
      <tspan x="600" y="414.2" text-anchor="middle">Cuba</tspan>
  </text>

  <!-- Watermark -->
  <text x="1160" y="605"
        font-family="system-ui, -apple-system, sans-serif"
        font-size="18"
        font-weight="600"
        fill="rgba(255,255,255,0.4)"
        text-anchor="end">
    veguitas.com
  </text>
</svg>