<svg xmlns="http://www.w3.org/2000/svg" version="1.1" xmlns:xlink="http://www.w3.org/1999/xlink" width="1200" height="630" viewBox="0 0 1200 630"><rect width="1200" height="630" fill="#0f0f1a"></rect><path d="M 0 630 L 0 558 L 0 530.9097792953772 L 20 545.9475287111047 L 40 563.3308127099842 L 60 570.6156635273127 L 80 566.0467647176624 L 100 556.8182018770573 L 120 549.4410463563258 L 140 553.794329156491 L 160 570.653833780905 L 180 581.9386910366463 L 200 574.969746189258 L 220 555.110101099729 L 240 537.3519250271582 L 260 534.6839540304703 L 280 547.9334638474187 L 300 564.540869408835 L 320 573.3209130790557 L 340 575.8889904224195 L 360 573.9526357028979 L 380 569.4488423626435 L 400 563.6596383449612 L 420 557.885772187583 L 440 556.5421511875728 L 460 560.5289188972457 L 480 567.3420552747291 L 500 574.8650482875005 L 520 580.4424707942052 L 540 584.2856624976669 L 560 586.9332299229893 L 580 583.2685819695619 L 600 569.3974729227663 L 620 548.647195171285 L 640 537.2363740735814 L 660 545.4935856740259 L 680 566.9995595217101 L 700 586.3629673370034 L 720 591.9701027121681 L 740 588.8419578039905 L 760 583.9991905027402 L 780 577.0566211497581 L 800 561.9613789102211 L 820 544.0730158409125 L 840 536.0050036849725 L 860 536.8326255422744 L 880 532.9341257228989 L 900 523.3341168439421 L 920 522.7995655463649 L 940 535.1418991364773 L 960 544.966194347663 L 980 542.3084424927642 L 1000 534.4192115750832 L 1020 530.5991432251662 L 1040 533.971586218089 L 1060 546.6739504645932 L 1080 568.1313049265704 L 1100 583.8789079156762 L 1120 580.9298917107405 L 1140 561.5271622647555 L 1160 539.5995055251535 L 1180 531.5754617912328 L 1200 548.5767856861513 L 1200 630 Z" fill="#2d3436" opacity="0.85"></path><path d="M 0 630 L 0 486 L 0 488.6633640182004 L 20 484.12304698061604 L 40 483.3288915466704 L 60 484.0676382218919 L 80 483.67284236156803 L 100 488.5962438529084 L 120 502.94794981485626 L 140 503.05944847482607 L 160 488.5179270178431 L 180 493.1664565019437 L 200 497.6000230927492 L 220 498.73970188015466 L 240 497.88088533731514 L 260 481.64143544461996 L 280 472.56880241946 L 300 483.73080380827696 L 320 493.04528700013265 L 340 494.17955992189246 L 360 490.44739335707317 L 380 484.7599021290217 L 400 475.97077291772393 L 420 467.242228180563 L 440 467.074015554727 L 460 470.56724725782834 L 480 473.6063882830371 L 500 483.32984488192733 L 520 489.9251342563711 L 540 492.98260645034645 L 560 493.1151840395808 L 580 488.82076476346225 L 600 480.79482605513937 L 620 474.13393100592145 L 640 474.31206437794776 L 660 484.59350422270984 L 680 501.1646948005266 L 700 504.2870041183999 L 720 491.42516823730966 L 740 477.0502898819926 L 760 481.6304247926405 L 780 495.08910823122847 L 800 499.67756963570895 L 820 501.5082628899154 L 840 490.3850451417308 L 860 471.43788123087245 L 880 474.6051180397651 L 900 487.0361694083465 L 920 475.0022863652198 L 940 463.02465396283606 L 960 467.8457407487027 L 980 473.1066829059444 L 1000 470.7320219896017 L 1020 473.1782160454809 L 1040 474.0430808176615 L 1060 471.4212469200014 L 1080 475.1534416145008 L 1100 481.84931163468156 L 1120 482.9466558847943 L 1140 481.7226215839476 L 1160 482.8176745533123 L 1180 483.63125447676 L 1200 477.0058962398078 L 1200 630 Z" fill="#1a1a3a" opacity="0.85"></path><path d="M 0 630 L 0 414 L 0 409.84975816248635 L 20 423.6607249091833 L 40 441.3333876462432 L 60 433.1590681861284 L 80 442.59522070890637 L 100 412.19084194892724 L 120 391.8347069279722 L 140 415.58580498899653 L 160 384.25276171647596 L 180 392.8394263087978 L 200 426.52742402669486 L 220 424.01484306819395 L 240 429.32146097125303 L 260 438.30420709573843 L 280 430.84433726814467 L 300 440.62686344618703 L 320 413.3518461551861 L 340 388.56817531048466 L 360 407.6978710931802 L 380 385.0297772113677 L 400 380.90526155240747 L 420 407.35708294838184 L 440 412.5549586059408 L 460 381.6238842910904 L 480 391.55563259429374 L 500 429.13062188441484 L 520 448.73472415684284 L 540 433.42723211646614 L 560 400.2943285283646 L 580 421.0924691245213 L 600 412.89902481595584 L 620 393.7413885707343 L 640 408.84540347407193 L 660 426.05516817957863 L 680 388.5187202827839 L 700 396.33497329699975 L 720 433.10176572179506 L 740 409.9932094857175 L 760 391.06071433287235 L 780 399.7501897708726 L 800 417.27557831874805 L 820 424.91355463142327 L 840 442.1989552617645 L 860 448.35878776582945 L 880 417.7020861203036 L 900 433.80393727012444 L 920 425.6295808321856 L 940 387.90716765742644 L 960 396.14793827105507 L 980 388.1356601429865 L 1000 393.2425283100388 L 1020 406.65080189641 L 1040 409.31555229389244 L 1060 426.45438493816414 L 1080 448.3524202820419 L 1100 412.3381035949306 L 1120 428.2064527271103 L 1140 428.44317540607744 L 1160 389.7255034855206 L 1180 392.23651184266873 L 1200 402.96155329655016 L 1200 630 Z" fill="#0f0f1a" opacity="0.85"></path><path d="M 0 630 L 0 342 L 0 349.4785093606251 L 20 360.96360301002267 L 40 342.7403576520759 L 60 346.42012804609885 L 80 344.79543204914484 L 100 325.5265217816144 L 120 335.91808289186383 L 140 353.1476521750358 L 160 359.8174931771355 L 180 345.1302345568133 L 200 332.962315151197 L 220 336.2860058095656 L 240 333.82523935073465 L 260 338.3727278742237 L 280 348.25765392357533 L 300 330.6512937622881 L 320 325.9074307156926 L 340 344.00066697770274 L 360 356.42374976530283 L 380 355.57230335188495 L 400 355.8671585393123 L 420 352.71276151397393 L 440 357.4254279210994 L 460 337.5619539164392 L 480 327.0841977040683 L 500 323.10960808436465 L 520 340.0883295032975 L 540 349.3419800604333 L 560 350.043235464468 L 580 341.97858209657744 L 600 330.36740108581074 L 620 332.0901008665853 L 640 350.99669677362743 L 660 348.36358309874595 L 680 328.75783660962384 L 700 343.6551520606184 L 720 355.6149445679716 L 740 346.5693114227635 L 760 332.84310473955094 L 780 342.98226503198697 L 800 360.5198886607802 L 820 353.09301793964624 L 840 334.67368304414646 L 860 332.5607581375432 L 880 352.1133966064832 L 900 355.4277752902315 L 920 339.0690355966654 L 940 345.0613837995613 L 960 331.62765625946054 L 980 331.93051769536925 L 1000 347.3126191607594 L 1020 347.98738202793965 L 1040 326.81327731545935 L 1060 326.0753238252402 L 1080 333.4086170221113 L 1100 352.200400197404 L 1120 346.25661548399916 L 1140 346.7867862189538 L 1160 345.61103090300855 L 1180 329.90275379562155 L 1200 333.13927174543755 L 1200 630 Z" fill="#98c1d9" opacity="0.85"></path><path d="M 0 630 L 0 270 L 0 249.14842628412177 L 20 250.19862128811056 L 40 248.16767538462662 L 60 244.45443952226233 L 80 241.75785097908516 L 100 243.60338716416638 L 120 248.81594938815 L 140 250.1326749724521 L 160 245.29576641527137 L 180 240.1584777940642 L 200 242.95151491673928 L 220 256.5987364205971 L 240 275.3090681491891 L 260 289.7364742529535 L 280 291.4620831492084 L 300 278.4718805484614 L 320 260.8548193189137 L 340 252.2072477309386 L 360 257.379256105509 L 380 270.38127368720245 L 400 282.8030998935072 L 420 285.05801674113513 L 440 275.5307866636637 L 460 263.4526241434488 L 480 258.35435384665226 L 500 261.10970533375246 L 520 264.8377263796515 L 540 265.01606046826794 L 560 261.3089829492507 L 580 255.94274447019143 L 600 250.94394439013178 L 620 246.70221798644855 L 640 244.72656585515773 L 660 247.23432496739443 L 680 252.21919468744937 L 700 252.82025745302218 L 720 247.62087150927846 L 740 242.98045213384745 L 760 246.3672846886991 L 780 260.13952018737217 L 800 278.79652818770904 L 820 293.07383229770227 L 840 295.79565813345596 L 860 286.4222495268691 L 880 274.89817392138383 L 900 273.2416345052685 L 920 283.4526217502487 L 940 296.6941144084524 L 960 304.0007814414836 L 980 299.3892119899124 L 1000 285.55408402307853 L 1020 273.6485891194673 L 1040 273.48363885657426 L 1060 282.362846921245 L 1080 288.6651283840471 L 1100 286.27082097905964 L 1120 276.50647139127454 L 1140 265.13620873238375 L 1160 256.88444515773733 L 1180 251.86526911983722 L 1200 249.8204088508552 L 1200 630 Z" fill="#3d5a80" opacity="0.85"></path><path d="M 0 630 L 0 198 L 0 192.78688064384318 L 20 169.27247522690385 L 40 195.17811382841114 L 60 235.91491852478086 L 80 232.32030499982523 L 100 203.9092046625802 L 120 185.3121606338879 L 140 190.7829406328416 L 160 202.90380042147672 L 180 213.02084933130922 L 200 223.86998495877629 L 220 215.91731131877822 L 240 186.57318572283873 L 260 170.48143479640245 L 280 171.0877084788464 L 300 183.45538589124797 L 320 214.91082270752892 L 340 235.68656338632348 L 360 220.75750034826095 L 380 210.56669948273716 L 400 221.79679751974192 L 420 223.22856343387312 L 440 221.1225005367372 L 460 223.0809527571645 L 480 216.25736388540906 L 500 205.1928964543907 L 520 204.66436220877972 L 540 211.18940104324707 L 560 212.75693277372582 L 580 205.49057925845403 L 600 183.3516040303175 L 620 173.99191354437832 L 640 197.67476820802543 L 660 221.81466809227035 L 680 211.89983819077025 L 700 192.58298199480132 L 720 205.27006178173266 L 740 229.39953452226035 L 760 243.612151537626 L 780 236.91359442278366 L 800 213.57199889693055 L 820 201.29945933304424 L 840 222.99611493816062 L 860 226.0232112152693 L 880 194.3783502900977 L 900 170.9467464971827 L 920 175.94497658487472 L 940 195.2351922058639 L 960 223.62124570445678 L 980 241.0580168938374 L 1000 226.8057416711446 L 1020 195.1585278729176 L 1040 176.51721820920784 L 1060 175.68420740183876 L 1080 184.75154697923503 L 1100 208.74013943629308 L 1120 236.33756314753313 L 1140 238.97214563514308 L 1160 234.41879871020768 L 1180 229.23284701279886 L 1200 199.5669354812121 L 1200 630 Z" fill="#2d3436" opacity="0.85"></path><path d="M 0 630 L 0 126 L 0 120.81731658911129 L 20 120.40900692890676 L 40 131.07095090157014 L 60 127.15441007455016 L 80 126.37701151898543 L 100 139.81204894711024 L 120 138.18629557957775 L 140 125.77096713530301 L 160 112.69324708055429 L 180 110.18723162313223 L 200 125.92605782220652 L 220 134.24520440260483 L 240 119.37632239521115 L 260 118.38463489705121 L 280 133.10228535588007 L 300 134.49664659590016 L 320 123.67051155612839 L 340 125.58365890532541 L 360 132.65507530721223 L 380 136.86699020365143 L 400 127.89368818208784 L 420 117.04127294963399 L 440 120.31691795188358 L 460 125.28220200532103 L 480 125.16731851309666 L 500 125.53728246500128 L 520 128.41232530510365 L 540 124.40005101410425 L 560 110.43300144388554 L 580 106.82856797758598 L 600 114.1307984789714 L 620 121.06666404758293 L 640 129.95653540750615 L 660 124.90054702977127 L 680 114.80546055982813 L 700 115.01191969914738 L 720 125.658393540289 L 740 141.09846918985093 L 760 135.77695028894163 L 780 118.59867608376759 L 800 120.72037252895205 L 820 140.1453705286319 L 840 140.63025737235978 L 860 132.63439232164748 L 880 137.52483949978392 L 900 134.27483712960105 L 920 124.22845152906898 L 940 127.00696859461777 L 960 133.32793174064574 L 980 134.94816117657723 L 1000 129.9374631767262 L 1020 116.74693759645938 L 1040 116.5672154915039 L 1060 132.46850053017525 L 1080 139.1587100085427 L 1100 133.3851772734325 L 1120 136.37224967166173 L 1140 138.24413043189173 L 1160 119.72686503974091 L 1180 110.03124856301675 L 1200 119.80381500980656 L 1200 630 Z" fill="#1a1a3a" opacity="0.85"></path><rect width="1200" height="270.4" x="0" y="299.6" fill="rgba(0,0,0,0.4)"></rect><text font-family="system-ui, -apple-system, sans-serif" font-size="64" font-weight="700" text-anchor="middle" fill="rgba(0,0,0,0.5)" x="602" y="397.628125"><tspan dy="0" x="602">Linternas LED Recargables</tspan></text><text font-family="system-ui, -apple-system, sans-serif" font-size="64" font-weight="700" text-anchor="middle" fill="#ffffff" x="600" y="395.628125"><tspan dy="0" x="600">Linternas LED Recargables</tspan></text><text font-family="system-ui, -apple-system, sans-serif" font-size="64" font-weight="700" text-anchor="middle" fill="rgba(0,0,0,0.5)" x="602" y="474.428125"><tspan dy="0" x="602">Esenciales para los Apagones</tspan></text><text font-family="system-ui, -apple-system, sans-serif" font-size="64" font-weight="700" text-anchor="middle" fill="#ffffff" x="600" y="472.428125"><tspan dy="0" x="600">Esenciales para los Apagones</tspan></text><text font-family="system-ui, -apple-system, sans-serif" font-size="64" font-weight="700" text-anchor="middle" fill="rgba(0,0,0,0.5)" x="602" y="551.2281250000001"><tspan dy="0" x="602">de Cuba</tspan></text><text font-family="system-ui, -apple-system, sans-serif" font-size="64" font-weight="700" text-anchor="middle" fill="#ffffff" x="600" y="549.2281250000001"><tspan dy="0" x="600">de Cuba</tspan></text><text font-family="system-ui, -apple-system, sans-serif" font-size="18" font-weight="500" fill="#ffffff" opacity="0.6" x="1070" y="614.2392578125"><tspan dy="0" x="1070">veguitas.com</tspan></text></svg>