<svg xmlns="http://www.w3.org/2000/svg" version="1.1" xmlns:xlink="http://www.w3.org/1999/xlink" width="1200" height="630" viewBox="0 0 1200 630"><rect width="1200" height="630" fill="#ffd1dc"></rect><path d="M 0 630 L 0 529.2 L 0 536.1615091589578 L 20 558.6650478929765 L 40 556.5236350980454 L 60 548.0372343451329 L 80 552.7159344352207 L 100 556.4302405877768 L 120 550.8725130056453 L 140 544.4440588102282 L 160 539.0078951613343 L 180 536.9918647498725 L 200 537.1784314309512 L 220 528.0447004833946 L 240 513.6427667364512 L 260 516.8283272711367 L 280 537.4850771988689 L 300 550.2923387872759 L 320 557.4707965363774 L 340 561.9376212108637 L 360 549.1966947486106 L 380 517.7996149796977 L 400 498.08683824833247 L 420 510.53307578078267 L 440 539.915821356229 L 460 557.3288061002595 L 480 559.8732420097514 L 500 547.4643523927369 L 520 530.8092587303236 L 540 534.8592078037115 L 560 550.7069173931185 L 580 552.5148069294806 L 600 552.0166405824614 L 620 555.0165135139944 L 640 541.682188793637 L 660 515.6079141092827 L 680 506.39757157220157 L 700 530.4350688330638 L 720 550.6775529437533 L 740 534.1772511744961 L 760 503.0599769614435 L 780 491.05743092043787 L 800 512.6772349520813 L 820 540.5842215522906 L 840 539.8149506931667 L 860 522.2325344266566 L 880 507.34381121888094 L 900 502.04786518096046 L 920 503.35297227891886 L 940 511.46639288925843 L 960 519.5341599629284 L 980 504.951808112406 L 1000 487.86254272495813 L 1020 499.853108321205 L 1040 530.0534418852191 L 1060 543.8363193326052 L 1080 522.0344866099629 L 1100 502.5395527093002 L 1120 517.4066069536499 L 1140 545.8559795737484 L 1160 557.3107671709436 L 1180 543.7461131473208 L 1200 530.3625115054177 L 1200 630 Z" fill="#ffd1dc" opacity="0.85"></path><path d="M 0 630 L 0 428.4 L 0 412.80690504675306 L 20 434.4748840956933 L 40 447.3176347489242 L 60 449.8390016407799 L 80 441.8437398331405 L 100 436.8845006729911 L 120 446.52075735523505 L 140 453.9083751416894 L 160 445.89052067713874 L 180 435.55453863138234 L 200 436.65145199675885 L 220 439.5512989970605 L 240 438.0274652005036 L 260 429.1867205635165 L 280 412.728632745928 L 300 409.79645273850093 L 320 427.85242098138247 L 340 447.00228571918495 L 360 448.113064693457 L 380 436.1045528074192 L 400 435.7641471089855 L 420 445.1212395936049 L 440 444.10435491487976 L 460 435.95439263035405 L 480 444.8497150323829 L 500 459.68689211243424 L 520 455.0516540612284 L 540 437.18948158521204 L 560 427.3072415387604 L 580 426.30668844270036 L 600 426.47950015112474 L 620 428.61590168649195 L 640 433.9007053704201 L 660 428.2776188225104 L 680 407.8778239791511 L 700 393.18533571999103 L 720 398.43701237651965 L 740 417.9545731056401 L 760 435.9876096611181 L 780 446.5655604452315 L 800 435.414225798519 L 820 414.9822131600881 L 840 417.07180394081854 L 860 437.138160568556 L 880 449.21058445471755 L 900 455.19343077770577 L 920 458.3546955236585 L 940 446.56513463609355 L 960 420.9565739828591 L 980 408.55162155661554 L 1000 420.7378447595179 L 1020 440.32881213148767 L 1040 450.63866274043073 L 1060 450.8616318406252 L 1080 447.2954948468139 L 1100 448.9197196083338 L 1120 451.53810660574703 L 1140 443.98955498955416 L 1160 440.4283362674426 L 1180 448.8411903463595 L 1200 444.0446446070255 L 1200 630 Z" fill="#dfe6e9" opacity="0.85"></path><path d="M 0 630 L 0 327.59999999999997 L 0 301.49648919923965 L 20 300.1324767792146 L 40 328.28729997654364 L 60 342.1430641275595 L 80 348.9354813272462 L 100 341.5218179432532 L 120 346.19595656354636 L 140 342.03827933042453 L 160 312.28815537629947 L 180 320.5459256268223 L 200 347.89349697945545 L 220 340.6419426596711 L 240 347.66353533310325 L 260 333.18637817846206 L 280 315.3761268500065 L 300 329.6832610941036 L 320 315.613645019732 L 340 329.1265037770535 L 360 346.3672465702596 L 380 342.62874830734523 L 400 312.5652036123933 L 420 311.2194687442898 L 440 345.0355595159756 L 460 345.1380683201715 L 480 319.18183868003246 L 500 306.2807353974041 L 520 325.9472674965652 L 540 333.48731769596264 L 560 302.89490306979206 L 580 303.77064424719606 L 600 315.373548229658 L 620 343.71082925669003 L 640 320.549730435285 L 660 302.86206894739445 L 680 330.5671240023327 L 700 334.4648644372252 L 720 317.4157518905751 L 740 340.080369280611 L 760 328.05147710156785 L 780 303.1788038638044 L 800 300.0929023804384 L 820 309.24697971662755 L 840 330.0338320817272 L 860 323.75378273989895 L 880 334.11430904437924 L 900 306.3254250294448 L 920 310.53029536850426 L 940 326.9658448516091 L 960 307.952704932788 L 980 336.4232944360049 L 1000 339.17002514014945 L 1020 315.126870662981 L 1040 337.03366605488196 L 1060 340.3325792419626 L 1080 325.9037543597469 L 1100 325.1280808803757 L 1120 340.97632013857714 L 1140 341.49763887556355 L 1160 315.33141039432553 L 1180 306.59617886145344 L 1200 338.1455428864971 L 1200 630 Z" fill="#ffeaa7" opacity="0.85"></path><path d="M 0 630 L 0 226.79999999999995 L 0 214.09833181358385 L 20 204.3698701945813 L 40 199.8632268267862 L 60 197.29314544758685 L 80 196.3034071842923 L 100 199.87434739017783 L 120 212.3973999546243 L 140 232.47064119826894 L 160 251.1108265009252 L 180 260.19531697493073 L 200 261.36700095417274 L 220 261.74350978396404 L 240 264.6516147732043 L 260 267.76244060191834 L 280 264.49850682102067 L 300 252.4161541969185 L 320 235.79644445766658 L 340 220.80211354742502 L 360 213.78258709545264 L 380 215.83963387460784 L 400 221.52217649873202 L 420 224.77877865764404 L 440 224.20376433966103 L 460 221.9493562947205 L 480 222.91377101739536 L 500 230.10631950557962 L 520 240.79174191728288 L 540 248.5060596822042 L 560 251.0780269617979 L 580 249.40273750719368 L 600 243.4315050946232 L 620 230.14444828691435 L 640 210.6886951779324 L 660 193.5786146632041 L 680 187.8967451067346 L 700 196.47512085394777 L 720 214.84579002967592 L 740 234.17941477669225 L 760 246.1543035157876 L 780 249.29717251920644 L 800 248.7074657302545 L 820 250.33400994603923 L 840 255.5319443511267 L 860 259.22118542004625 L 880 256.89121818484557 L 900 247.15273049655448 L 920 232.87664410868697 L 940 221.03799142222334 L 960 218.36357259427783 L 980 225.38096476841505 L 1000 235.1483110057473 L 1020 240.47539054724444 L 1040 242.37684227528624 L 1060 244.79972405511342 L 1080 247.09326040930006 L 1100 244.226057184017 L 1120 231.35131226657762 L 1140 211.61164631268753 L 1160 194.20376983477115 L 1180 188.2473296700088 L 1200 201.20606605814925 L 1200 630 Z" fill="#b5ead7" opacity="0.85"></path><path d="M 0 630 L 0 126 L 0 104.0495883703741 L 20 114.11606932709446 L 40 132.55965936104414 L 60 146.04378758301178 L 80 146.5886981828333 L 100 140.32313768684685 L 120 138.57975045333956 L 140 142.31301322832792 L 160 143.13591432385047 L 180 139.08636313755537 L 200 131.04812730466602 L 220 122.1752420195405 L 240 118.9876880049681 L 260 123.4155745060157 L 280 129.7546105376847 L 300 129.73660313786837 L 320 120.66950497738877 L 340 108.66039455716091 L 360 103.4111130196879 L 380 106.19308900531114 L 400 113.5494171601398 L 420 121.83982916769247 L 440 127.43745070272682 L 460 129.52879851607506 L 480 130.18442415175386 L 500 129.7475079337497 L 520 129.71058896143813 L 540 135.09733961165225 L 560 141.65062179756598 L 580 139.80434529423434 L 600 127.68499437199708 L 620 113.63595168899138 L 640 106.38364815202084 L 660 105.30141446186502 L 680 102.14767621315754 L 700 98.1916025328149 L 720 102.9651233173436 L 740 116.14233183778015 L 760 130.4768111942203 L 780 140.85257844187512 L 800 146.6286174895282 L 820 146.81367265795728 L 840 141.54409418367834 L 860 134.3794589943974 L 880 129.77377344998413 L 900 129.3356865219363 L 920 130.3766109964004 L 940 130.4452732118305 L 960 129.42457568297925 L 980 129.50026249608993 L 1000 133.88972881850276 L 1020 141.31363117936706 L 1040 147.38710452585488 L 1060 148.14993403146673 L 1080 142.85223109273196 L 1100 132.13142615564828 L 1120 120.2971263118726 L 1140 113.79241266563562 L 1160 113.58610512764572 L 1180 117.64183800850368 L 1200 120.30484156250647 L 1200 630 Z" fill="#c7ceea" opacity="0.85"></path><rect width="1200" height="270.4" x="0" y="299.6" fill="rgba(255,255,255,0.4)"></rect><text font-family="system-ui, -apple-system, sans-serif" font-size="64" font-weight="700" text-anchor="middle" fill="rgba(255,255,255,0.5)" x="602" y="397.628125"><tspan dy="0" x="602">Linternas LED Recargables</tspan></text><text font-family="system-ui, -apple-system, sans-serif" font-size="64" font-weight="700" text-anchor="middle" fill="#1a1a1a" x="600" y="395.628125"><tspan dy="0" x="600">Linternas LED Recargables</tspan></text><text font-family="system-ui, -apple-system, sans-serif" font-size="64" font-weight="700" text-anchor="middle" fill="rgba(255,255,255,0.5)" x="602" y="474.428125"><tspan dy="0" x="602">Esenciales para los Apagones</tspan></text><text font-family="system-ui, -apple-system, sans-serif" font-size="64" font-weight="700" text-anchor="middle" fill="#1a1a1a" x="600" y="472.428125"><tspan dy="0" x="600">Esenciales para los Apagones</tspan></text><text font-family="system-ui, -apple-system, sans-serif" font-size="64" font-weight="700" text-anchor="middle" fill="rgba(255,255,255,0.5)" x="602" y="551.2281250000001"><tspan dy="0" x="602">de Cuba</tspan></text><text font-family="system-ui, -apple-system, sans-serif" font-size="64" font-weight="700" text-anchor="middle" fill="#1a1a1a" x="600" y="549.2281250000001"><tspan dy="0" x="600">de Cuba</tspan></text><text font-family="system-ui, -apple-system, sans-serif" font-size="18" font-weight="500" fill="#1a1a1a" opacity="0.6" x="1070" y="614.2392578125"><tspan dy="0" x="1070">veguitas.com</tspan></text></svg>