<svg xmlns="http://www.w3.org/2000/svg" version="1.1" xmlns:xlink="http://www.w3.org/1999/xlink" width="1200" height="630" viewBox="0 0 1200 630"><defs><linearGradient x1="0" y1="0" x2="0.7756680876370176" y2="0.7203674513064969" id="SvgjsLinearGradient1192"><stop stop-color="#ff9ff3" offset="0"></stop><stop stop-color="#feca57" offset="0.5"></stop><stop stop-color="#ff6b6b" offset="1"></stop></linearGradient></defs><rect width="1200" height="630" fill="url(#SvgjsLinearGradient1192)"></rect><circle r="2.467698754931317" cx="560" cy="16" fill="#000000" opacity="0.11759710200796533"></circle><circle r="2.1072150628557518" cx="880" cy="16" fill="#000000" opacity="0.11081100355511328"></circle><circle r="2.894981402329879" cx="112" cy="24" fill="#000000" opacity="0.0842916721198907"></circle><circle r="1.7279396086478278" cx="232" cy="24" fill="#000000" opacity="0.053146727306356716"></circle><circle r="2.1663138386471905" cx="168" cy="32" fill="#000000" opacity="0.11907900141705027"></circle><circle r="1.914178915492481" cx="824" cy="40" fill="#000000" opacity="0.0634583723178971"></circle><circle r="1.9488206285352934" cx="936" cy="48" fill="#000000" opacity="0.0639962310467986"></circle><circle r="1.9356584528280236" cx="976" cy="72" fill="#000000" opacity="0.08795583924903307"></circle><circle r="1.4791066352575926" cx="384" cy="112" fill="#000000" opacity="0.05519116926400214"></circle><circle r="1.6653912123713224" cx="600" cy="112" fill="#000000" opacity="0.14284883501235351"></circle><circle r="2.2561290177287576" cx="840" cy="112" fill="#000000" opacity="0.1371770852301374"></circle><circle r="2.423630680727014" cx="904" cy="120" fill="#000000" opacity="0.06400318142492634"></circle><circle r="1.4114585618553612" cx="784" cy="152" fill="#000000" opacity="0.09880016352522952"></circle><circle r="1.6481630902760749" cx="872" cy="160" fill="#000000" opacity="0.1404099673243332"></circle><circle r="1.583906959109488" cx="440" cy="168" fill="#000000" opacity="0.0778847680748416"></circle><circle r="1.827200349328502" cx="152" cy="184" fill="#000000" opacity="0.06330859009613996"></circle><circle r="1.3715488091186956" cx="896" cy="184" fill="#000000" opacity="0.12209872588279957"></circle><circle r="1.0411890430914732" cx="40" cy="192" fill="#000000" opacity="0.11940264137848132"></circle><circle r="1.3587452133732825" cx="384" cy="200" fill="#000000" opacity="0.057807801937970076"></circle><circle r="2.8610190440718166" cx="440" cy="208" fill="#000000" opacity="0.10480271150028911"></circle><circle r="1.4061811875851857" cx="848" cy="216" fill="#000000" opacity="0.09930898215203524"></circle><circle r="1.5259959435121928" cx="248" cy="224" fill="#000000" opacity="0.12213813399941265"></circle><circle r="2.6905302406022393" cx="328" cy="240" fill="#000000" opacity="0.08481993461467145"></circle><circle r="1.6491876587738141" cx="696" cy="240" fill="#000000" opacity="0.07105153370764572"></circle><circle r="2.38800629587514" cx="144" cy="256" fill="#000000" opacity="0.14984353154735514"></circle><circle r="2.612810337621676" cx="576" cy="288" fill="#000000" opacity="0.1221522992436923"></circle><circle r="2.226991729799004" cx="880" cy="296" fill="#000000" opacity="0.1410998916024535"></circle><circle r="1.9248059244826492" cx="288" cy="320" fill="#000000" opacity="0.08014316641888207"></circle><circle r="1.2268551162965433" cx="888" cy="328" fill="#000000" opacity="0.071427431653261"></circle><circle r="1.6793549239210503" cx="712" cy="336" fill="#000000" opacity="0.07983265685769017"></circle><circle r="2.232726482634237" cx="120" cy="392" fill="#000000" opacity="0.05554313090929512"></circle><circle r="2.7946230894939292" cx="1152" cy="392" fill="#000000" opacity="0.13761493317467"></circle><circle r="2.0672328699061575" cx="560" cy="400" fill="#000000" opacity="0.12786621348439892"></circle><circle r="1.9913203893209566" cx="88" cy="424" fill="#000000" opacity="0.06693161576108152"></circle><circle r="1.7257347251988708" cx="784" cy="448" fill="#000000" opacity="0.12454919317335732"></circle><circle r="1.8177181922439516" cx="0" cy="464" fill="#000000" opacity="0.08348903604821063"></circle><circle r="2.2327272025545057" cx="248" cy="472" fill="#000000" opacity="0.13073640406582537"></circle><circle r="2.0691212324178334" cx="1112" cy="512" fill="#000000" opacity="0.05910825294459232"></circle><circle r="1.277904598971886" cx="1192" cy="536" fill="#000000" opacity="0.06104565414945033"></circle><circle r="1.740036795913893" cx="176" cy="544" fill="#000000" opacity="0.09116171971643448"></circle><circle r="2.7990316274433713" cx="1056" cy="544" fill="#000000" opacity="0.06071748825906859"></circle><circle r="1.6698335539443168" cx="368" cy="568" fill="#000000" opacity="0.10116489950387689"></circle><circle r="1.9201810326961566" cx="448" cy="568" fill="#000000" opacity="0.12360395641638673"></circle><circle r="1.8230488098133637" cx="896" cy="592" fill="#000000" opacity="0.07684475830743911"></circle><circle r="1.6027642024591908" cx="392" cy="600" fill="#000000" opacity="0.14060815826444462"></circle><circle r="1.254407144995008" cx="720" cy="616" fill="#000000" opacity="0.06841947285581898"></circle><rect width="1200" height="270.4" x="0" y="299.6" fill="rgba(255,255,255,0.4)"></rect><text font-family="system-ui, -apple-system, sans-serif" font-size="64" font-weight="700" text-anchor="middle" fill="rgba(255,255,255,0.5)" x="602" y="397.628125"><tspan dy="0" x="602">Solar Panel Kits vs Power</tspan></text><text font-family="system-ui, -apple-system, sans-serif" font-size="64" font-weight="700" text-anchor="middle" fill="#1a1a1a" x="600" y="395.628125"><tspan dy="0" x="600">Solar Panel Kits vs Power</tspan></text><text font-family="system-ui, -apple-system, sans-serif" font-size="64" font-weight="700" text-anchor="middle" fill="rgba(255,255,255,0.5)" x="602" y="474.428125"><tspan dy="0" x="602">Stations: Which to Send to</tspan></text><text font-family="system-ui, -apple-system, sans-serif" font-size="64" font-weight="700" text-anchor="middle" fill="#1a1a1a" x="600" y="472.428125"><tspan dy="0" x="600">Stations: Which to Send to</tspan></text><text font-family="system-ui, -apple-system, sans-serif" font-size="64" font-weight="700" text-anchor="middle" fill="rgba(255,255,255,0.5)" x="602" y="551.2281250000001"><tspan dy="0" x="602">Cuba?</tspan></text><text font-family="system-ui, -apple-system, sans-serif" font-size="64" font-weight="700" text-anchor="middle" fill="#1a1a1a" x="600" y="549.2281250000001"><tspan dy="0" x="600">Cuba?</tspan></text><text font-family="system-ui, -apple-system, sans-serif" font-size="18" font-weight="500" fill="#1a1a1a" opacity="0.6" x="1070" y="614.2392578125"><tspan dy="0" x="1070">veguitas.com</tspan></text></svg>