<svg xmlns="http://www.w3.org/2000/svg" version="1.1" xmlns:xlink="http://www.w3.org/1999/xlink" width="1200" height="630" viewBox="0 0 1200 630"><rect width="1200" height="630" fill="#0f0c29"></rect><line x1="760.1903398832793" y1="505.5383667162818" x2="878.6980152345238" y2="421.5471631768399" stroke-opacity="0.09355346595531816" stroke-width="1" stroke="#00d9ff"></line><line x1="760.1903398832793" y1="505.5383667162818" x2="755.2751280569473" y2="576.1770618951266" stroke-opacity="0.3018618105818499" stroke-width="1" stroke="#00d9ff"></line><line x1="760.1903398832793" y1="505.5383667162818" x2="717.1587157172443" y2="349.71468373293914" stroke-opacity="0.04765564522669313" stroke-width="1" stroke="#00d9ff"></line><line x1="760.1903398832793" y1="505.5383667162818" x2="773.6115680616493" y2="483.21482828932744" stroke-opacity="0.4271143664552105" stroke-width="1" stroke="#00d9ff"></line><line x1="76.25288643842299" y1="155.14282368630782" x2="63.44305110703058" y2="243.5921236052024" stroke-opacity="0.2499202020434581" stroke-width="1" stroke="#00d9ff"></line><line x1="76.25288643842299" y1="155.14282368630782" x2="36.31692175673539" y2="153.9259680711418" stroke-opacity="0.3881998500242021" stroke-width="1" stroke="#00d9ff"></line><line x1="76.25288643842299" y1="155.14282368630782" x2="145.8105201600688" y2="187.16562528462777" stroke-opacity="0.285728967417214" stroke-width="1" stroke="#00d9ff"></line><line x1="76.25288643842299" y1="155.14282368630782" x2="122.88904651616775" y2="298.6481165342894" stroke-opacity="0.07777318034864517" stroke-width="1" stroke="#00d9ff"></line><line x1="880.3351495324742" y1="332.20877365429794" x2="878.6980152345238" y2="421.5471631768399" stroke-opacity="0.24997253314097273" stroke-width="1" stroke="#00d9ff"></line><line x1="880.3351495324742" y1="332.20877365429794" x2="871.610783823807" y2="308.6611764391276" stroke-opacity="0.42973241671565576" stroke-width="1" stroke="#00d9ff"></line><line x1="880.3351495324742" y1="332.20877365429794" x2="891.9240637189893" y2="370.60356183011265" stroke-opacity="0.3877769185068612" stroke-width="1" stroke="#00d9ff"></line><line x1="880.3351495324742" y1="332.20877365429794" x2="717.1587157172443" y2="349.71468373293914" stroke-opacity="0.04078178808204769" stroke-width="1" stroke="#00d9ff"></line><line x1="504.49981268821165" y1="180.87521201153788" x2="494.2116535384782" y2="83.18603084303514" stroke-opacity="0.22513569157174335" stroke-width="1" stroke="#00d9ff"></line><line x1="504.49981268821165" y1="180.87521201153788" x2="651.4616928034918" y2="100.80128457340005" stroke-opacity="0.03169330697132028" stroke-width="1" stroke="#00d9ff"></line><line x1="504.49981268821165" y1="180.87521201153788" x2="557.5531645454884" y2="149.74018678024888" stroke-opacity="0.32787061832194253" stroke-width="1" stroke="#00d9ff"></line><line x1="504.49981268821165" y1="180.87521201153788" x2="596.362272291679" y2="162.1165614565783" stroke-opacity="0.2376470723105374" stroke-width="1" stroke="#00d9ff"></line><line x1="504.49981268821165" y1="180.87521201153788" x2="588.7927062392291" y2="151.17825479174087" stroke-opacity="0.2499228534322962" stroke-width="1" stroke="#00d9ff"></line><line x1="504.49981268821165" y1="180.87521201153788" x2="384.79691879641786" y2="237.09820057134326" stroke-opacity="0.12994250435384852" stroke-width="1" stroke="#00d9ff"></line><line x1="63.44305110703058" y1="243.5921236052024" x2="4.002965918496833" y2="358.0450095163184" stroke-opacity="0.1391251691259835" stroke-width="1" stroke="#00d9ff"></line><line x1="63.44305110703058" y1="243.5921236052024" x2="36.31692175673539" y2="153.9259680711418" stroke-opacity="0.23786730107104848" stroke-width="1" stroke="#00d9ff"></line><line x1="63.44305110703058" y1="243.5921236052024" x2="94.92602254800397" y2="366.50058609897286" stroke-opacity="0.14497562454904311" stroke-width="1" stroke="#00d9ff"></line><line x1="63.44305110703058" y1="243.5921236052024" x2="145.8105201600688" y2="187.16562528462777" stroke-opacity="0.22062449487018193" stroke-width="1" stroke="#00d9ff"></line><line x1="63.44305110703058" y1="243.5921236052024" x2="122.88904651616775" y2="298.6481165342894" stroke-opacity="0.2732779884269174" stroke-width="1" stroke="#00d9ff"></line><line x1="878.6980152345238" y1="421.5471631768399" x2="871.610783823807" y2="308.6611764391276" stroke-opacity="0.18350201189002163" stroke-width="1" stroke="#00d9ff"></line><line x1="878.6980152345238" y1="421.5471631768399" x2="891.9240637189893" y2="370.60356183011265" stroke-opacity="0.35272446790783935" stroke-width="1" stroke="#00d9ff"></line><line x1="878.6980152345238" y1="421.5471631768399" x2="717.1587157172443" y2="349.71468373293914" stroke-opacity="0.005307408992254459" stroke-width="1" stroke="#00d9ff"></line><line x1="878.6980152345238" y1="421.5471631768399" x2="773.6115680616493" y2="483.21482828932744" stroke-opacity="0.15905656437377835" stroke-width="1" stroke="#00d9ff"></line><line x1="494.2116535384782" y1="83.18603084303514" x2="651.4616928034918" y2="100.80128457340005" stroke-opacity="0.05723284047511723" stroke-width="1" stroke="#00d9ff"></line><line x1="494.2116535384782" y1="83.18603084303514" x2="557.5531645454884" y2="149.74018678024888" stroke-opacity="0.24290765372527046" stroke-width="1" stroke="#00d9ff"></line><line x1="494.2116535384782" y1="83.18603084303514" x2="596.362272291679" y2="162.1165614565783" stroke-opacity="0.13877611886552932" stroke-width="1" stroke="#00d9ff"></line><line x1="494.2116535384782" y1="83.18603084303514" x2="588.7927062392291" y2="151.17825479174087" stroke-opacity="0.1740560666483914" stroke-width="1" stroke="#00d9ff"></line><line x1="147.74623683590366" y1="593.589397359179" x2="125.96315739787468" y2="551.9663949415716" stroke-opacity="0.3685454612663868" stroke-width="1" stroke="#00d9ff"></line><line x1="147.74623683590366" y1="593.589397359179" x2="2.227964412195995" y2="520.798041081099" stroke-opacity="0.044710431981982934" stroke-width="1" stroke="#00d9ff"></line><line x1="147.74623683590366" y1="593.589397359179" x2="278.13636450494295" y2="568.4249017776173" stroke-opacity="0.1284113659545742" stroke-width="1" stroke="#00d9ff"></line><line x1="147.74623683590366" y1="593.589397359179" x2="148.4044407902049" y2="579.8601238742319" stroke-opacity="0.4615388054381287" stroke-width="1" stroke="#00d9ff"></line><line x1="1016.7436890262593" y1="97.29393520224885" x2="1139.7963188095175" y2="18.83689251386363" stroke-opacity="0.09164246712626362" stroke-width="1" stroke="#00d9ff"></line><line x1="1016.7436890262593" y1="97.29393520224885" x2="1113.7275633858885" y2="31.6795553813793" stroke-opacity="0.1723477613932171" stroke-width="1" stroke="#00d9ff"></line><line x1="425.18129396532447" y1="448.44827570572005" x2="508.48471484583183" y2="418.99101880881057" stroke-opacity="0.2527569651706617" stroke-width="1" stroke="#00d9ff"></line><line x1="425.18129396532447" y1="448.44827570572005" x2="407.4427553699483" y2="387.77106369041917" stroke-opacity="0.32310723440347866" stroke-width="1" stroke="#00d9ff"></line><line x1="425.18129396532447" y1="448.44827570572005" x2="328.66745925019194" y2="370.984099787266" stroke-opacity="0.15370679601308618" stroke-width="1" stroke="#00d9ff"></line><line x1="425.18129396532447" y1="448.44827570572005" x2="424.51334680737006" y2="577.9716332678016" stroke-opacity="0.13756463945205755" stroke-width="1" stroke="#00d9ff"></line><line x1="755.2751280569473" y1="576.1770618951266" x2="773.6115680616493" y2="483.21482828932744" stroke-opacity="0.23486236520084947" stroke-width="1" stroke="#00d9ff"></line><line x1="4.002965918496833" y1="358.0450095163184" x2="94.92602254800397" y2="366.50058609897286" stroke-opacity="0.24448250899196178" stroke-width="1" stroke="#00d9ff"></line><line x1="4.002965918496833" y1="358.0450095163184" x2="2.227964412195995" y2="520.798041081099" stroke-opacity="0.04455954229473175" stroke-width="1" stroke="#00d9ff"></line><line x1="4.002965918496833" y1="358.0450095163184" x2="122.88904651616775" y2="298.6481165342894" stroke-opacity="0.12812644580194532" stroke-width="1" stroke="#00d9ff"></line><line x1="871.610783823807" y1="308.6611764391276" x2="891.9240637189893" y2="370.60356183011265" stroke-opacity="0.3175915217288545" stroke-width="1" stroke="#00d9ff"></line><line x1="871.610783823807" y1="308.6611764391276" x2="717.1587157172443" y2="349.71468373293914" stroke-opacity="0.05280780778715083" stroke-width="1" stroke="#00d9ff"></line><line x1="125.96315739787468" y1="551.9663949415716" x2="2.227964412195995" y2="520.798041081099" stroke-opacity="0.1429502290914973" stroke-width="1" stroke="#00d9ff"></line><line x1="125.96315739787468" y1="551.9663949415716" x2="278.13636450494295" y2="568.4249017776173" stroke-opacity="0.07170767502617614" stroke-width="1" stroke="#00d9ff"></line><line x1="125.96315739787468" y1="551.9663949415716" x2="148.4044407902049" y2="579.8601238742319" stroke-opacity="0.3998236910350777" stroke-width="1" stroke="#00d9ff"></line><line x1="313.5885827838858" y1="263.1771899699932" x2="243.10377252276382" y2="225.86610300493524" stroke-opacity="0.2768417448354811" stroke-width="1" stroke="#00d9ff"></line><line x1="313.5885827838858" y1="263.1771899699932" x2="318.8491076295664" y2="263.81505781928655" stroke-opacity="0.48517225110658346" stroke-width="1" stroke="#00d9ff"></line><line x1="313.5885827838858" y1="263.1771899699932" x2="407.4427553699483" y2="387.77106369041917" stroke-opacity="0.06351660027861689" stroke-width="1" stroke="#00d9ff"></line><line x1="313.5885827838858" y1="263.1771899699932" x2="304.27957653067494" y2="266.70505312010863" stroke-opacity="0.4721438555620141" stroke-width="1" stroke="#00d9ff"></line><line x1="313.5885827838858" y1="263.1771899699932" x2="328.66745925019194" y2="370.984099787266" stroke-opacity="0.19539963878187272" stroke-width="1" stroke="#00d9ff"></line><line x1="313.5885827838858" y1="263.1771899699932" x2="384.79691879641786" y2="237.09820057134326" stroke-opacity="0.2878033170815253" stroke-width="1" stroke="#00d9ff"></line><line x1="891.9240637189893" y1="370.60356183011265" x2="717.1587157172443" y2="349.71468373293914" stroke-opacity="0.007493123797379431" stroke-width="1" stroke="#00d9ff"></line><line x1="891.9240637189893" y1="370.60356183011265" x2="773.6115680616493" y2="483.21482828932744" stroke-opacity="0.04295113049878502" stroke-width="1" stroke="#00d9ff"></line><line x1="651.4616928034918" y1="100.80128457340005" x2="803.8991577683157" y2="96.22906926516161" stroke-opacity="0.07325967985873033" stroke-width="1" stroke="#00d9ff"></line><line x1="651.4616928034918" y1="100.80128457340005" x2="557.5531645454884" y2="149.74018678024888" stroke-opacity="0.20368500072396356" stroke-width="1" stroke="#00d9ff"></line><line x1="651.4616928034918" y1="100.80128457340005" x2="596.362272291679" y2="162.1165614565783" stroke-opacity="0.2693318141453417" stroke-width="1" stroke="#00d9ff"></line><line x1="651.4616928034918" y1="100.80128457340005" x2="588.7927062392291" y2="151.17825479174087" stroke-opacity="0.2750069758258463" stroke-width="1" stroke="#00d9ff"></line><line x1="508.48471484583183" y1="418.99101880881057" x2="407.4427553699483" y2="387.77106369041917" stroke-opacity="0.20407719078342235" stroke-width="1" stroke="#00d9ff"></line><line x1="243.10377252276382" y1="225.86610300493524" x2="318.8491076295664" y2="263.81505781928655" stroke-opacity="0.2629376103411223" stroke-width="1" stroke="#00d9ff"></line><line x1="243.10377252276382" y1="225.86610300493524" x2="304.27957653067494" y2="266.70505312010863" stroke-opacity="0.2941801198356989" stroke-width="1" stroke="#00d9ff"></line><line x1="243.10377252276382" y1="225.86610300493524" x2="328.66745925019194" y2="370.984099787266" stroke-opacity="0.028604125314025786" stroke-width="1" stroke="#00d9ff"></line><line x1="243.10377252276382" y1="225.86610300493524" x2="384.79691879641786" y2="237.09820057134326" stroke-opacity="0.10227235061586637" stroke-width="1" stroke="#00d9ff"></line><line x1="243.10377252276382" y1="225.86610300493524" x2="145.8105201600688" y2="187.16562528462777" stroke-opacity="0.20700828264006604" stroke-width="1" stroke="#00d9ff"></line><line x1="243.10377252276382" y1="225.86610300493524" x2="122.88904651616775" y2="298.6481165342894" stroke-opacity="0.10676961373709559" stroke-width="1" stroke="#00d9ff"></line><line x1="557.5531645454884" y1="149.74018678024888" x2="596.362272291679" y2="162.1165614565783" stroke-opacity="0.3860165065932061" stroke-width="1" stroke="#00d9ff"></line><line x1="557.5531645454884" y1="149.74018678024888" x2="588.7927062392291" y2="151.17825479174087" stroke-opacity="0.4124933585979664" stroke-width="1" stroke="#00d9ff"></line><line x1="36.31692175673539" y1="153.9259680711418" x2="145.8105201600688" y2="187.16562528462777" stroke-opacity="0.17980962944898576" stroke-width="1" stroke="#00d9ff"></line><line x1="36.31692175673539" y1="153.9259680711418" x2="122.88904651616775" y2="298.6481165342894" stroke-opacity="0.028115585279709476" stroke-width="1" stroke="#00d9ff"></line><line x1="318.8491076295664" y1="263.81505781928655" x2="407.4427553699483" y2="387.77106369041917" stroke-opacity="0.07366499770376" stroke-width="1" stroke="#00d9ff"></line><line x1="318.8491076295664" y1="263.81505781928655" x2="304.27957653067494" y2="266.70505312010863" stroke-opacity="0.4584374302866747" stroke-width="1" stroke="#00d9ff"></line><line x1="318.8491076295664" y1="263.81505781928655" x2="328.66745925019194" y2="370.984099787266" stroke-opacity="0.19886513413751844" stroke-width="1" stroke="#00d9ff"></line><line x1="318.8491076295664" y1="263.81505781928655" x2="384.79691879641786" y2="237.09820057134326" stroke-opacity="0.3008975742689637" stroke-width="1" stroke="#00d9ff"></line><line x1="407.4427553699483" y1="387.77106369041917" x2="304.27957653067494" y2="266.70505312010863" stroke-opacity="0.054924492049487295" stroke-width="1" stroke="#00d9ff"></line><line x1="407.4427553699483" y1="387.77106369041917" x2="328.66745925019194" y2="370.984099787266" stroke-opacity="0.27462261293643486" stroke-width="1" stroke="#00d9ff"></line><line x1="407.4427553699483" y1="387.77106369041917" x2="384.79691879641786" y2="237.09820057134326" stroke-opacity="0.07365379689648588" stroke-width="1" stroke="#00d9ff"></line><line x1="94.92602254800397" y1="366.50058609897286" x2="122.88904651616775" y2="298.6481165342894" stroke-opacity="0.29464495992013556" stroke-width="1" stroke="#00d9ff"></line><line x1="596.362272291679" y1="162.1165614565783" x2="588.7927062392291" y2="151.17825479174087" stroke-opacity="0.4627783434346428" stroke-width="1" stroke="#00d9ff"></line><line x1="1124.403348401459" y1="402.2119420980686" x2="1179.3108785426625" y2="558.1833256020266" stroke-opacity="0.03730893466507801" stroke-width="1" stroke="#00d9ff"></line><line x1="1124.403348401459" y1="402.2119420980686" x2="1081.2932839335074" y2="372.11993809809877" stroke-opacity="0.3528886391059636" stroke-width="1" stroke="#00d9ff"></line><line x1="1139.7963188095175" y1="18.83689251386363" x2="1113.7275633858885" y2="31.6795553813793" stroke-opacity="0.41868322987600837" stroke-width="1" stroke="#00d9ff"></line><line x1="304.27957653067494" y1="266.70505312010863" x2="328.66745925019194" y2="370.984099787266" stroke-opacity="0.2003340784510122" stroke-width="1" stroke="#00d9ff"></line><line x1="304.27957653067494" y1="266.70505312010863" x2="384.79691879641786" y2="237.09820057134326" stroke-opacity="0.2599487129250442" stroke-width="1" stroke="#00d9ff"></line><line x1="304.27957653067494" y1="266.70505312010863" x2="145.8105201600688" y2="187.16562528462777" stroke-opacity="0.0038525129724629736" stroke-width="1" stroke="#00d9ff"></line><line x1="328.66745925019194" y1="370.984099787266" x2="384.79691879641786" y2="237.09820057134326" stroke-opacity="0.09377160581725996" stroke-width="1" stroke="#00d9ff"></line><line x1="717.1587157172443" y1="349.71468373293914" x2="773.6115680616493" y2="483.21482828932744" stroke-opacity="0.0944152779051245" stroke-width="1" stroke="#00d9ff"></line><line x1="2.227964412195995" y1="520.798041081099" x2="148.4044407902049" y2="579.8601238742319" stroke-opacity="0.05884483397272078" stroke-width="1" stroke="#00d9ff"></line><line x1="145.8105201600688" y1="187.16562528462777" x2="122.88904651616775" y2="298.6481165342894" stroke-opacity="0.18152578298276106" stroke-width="1" stroke="#00d9ff"></line><line x1="278.13636450494295" y1="568.4249017776173" x2="424.51334680737006" y2="577.9716332678016" stroke-opacity="0.08953966318503653" stroke-width="1" stroke="#00d9ff"></line><line x1="278.13636450494295" y1="568.4249017776173" x2="148.4044407902049" y2="579.8601238742319" stroke-opacity="0.13557835320677047" stroke-width="1" stroke="#00d9ff"></line><circle r="3.9252331178820894" cx="760.1903398832793" cy="505.5383667162818" fill="#302b63" opacity="0.8"></circle><circle r="4.109550083884996" cx="76.25288643842299" cy="155.14282368630782" fill="#302b63" opacity="0.8"></circle><circle r="2.777785643060732" cx="880.3351495324742" cy="332.20877365429794" fill="#302b63" opacity="0.8"></circle><circle r="3.294652803152853" cx="504.49981268821165" cy="180.87521201153788" fill="#302b63" opacity="0.8"></circle><circle r="3.859211395568937" cx="316.89721121562246" cy="44.87390064822497" fill="#302b63" opacity="0.8"></circle><circle r="2.0983667628011062" cx="63.44305110703058" cy="243.5921236052024" fill="#302b63" opacity="0.8"></circle><circle r="3.5710479218114903" cx="878.6980152345238" cy="421.5471631768399" fill="#302b63" opacity="0.8"></circle><circle r="3.536222972271272" cx="494.2116535384782" cy="83.18603084303514" fill="#302b63" opacity="0.8"></circle><circle r="3.2896981073893787" cx="147.74623683590366" cy="593.589397359179" fill="#302b63" opacity="0.8"></circle><circle r="3.184880576325987" cx="1016.7436890262593" cy="97.29393520224885" fill="#302b63" opacity="0.8"></circle><circle r="2.8351865816084163" cx="425.18129396532447" cy="448.44827570572005" fill="#302b63" opacity="0.8"></circle><circle r="4.068651084454304" cx="755.2751280569473" cy="576.1770618951266" fill="#302b63" opacity="0.8"></circle><circle r="2.972905673389616" cx="4.002965918496833" cy="358.0450095163184" fill="#302b63" opacity="0.8"></circle><circle r="3.844058140695277" cx="871.610783823807" cy="308.6611764391276" fill="#302b63" opacity="0.8"></circle><circle r="3.2578542065741307" cx="125.96315739787468" cy="551.9663949415716" fill="#302b63" opacity="0.8"></circle><circle r="4.494538859601235" cx="313.5885827838858" cy="263.1771899699932" fill="#302b63" opacity="0.8"></circle><circle r="3.8105824694396864" cx="891.9240637189893" cy="370.60356183011265" fill="#302b63" opacity="0.8"></circle><circle r="2.2865270773652604" cx="651.4616928034918" cy="100.80128457340005" fill="#302b63" opacity="0.8"></circle><circle r="3.3801446818109553" cx="508.48471484583183" cy="418.99101880881057" fill="#302b63" opacity="0.8"></circle><circle r="4.953296001866461" cx="243.10377252276382" cy="225.86610300493524" fill="#302b63" opacity="0.8"></circle><circle r="4.610362261592762" cx="803.8991577683157" cy="96.22906926516161" fill="#302b63" opacity="0.8"></circle><circle r="2.1251252957594806" cx="557.5531645454884" cy="149.74018678024888" fill="#302b63" opacity="0.8"></circle><circle r="2.2524516619235477" cx="36.31692175673539" cy="153.9259680711418" fill="#302b63" opacity="0.8"></circle><circle r="3.228926665351586" cx="318.8491076295664" cy="263.81505781928655" fill="#302b63" opacity="0.8"></circle><circle r="4.59655857279872" cx="407.4427553699483" cy="387.77106369041917" fill="#302b63" opacity="0.8"></circle><circle r="3.76693557418447" cx="94.92602254800397" cy="366.50058609897286" fill="#302b63" opacity="0.8"></circle><circle r="4.1860924305852745" cx="596.362272291679" cy="162.1165614565783" fill="#302b63" opacity="0.8"></circle><circle r="2.7521293478102535" cx="1124.403348401459" cy="402.2119420980686" fill="#302b63" opacity="0.8"></circle><circle r="2.6704800771316286" cx="1139.7963188095175" cy="18.83689251386363" fill="#302b63" opacity="0.8"></circle><circle r="2.711754037763214" cx="304.27957653067494" cy="266.70505312010863" fill="#302b63" opacity="0.8"></circle><circle r="3.6924662330194913" cx="1179.3108785426625" cy="558.1833256020266" fill="#302b63" opacity="0.8"></circle><circle r="3.5111794896354276" cx="1113.7275633858885" cy="31.6795553813793" fill="#302b63" opacity="0.8"></circle><circle r="2.092363114027112" cx="328.66745925019194" cy="370.984099787266" fill="#302b63" opacity="0.8"></circle><circle r="3.046078085263564" cx="588.7927062392291" cy="151.17825479174087" fill="#302b63" opacity="0.8"></circle><circle r="3.682600338010251" cx="717.1587157172443" cy="349.71468373293914" fill="#302b63" opacity="0.8"></circle><circle r="3.9760733073361445" cx="2.227964412195995" cy="520.798041081099" fill="#302b63" opacity="0.8"></circle><circle r="3.23395923442897" cx="384.79691879641786" cy="237.09820057134326" fill="#302b63" opacity="0.8"></circle><circle r="2.8859133341593655" cx="145.8105201600688" cy="187.16562528462777" fill="#302b63" opacity="0.8"></circle><circle r="4.693193971464581" cx="122.88904651616775" cy="298.6481165342894" fill="#302b63" opacity="0.8"></circle><circle r="3.472990975866514" cx="278.13636450494295" cy="568.4249017776173" fill="#302b63" opacity="0.8"></circle><circle r="2.6895240315318616" cx="1081.2932839335074" cy="372.11993809809877" fill="#302b63" opacity="0.8"></circle><circle r="4.733099860022696" cx="424.51334680737006" cy="577.9716332678016" fill="#302b63" opacity="0.8"></circle><circle r="4.250935007692882" cx="773.6115680616493" cy="483.21482828932744" fill="#302b63" opacity="0.8"></circle><circle r="3.2785145110275886" cx="148.4044407902049" cy="579.8601238742319" fill="#302b63" opacity="0.8"></circle><rect width="1200" height="270.4" x="0" y="299.6" fill="rgba(0,0,0,0.4)"></rect><text font-family="system-ui, -apple-system, sans-serif" font-size="64" font-weight="700" text-anchor="middle" fill="rgba(0,0,0,0.5)" x="602" y="397.628125"><tspan dy="0" x="602">Solar Panel Kits vs Power</tspan></text><text font-family="system-ui, -apple-system, sans-serif" font-size="64" font-weight="700" text-anchor="middle" fill="#ffffff" x="600" y="395.628125"><tspan dy="0" x="600">Solar Panel Kits vs Power</tspan></text><text font-family="system-ui, -apple-system, sans-serif" font-size="64" font-weight="700" text-anchor="middle" fill="rgba(0,0,0,0.5)" x="602" y="474.428125"><tspan dy="0" x="602">Stations: Which to Send to</tspan></text><text font-family="system-ui, -apple-system, sans-serif" font-size="64" font-weight="700" text-anchor="middle" fill="#ffffff" x="600" y="472.428125"><tspan dy="0" x="600">Stations: Which to Send to</tspan></text><text font-family="system-ui, -apple-system, sans-serif" font-size="64" font-weight="700" text-anchor="middle" fill="rgba(0,0,0,0.5)" x="602" y="551.2281250000001"><tspan dy="0" x="602">Cuba?</tspan></text><text font-family="system-ui, -apple-system, sans-serif" font-size="64" font-weight="700" text-anchor="middle" fill="#ffffff" x="600" y="549.2281250000001"><tspan dy="0" x="600">Cuba?</tspan></text><text font-family="system-ui, -apple-system, sans-serif" font-size="18" font-weight="500" fill="#ffffff" opacity="0.6" x="1070" y="614.2392578125"><tspan dy="0" x="1070">veguitas.com</tspan></text></svg>