<svg xmlns="http://www.w3.org/2000/svg" width="100%" height="100%" viewBox="0 0 1200 630" preserveAspectRatio="xMidYMid meet">
  <defs>
    <filter id="blur-5916086476344161" x="-20%" y="-20%" width="140%" height="140%">
      <feGaussianBlur in="SourceGraphic" stdDeviation="8" result="blur"/>
      <feColorMatrix in="blur" type="matrix" values="1 0 0 0 0.05  0 1 0 0 0.05  0 0 1 0 0.05  0 0 0 1 0" result="brighten"/>
    </filter>
    <clipPath id="clip-blur-5916086476344161">
      <rect x="40" y="211.0" width="1120" height="208.0" rx="32" ry="32"/>
    </clipPath>
  </defs>
  <rect width="1200" height="630" fill="#fafafa"/>
  <g>
    <path d="M 0 630 L 0 153.88532154295865 L 20 158.0292015249315 L 40 162.31989129496512 L 60 166.7370518470671 L 80 171.25974467023948 L 100 175.86653100256706 L 120 180.5355734566271 L 140 185.24473953449004 L 160 189.9717065416218 L 180 194.69406740236872 L 200 199.3894368754309 L 220 204.0355576658354 L 240 208.61040593040974 L 260 213.09229567663184 L 280 217.4599815599787 L 300 221.69275959248677 L 320 225.77056528513867 L 340 229.67406875885587 L 360 233.38476637324524 L 380 236.88506843875564 L 400 240.15838259646546 L 420 243.18919247025886 L 440 245.96313121855815 L 460 248.4670496369585 L 480 250.6890784889394 L 500 252.6186847691899 L 520 254.2467216328435 L 540 255.56547175394547 L 560 256.5686839076222 L 580 257.25160260254273 L 600 257.6109906232073 L 620 257.64514437520614 L 640 257.3539019607085 L 660 256.73864394590095 L 680 255.80228681673816 L 700 254.54926915402686 L 720 252.98553059337726 L 740 251.11848366975698 L 760 248.95697868011194 L 780 246.5112617306146 L 800 243.79292616740685 L 820 240.81485762106863 L 840 237.59117292531556 L 860 234.13715319946857 L 880 230.46917141190033 L 900 226.60461476782854 L 920 222.56180228935796 L 940 218.35989797846327 L 960 214.01881997454373 L 980 209.55914613716675 L 1000 205.00201650156316 L 1020 200.3690330692603 L 1040 195.68215740887368 L 1060 190.96360655245442 L 1080 186.2357476808727 L 1100 181.5209920974559 L 1120 176.8416889924749 L 1140 172.22001950206243 L 1160 167.6778915637526 L 1180 163.23683606705433 L 1200 158.91790479133198 L 1200 630 Z" fill="#76b041" opacity="0.47"/>
<path d="M 0 630 L 0 312.1157521105272 L 20 316.33206319612873 L 40 319.84213950783646 L 60 322.6128543637914 L 80 324.61805887678884 L 100 325.8388287369091 L 120 326.26364281150774 L 140 325.8884918770099 L 160 324.7169164563424 L 180 322.7599734049088 L 200 320.0361315604563 L 220 316.5710974416477 L 240 312.3975726403264 L 260 307.55494519710646 L 280 302.0889178729615 L 300 296.05107682503433 L 320 289.4984047573314 L 340 282.4927431409879 L 360 275.1002085794526 L 380 267.39056882670144 L 400 259.43658434736716 L 420 251.31332163287598 L 440 243.09744475423466 L 460 234.86649183750708 L 480 226.69814329031271 L 500 218.66948868552876 L 520 210.85629922105232 L 540 203.33231262185268 L 560 196.16853723311908 L 580 189.4325818721927 L 600 183.18801776386817 L 620 177.49377858086206 L 640 172.4036042516241 L 660 167.96553378460808 L 680 164.2214518955217 L 700 161.20669371630504 L 720 158.9497113164335 L 740 157.4718051837832 L 760 156.78692319923366 L 780 156.9015290022042 L 800 157.81454098943686 L 820 159.51734252273116 L 840 161.99386324929316 L 860 165.22073076723171 L 880 169.16749120484292 L 900 173.79689663194515 L 920 179.06525659079307 L 940 184.92285042896285 L 960 191.31439654277864 L 980 198.17957410274926 L 1000 205.4535923371824 L 1020 213.06780200130677 L 1040 220.95034326110397 L 1060 229.02682387738466 L 1080 237.22102128968098 L 1100 245.45560197397214 L 1120 253.6528512852343 L 1140 261.7354068968574 L 1160 269.6269889150223 L 1180 277.2531197775155 L 1200 284.54182714286554 L 1200 630 Z" fill="#ffc914" opacity="0.40"/>
<path d="M 0 630 L 0 353.2712746164042 L 20 351.3841851210425 L 40 349.1892336048201 L 60 346.6981958245601 L 80 343.92443601857053 L 100 340.88283520846824 L 120 337.5897113635696 L 140 334.0627318561602 L 160 330.3208186773146 L 180 326.3840469217771 L 200 322.27353708652373 L 220 318.0113417608173 L 240 313.62032731565364 L 260 309.1240512273281 L 280 304.5466356932716 L 300 299.9126382181983 L 320 295.2469198648616 L 340 290.5745118762423 L 360 285.92048138473285 L 380 281.30979692877713 L 400 276.7671944984597 L 420 272.31704482870003 L 440 267.9832226520152 L 460 263.7889786122985 L 480 259.75681452678987 L 500 255.9083626654464 L 520 252.26426969537184 L 540 248.84408591293462 L 560 245.66616035783534 L 580 242.74754237183032 L 600 240.1038901302409 L 620 237.74938663697006 L 640 235.69666363370828 L 660 233.95673383154863 L 680 232.53893182858496 L 700 231.45086403046537 L 720 230.69836784257345 L 740 230.28548035276899 L 760 230.21441667270216 L 780 230.48555805389918 L 800 231.09744984237517 L 820 232.04680928274814 L 840 233.32854312998512 L 860 234.9357749742951 L 880 236.8598821325724 L 900 239.0905419084703 L 920 241.6157869729241 L 940 244.4220695680093 L 960 247.49433418968752 L 980 250.8160983595015 L 1000 254.36954105188482 L 1020 258.1355983026813 L 1040 262.0940654859392 L 1060 266.22370571027506 L 1080 270.50236375326637 L 1100 274.9070849226244 L 1120 279.4142382064657 L 1140 283.9996430519885 L 1160 288.63869909239816 L 1180 293.3065181261025 L 1200 297.97805764012156 L 1200 630 Z" fill="#e4572e" opacity="0.74"/>
<path d="M 0 630 L 0 389.6397398677781 L 20 394.3583859773855 L 40 398.78345133096934 L 60 402.887790967298 L 80 406.6462273734068 L 100 410.0357049326252 L 120 413.03543135611926 L 140 415.6270052303586 L 160 417.79452889808306 L 180 419.5247059803179 L 200 420.8069229412015 L 220 421.6333141952763 L 240 421.99881035785273 L 260 421.9011693424596 L 280 421.3409901146184 L 300 420.32170901757104 L 320 418.8495786924996 L 340 416.9336297225501 L 360 414.58561523594886 L 380 411.819938808037 L 400 408.6535661044977 L 420 405.10592080778844 L 440 401.1987654652046 L 460 396.9560679894944 L 480 392.4038546309599 L 500 387.57005032296627 L 520 382.48430738023796 L 540 377.1778236007695 L 560 371.6831508871793 L 580 366.0339955614925 L 600 360.2650115982954 L 620 354.41158804464476 L 640 348.5096319307738 L 660 342.59534800330204 L 680 336.7050166321438 L 700 330.87477125351637 L 720 325.1403767142926 L 740 319.5370098774147 L 760 314.0990438342156 L 780 308.8598370473678 L 800 303.8515287179338 L 820 299.1048416318103 L 840 294.64889369497973 L 860 290.5110193136778 L 880 286.7166017151987 L 900 283.2889172379411 L 920 280.24899254587837 L 940 277.6154756433491 L 960 275.4045214814127 L 980 273.62969285750034 L 1000 272.30187721627993 L 1020 271.42921986210814 L 1040 271.0170739927696 L 1060 271.06796786101336 L 1080 271.5815892653305 L 1100 272.55478746511176 L 1120 273.9815925084373 L 1140 275.8532518539339 L 1160 278.15828406204935 L 1180 280.88254922638055 L 1200 284.0093357130056 L 1200 630 Z" fill="#76b041" opacity="0.69"/>
<path d="M 0 630 L 0 399.9895227357951 L 20 395.17195701144794 L 40 390.39281858682193 L 60 385.700082206506 L 80 381.1408552796746 L 100 376.7609049986339 L 120 372.6041989109576 L 140 368.712463557116 L 160 365.1247656041565 L 180 361.87711968016964 L 200 359.0021268462412 L 220 356.52864733504265 L 240 354.48151084122856 L 260 352.8812672718541 L 280 351.74398045886966 L 300 351.08106690448335 L 320 350.89918117812397 L 340 351.200149115432 L 360 351.98094948985164 L 380 353.2337443408115 L 400 354.9459576540476 L 420 357.100401604248 L 440 359.6754490927479 L 460 362.6452508482791 L 480 365.97999491143764 L 500 369.64620589806725 L 520 373.6070810374453 L 540 377.8228596119953 L 560 382.2512220899548 L 580 386.84771494435887 L 600 391.5661968938504 L 620 396.3593020857878 L 640 401.1789155720483 L 660 405.9766563045272 L 680 410.70436280184555 L 700 415.31457661196674 L 720 419.761018717547 L 740 423.99905410168765 L 760 427.98613981060714 L 780 431.6822520154173 L 800 435.05028778599916 L 820 438.0564375438253 L 840 440.6705244549115 L 860 442.8663073559452 L 880 444.62174417270927 L 900 445.919213186508 L 920 446.74568992744355 L 940 447.09287791882235 L 960 446.9572919602315 L 980 446.340293113259 L 1000 445.2480750386581 L 1020 443.69160182210885 L 1040 441.68649791270434 L 1060 439.2528912789988 L 1080 436.4152113570767 L 1100 433.20194381891133 L 1120 429.6453446227411 L 1140 425.78111621592825 L 1160 421.64804914069583 L 1180 417.28763264043596 L 1200 412.74363817546543 L 1200 630 Z" fill="#ffc914" opacity="0.57"/>
<path d="M 0 630 L 0 469.76457586421725 L 20 464.2512859934746 L 40 458.67290366932167 L 60 453.0579052816477 L 80 447.43495413712907 L 100 441.83275413948104 L 120 436.279903262471 L 140 430.8047475636802 L 160 425.4352364842411 L 180 420.19878017321264 L 200 415.12210956492055 L 220 410.2311399235366 L 240 405.5508385514705 L 260 401.10509733689446 L 280 396.91661079101556 L 300 393.0067601976891 L 320 389.39550446676304 L 340 386.10127824832176 L 360 383.1408978279351 L 380 380.5294752832937 L 400 378.2803413404443 L 420 376.40497732342453 L 440 374.9129565446806 L 460 373.81189543545526 L 480 373.10741466561603 L 500 372.80311045139644 L 520 372.9005361975195 L 540 373.3991945674152 L 560 374.2965400220117 L 580 375.58799181414173 L 600 377.26695737222815 L 620 379.324865953883 L 640 381.75121239762336 L 660 384.53361074936385 L 680 387.6578574899321 L 700 391.10800404084705 L 720 394.86643817823256 L 740 398.9139739392683 L 760 403.229949562224 L 780 407.7923329601165 L 800 412.5778341895688 L 820 417.56202434074567 L 840 422.71946024145467 L 860 428.0238143388314 L 880 433.44800909558813 L 900 438.9643552147651 L 920 444.5446929873774 L 940 450.1605360414104 L 960 455.7832167583556 L 980 461.3840326149696 L 1000 466.93439270321454 L 1020 472.4059636804266 L 1040 477.77081440467276 L 1060 483.0015585169614 L 1080 488.0714942424594 L 1100 492.9547406970603 L 1120 497.6263700034896 L 1140 502.06253454252436 L 1160 506.24058868973657 L 1180 510.1392044163251 L 1200 513.7384801639155 L 1200 630 Z" fill="#e4572e" opacity="0.52"/>
  </g>
  <g>
    <!-- Frosted glass effect: blurred copy of pattern behind text box -->
    <g clip-path="url(#clip-blur-5916086476344161)">
      <rect width="1200" height="630" fill="#fafafa"/>
      <g filter="url(#blur-5916086476344161)">
        <path d="M 0 630 L 0 153.88532154295865 L 20 158.0292015249315 L 40 162.31989129496512 L 60 166.7370518470671 L 80 171.25974467023948 L 100 175.86653100256706 L 120 180.5355734566271 L 140 185.24473953449004 L 160 189.9717065416218 L 180 194.69406740236872 L 200 199.3894368754309 L 220 204.0355576658354 L 240 208.61040593040974 L 260 213.09229567663184 L 280 217.4599815599787 L 300 221.69275959248677 L 320 225.77056528513867 L 340 229.67406875885587 L 360 233.38476637324524 L 380 236.88506843875564 L 400 240.15838259646546 L 420 243.18919247025886 L 440 245.96313121855815 L 460 248.4670496369585 L 480 250.6890784889394 L 500 252.6186847691899 L 520 254.2467216328435 L 540 255.56547175394547 L 560 256.5686839076222 L 580 257.25160260254273 L 600 257.6109906232073 L 620 257.64514437520614 L 640 257.3539019607085 L 660 256.73864394590095 L 680 255.80228681673816 L 700 254.54926915402686 L 720 252.98553059337726 L 740 251.11848366975698 L 760 248.95697868011194 L 780 246.5112617306146 L 800 243.79292616740685 L 820 240.81485762106863 L 840 237.59117292531556 L 860 234.13715319946857 L 880 230.46917141190033 L 900 226.60461476782854 L 920 222.56180228935796 L 940 218.35989797846327 L 960 214.01881997454373 L 980 209.55914613716675 L 1000 205.00201650156316 L 1020 200.3690330692603 L 1040 195.68215740887368 L 1060 190.96360655245442 L 1080 186.2357476808727 L 1100 181.5209920974559 L 1120 176.8416889924749 L 1140 172.22001950206243 L 1160 167.6778915637526 L 1180 163.23683606705433 L 1200 158.91790479133198 L 1200 630 Z" fill="#76b041" opacity="0.47"/>
<path d="M 0 630 L 0 312.1157521105272 L 20 316.33206319612873 L 40 319.84213950783646 L 60 322.6128543637914 L 80 324.61805887678884 L 100 325.8388287369091 L 120 326.26364281150774 L 140 325.8884918770099 L 160 324.7169164563424 L 180 322.7599734049088 L 200 320.0361315604563 L 220 316.5710974416477 L 240 312.3975726403264 L 260 307.55494519710646 L 280 302.0889178729615 L 300 296.05107682503433 L 320 289.4984047573314 L 340 282.4927431409879 L 360 275.1002085794526 L 380 267.39056882670144 L 400 259.43658434736716 L 420 251.31332163287598 L 440 243.09744475423466 L 460 234.86649183750708 L 480 226.69814329031271 L 500 218.66948868552876 L 520 210.85629922105232 L 540 203.33231262185268 L 560 196.16853723311908 L 580 189.4325818721927 L 600 183.18801776386817 L 620 177.49377858086206 L 640 172.4036042516241 L 660 167.96553378460808 L 680 164.2214518955217 L 700 161.20669371630504 L 720 158.9497113164335 L 740 157.4718051837832 L 760 156.78692319923366 L 780 156.9015290022042 L 800 157.81454098943686 L 820 159.51734252273116 L 840 161.99386324929316 L 860 165.22073076723171 L 880 169.16749120484292 L 900 173.79689663194515 L 920 179.06525659079307 L 940 184.92285042896285 L 960 191.31439654277864 L 980 198.17957410274926 L 1000 205.4535923371824 L 1020 213.06780200130677 L 1040 220.95034326110397 L 1060 229.02682387738466 L 1080 237.22102128968098 L 1100 245.45560197397214 L 1120 253.6528512852343 L 1140 261.7354068968574 L 1160 269.6269889150223 L 1180 277.2531197775155 L 1200 284.54182714286554 L 1200 630 Z" fill="#ffc914" opacity="0.40"/>
<path d="M 0 630 L 0 353.2712746164042 L 20 351.3841851210425 L 40 349.1892336048201 L 60 346.6981958245601 L 80 343.92443601857053 L 100 340.88283520846824 L 120 337.5897113635696 L 140 334.0627318561602 L 160 330.3208186773146 L 180 326.3840469217771 L 200 322.27353708652373 L 220 318.0113417608173 L 240 313.62032731565364 L 260 309.1240512273281 L 280 304.5466356932716 L 300 299.9126382181983 L 320 295.2469198648616 L 340 290.5745118762423 L 360 285.92048138473285 L 380 281.30979692877713 L 400 276.7671944984597 L 420 272.31704482870003 L 440 267.9832226520152 L 460 263.7889786122985 L 480 259.75681452678987 L 500 255.9083626654464 L 520 252.26426969537184 L 540 248.84408591293462 L 560 245.66616035783534 L 580 242.74754237183032 L 600 240.1038901302409 L 620 237.74938663697006 L 640 235.69666363370828 L 660 233.95673383154863 L 680 232.53893182858496 L 700 231.45086403046537 L 720 230.69836784257345 L 740 230.28548035276899 L 760 230.21441667270216 L 780 230.48555805389918 L 800 231.09744984237517 L 820 232.04680928274814 L 840 233.32854312998512 L 860 234.9357749742951 L 880 236.8598821325724 L 900 239.0905419084703 L 920 241.6157869729241 L 940 244.4220695680093 L 960 247.49433418968752 L 980 250.8160983595015 L 1000 254.36954105188482 L 1020 258.1355983026813 L 1040 262.0940654859392 L 1060 266.22370571027506 L 1080 270.50236375326637 L 1100 274.9070849226244 L 1120 279.4142382064657 L 1140 283.9996430519885 L 1160 288.63869909239816 L 1180 293.3065181261025 L 1200 297.97805764012156 L 1200 630 Z" fill="#e4572e" opacity="0.74"/>
<path d="M 0 630 L 0 389.6397398677781 L 20 394.3583859773855 L 40 398.78345133096934 L 60 402.887790967298 L 80 406.6462273734068 L 100 410.0357049326252 L 120 413.03543135611926 L 140 415.6270052303586 L 160 417.79452889808306 L 180 419.5247059803179 L 200 420.8069229412015 L 220 421.6333141952763 L 240 421.99881035785273 L 260 421.9011693424596 L 280 421.3409901146184 L 300 420.32170901757104 L 320 418.8495786924996 L 340 416.9336297225501 L 360 414.58561523594886 L 380 411.819938808037 L 400 408.6535661044977 L 420 405.10592080778844 L 440 401.1987654652046 L 460 396.9560679894944 L 480 392.4038546309599 L 500 387.57005032296627 L 520 382.48430738023796 L 540 377.1778236007695 L 560 371.6831508871793 L 580 366.0339955614925 L 600 360.2650115982954 L 620 354.41158804464476 L 640 348.5096319307738 L 660 342.59534800330204 L 680 336.7050166321438 L 700 330.87477125351637 L 720 325.1403767142926 L 740 319.5370098774147 L 760 314.0990438342156 L 780 308.8598370473678 L 800 303.8515287179338 L 820 299.1048416318103 L 840 294.64889369497973 L 860 290.5110193136778 L 880 286.7166017151987 L 900 283.2889172379411 L 920 280.24899254587837 L 940 277.6154756433491 L 960 275.4045214814127 L 980 273.62969285750034 L 1000 272.30187721627993 L 1020 271.42921986210814 L 1040 271.0170739927696 L 1060 271.06796786101336 L 1080 271.5815892653305 L 1100 272.55478746511176 L 1120 273.9815925084373 L 1140 275.8532518539339 L 1160 278.15828406204935 L 1180 280.88254922638055 L 1200 284.0093357130056 L 1200 630 Z" fill="#76b041" opacity="0.69"/>
<path d="M 0 630 L 0 399.9895227357951 L 20 395.17195701144794 L 40 390.39281858682193 L 60 385.700082206506 L 80 381.1408552796746 L 100 376.7609049986339 L 120 372.6041989109576 L 140 368.712463557116 L 160 365.1247656041565 L 180 361.87711968016964 L 200 359.0021268462412 L 220 356.52864733504265 L 240 354.48151084122856 L 260 352.8812672718541 L 280 351.74398045886966 L 300 351.08106690448335 L 320 350.89918117812397 L 340 351.200149115432 L 360 351.98094948985164 L 380 353.2337443408115 L 400 354.9459576540476 L 420 357.100401604248 L 440 359.6754490927479 L 460 362.6452508482791 L 480 365.97999491143764 L 500 369.64620589806725 L 520 373.6070810374453 L 540 377.8228596119953 L 560 382.2512220899548 L 580 386.84771494435887 L 600 391.5661968938504 L 620 396.3593020857878 L 640 401.1789155720483 L 660 405.9766563045272 L 680 410.70436280184555 L 700 415.31457661196674 L 720 419.761018717547 L 740 423.99905410168765 L 760 427.98613981060714 L 780 431.6822520154173 L 800 435.05028778599916 L 820 438.0564375438253 L 840 440.6705244549115 L 860 442.8663073559452 L 880 444.62174417270927 L 900 445.919213186508 L 920 446.74568992744355 L 940 447.09287791882235 L 960 446.9572919602315 L 980 446.340293113259 L 1000 445.2480750386581 L 1020 443.69160182210885 L 1040 441.68649791270434 L 1060 439.2528912789988 L 1080 436.4152113570767 L 1100 433.20194381891133 L 1120 429.6453446227411 L 1140 425.78111621592825 L 1160 421.64804914069583 L 1180 417.28763264043596 L 1200 412.74363817546543 L 1200 630 Z" fill="#ffc914" opacity="0.57"/>
<path d="M 0 630 L 0 469.76457586421725 L 20 464.2512859934746 L 40 458.67290366932167 L 60 453.0579052816477 L 80 447.43495413712907 L 100 441.83275413948104 L 120 436.279903262471 L 140 430.8047475636802 L 160 425.4352364842411 L 180 420.19878017321264 L 200 415.12210956492055 L 220 410.2311399235366 L 240 405.5508385514705 L 260 401.10509733689446 L 280 396.91661079101556 L 300 393.0067601976891 L 320 389.39550446676304 L 340 386.10127824832176 L 360 383.1408978279351 L 380 380.5294752832937 L 400 378.2803413404443 L 420 376.40497732342453 L 440 374.9129565446806 L 460 373.81189543545526 L 480 373.10741466561603 L 500 372.80311045139644 L 520 372.9005361975195 L 540 373.3991945674152 L 560 374.2965400220117 L 580 375.58799181414173 L 600 377.26695737222815 L 620 379.324865953883 L 640 381.75121239762336 L 660 384.53361074936385 L 680 387.6578574899321 L 700 391.10800404084705 L 720 394.86643817823256 L 740 398.9139739392683 L 760 403.229949562224 L 780 407.7923329601165 L 800 412.5778341895688 L 820 417.56202434074567 L 840 422.71946024145467 L 860 428.0238143388314 L 880 433.44800909558813 L 900 438.9643552147651 L 920 444.5446929873774 L 940 450.1605360414104 L 960 455.7832167583556 L 980 461.3840326149696 L 1000 466.93439270321454 L 1020 472.4059636804266 L 1040 477.77081440467276 L 1060 483.0015585169614 L 1080 488.0714942424594 L 1100 492.9547406970603 L 1120 497.6263700034896 L 1140 502.06253454252436 L 1160 506.24058868973657 L 1180 510.1392044163251 L 1200 513.7384801639155 L 1200 630 Z" fill="#e4572e" opacity="0.52"/>
      </g>
    </g>
    <!-- Semi-transparent white overlay -->
    <rect x="40" y="211.0" width="1120" height="208.0" rx="32" ry="32" fill="white" opacity="0.75"/>
    <text
          font-family="system-ui, -apple-system, sans-serif"
          font-size="64"
          font-weight="700"
          fill="#2e282a">
      <tspan x="600" y="297.4" text-anchor="middle">The Solar Panels You Need to</tspan>
      <tspan x="600" y="377.4" text-anchor="middle">Send to Cuba in 2026</tspan>
    </text>
  </g>
  <text x="1160" y="600"
        font-family="system-ui, -apple-system, sans-serif"
        font-size="20"
        font-weight="600"
        fill="#2e282a"
        opacity="0.5"
        text-anchor="end">
    veguitas.com
  </text>
</svg>