<svg xmlns="http://www.w3.org/2000/svg" width="100%" height="100%" viewBox="0 0 1200 630" preserveAspectRatio="xMidYMid meet">
  <defs>
    
    <linearGradient id="prism-bg-3w5" x1="0%" y1="0%" x2="100%" y2="100%">
      <stop offset="0%" stop-color="#fafafa"/>
      <stop offset="100%" stop-color="#f0f0f0"/>
    </linearGradient>
  
<filter id="filter-19rkcx4u40v-unused"/>
    <filter id="filter-19rkcx4u40v-blur" x="-20%" y="-20%" width="140%" height="140%">
      <feGaussianBlur in="SourceGraphic" stdDeviation="12"/>
    </filter>
    <filter id="filter-19rkcx4u40v-shadow" x="-50%" y="-50%" width="200%" height="200%">
      <feDropShadow dx="0" dy="4" stdDeviation="6" flood-color="rgba(0,0,0,0.2)"/>
    </filter>
  </defs>

  <!-- Pattern Background -->
  <g>
    <rect width="1200" height="630" fill="url(#prism-bg-3w5)"/>

        <polygon points="-28.6,-13.7 156.5,18.9 -5.1,106.7"
                 fill="#fb7185" opacity="0.33"/>
      

        <polygon points="156.5,18.9 168.9,84.2 -5.1,106.7"
                 fill="#06b6d4" opacity="0.29"/>
      

        <polygon points="156.5,18.9 313.5,1.6 168.9,84.2"
                 fill="#06b6d4" opacity="0.25"/>
      

        <polygon points="313.5,1.6 330.4,109.5 168.9,84.2"
                 fill="#06b6d4" opacity="0.40"/>
      

        <polygon points="313.5,1.6 463.1,-24.2 330.4,109.5"
                 fill="#f472b6" opacity="0.20"/>
      

        <polygon points="463.1,-24.2 454.0,100.2 330.4,109.5"
                 fill="#f472b6" opacity="0.53"/>
      

        <polygon points="463.1,-24.2 579.8,9.0 454.0,100.2"
                 fill="#06b6d4" opacity="0.43"/>
      

        <polygon points="579.8,9.0 601.5,130.8 454.0,100.2"
                 fill="#fb7185" opacity="0.30"/>
      

        <polygon points="579.8,9.0 766.3,-6.0 601.5,130.8"
                 fill="#8b5cf6" opacity="0.24"/>
      

        <polygon points="766.3,-6.0 730.0,82.5 601.5,130.8"
                 fill="#0ea5e9" opacity="0.44"/>
      

        <polygon points="766.3,-6.0 879.5,8.6 730.0,82.5"
                 fill="#8b5cf6" opacity="0.31"/>
      

        <polygon points="879.5,8.6 914.0,117.3 730.0,82.5"
                 fill="#06b6d4" opacity="0.31"/>
      

        <polygon points="879.5,8.6 1024.1,-5.9 914.0,117.3"
                 fill="#f472b6" opacity="0.22"/>
      

        <polygon points="1024.1,-5.9 1019.8,107.8 914.0,117.3"
                 fill="#0ea5e9" opacity="0.17"/>
      

        <polygon points="1024.1,-5.9 1220.2,-20.4 1019.8,107.8"
                 fill="#fb7185" opacity="0.55"/>
      

        <polygon points="1220.2,-20.4 1180.9,80.8 1019.8,107.8"
                 fill="#06b6d4" opacity="0.19"/>
      

        <polygon points="-5.1,106.7 168.9,84.2 15.7,213.7"
                 fill="#fb7185" opacity="0.48"/>
      

        <polygon points="168.9,84.2 151.7,212.4 15.7,213.7"
                 fill="#f472b6" opacity="0.22"/>
      

        <polygon points="168.9,84.2 330.4,109.5 151.7,212.4"
                 fill="#0ea5e9" opacity="0.48"/>
      

        <polygon points="330.4,109.5 298.7,193.6 151.7,212.4"
                 fill="#06b6d4" opacity="0.39"/>
      

        <polygon points="330.4,109.5 454.0,100.2 298.7,193.6"
                 fill="#f472b6" opacity="0.36"/>
      

        <polygon points="454.0,100.2 446.9,230.6 298.7,193.6"
                 fill="#06b6d4" opacity="0.20"/>
      

        <polygon points="454.0,100.2 601.5,130.8 446.9,230.6"
                 fill="#fb7185" opacity="0.25"/>
      

        <polygon points="601.5,130.8 631.6,217.5 446.9,230.6"
                 fill="#0ea5e9" opacity="0.48"/>
      

        <polygon points="601.5,130.8 730.0,82.5 631.6,217.5"
                 fill="#f472b6" opacity="0.55"/>
      

        <polygon points="730.0,82.5 754.4,184.4 631.6,217.5"
                 fill="#8b5cf6" opacity="0.25"/>
      

        <polygon points="730.0,82.5 914.0,117.3 754.4,184.4"
                 fill="#0ea5e9" opacity="0.17"/>
      

        <polygon points="914.0,117.3 877.8,226.8 754.4,184.4"
                 fill="#f472b6" opacity="0.51"/>
      

        <polygon points="914.0,117.3 1019.8,107.8 877.8,226.8"
                 fill="#0ea5e9" opacity="0.16"/>
      

        <polygon points="1019.8,107.8 1059.5,237.5 877.8,226.8"
                 fill="#fb7185" opacity="0.30"/>
      

        <polygon points="1019.8,107.8 1180.9,80.8 1059.5,237.5"
                 fill="#0ea5e9" opacity="0.44"/>
      

        <polygon points="1180.9,80.8 1207.1,216.9 1059.5,237.5"
                 fill="#8b5cf6" opacity="0.21"/>
      

        <polygon points="15.7,213.7 151.7,212.4 5.5,299.8"
                 fill="#0ea5e9" opacity="0.24"/>
      

        <polygon points="151.7,212.4 163.0,322.7 5.5,299.8"
                 fill="#fb7185" opacity="0.18"/>
      

        <polygon points="151.7,212.4 298.7,193.6 163.0,322.7"
                 fill="#0ea5e9" opacity="0.42"/>
      

        <polygon points="298.7,193.6 299.0,317.5 163.0,322.7"
                 fill="#06b6d4" opacity="0.39"/>
      

        <polygon points="298.7,193.6 446.9,230.6 299.0,317.5"
                 fill="#8b5cf6" opacity="0.45"/>
      

        <polygon points="446.9,230.6 469.7,283.1 299.0,317.5"
                 fill="#0ea5e9" opacity="0.34"/>
      

        <polygon points="446.9,230.6 631.6,217.5 469.7,283.1"
                 fill="#f472b6" opacity="0.31"/>
      

        <polygon points="631.6,217.5 616.6,315.2 469.7,283.1"
                 fill="#8b5cf6" opacity="0.40"/>
      

        <polygon points="631.6,217.5 754.4,184.4 616.6,315.2"
                 fill="#8b5cf6" opacity="0.53"/>
      

        <polygon points="754.4,184.4 734.7,297.9 616.6,315.2"
                 fill="#fb7185" opacity="0.48"/>
      

        <polygon points="754.4,184.4 877.8,226.8 734.7,297.9"
                 fill="#fb7185" opacity="0.51"/>
      

        <polygon points="877.8,226.8 904.4,330.7 734.7,297.9"
                 fill="#0ea5e9" opacity="0.38"/>
      

        <polygon points="877.8,226.8 1059.5,237.5 904.4,330.7"
                 fill="#8b5cf6" opacity="0.40"/>
      

        <polygon points="1059.5,237.5 1043.0,321.6 904.4,330.7"
                 fill="#8b5cf6" opacity="0.25"/>
      

        <polygon points="1059.5,237.5 1207.1,216.9 1043.0,321.6"
                 fill="#0ea5e9" opacity="0.32"/>
      

        <polygon points="1207.1,216.9 1177.6,327.8 1043.0,321.6"
                 fill="#06b6d4" opacity="0.40"/>
      

        <polygon points="5.5,299.8 163.0,322.7 -11.8,389.6"
                 fill="#8b5cf6" opacity="0.34"/>
      

        <polygon points="163.0,322.7 118.8,391.4 -11.8,389.6"
                 fill="#fb7185" opacity="0.21"/>
      

        <polygon points="163.0,322.7 299.0,317.5 118.8,391.4"
                 fill="#fb7185" opacity="0.45"/>
      

        <polygon points="299.0,317.5 286.3,439.1 118.8,391.4"
                 fill="#fb7185" opacity="0.16"/>
      

        <polygon points="299.0,317.5 469.7,283.1 286.3,439.1"
                 fill="#8b5cf6" opacity="0.36"/>
      

        <polygon points="469.7,283.1 455.9,417.5 286.3,439.1"
                 fill="#8b5cf6" opacity="0.16"/>
      

        <polygon points="469.7,283.1 616.6,315.2 455.9,417.5"
                 fill="#f472b6" opacity="0.26"/>
      

        <polygon points="616.6,315.2 623.3,440.1 455.9,417.5"
                 fill="#0ea5e9" opacity="0.36"/>
      

        <polygon points="616.6,315.2 734.7,297.9 623.3,440.1"
                 fill="#06b6d4" opacity="0.39"/>
      

        <polygon points="734.7,297.9 721.2,416.8 623.3,440.1"
                 fill="#f472b6" opacity="0.25"/>
      

        <polygon points="734.7,297.9 904.4,330.7 721.2,416.8"
                 fill="#06b6d4" opacity="0.55"/>
      

        <polygon points="904.4,330.7 885.8,422.5 721.2,416.8"
                 fill="#8b5cf6" opacity="0.29"/>
      

        <polygon points="904.4,330.7 1043.0,321.6 885.8,422.5"
                 fill="#06b6d4" opacity="0.43"/>
      

        <polygon points="1043.0,321.6 1038.6,441.8 885.8,422.5"
                 fill="#8b5cf6" opacity="0.19"/>
      

        <polygon points="1043.0,321.6 1177.6,327.8 1038.6,441.8"
                 fill="#0ea5e9" opacity="0.34"/>
      

        <polygon points="1177.6,327.8 1225.2,437.0 1038.6,441.8"
                 fill="#f472b6" opacity="0.42"/>
      

        <polygon points="-11.8,389.6 118.8,391.4 -7.9,531.8"
                 fill="#0ea5e9" opacity="0.49"/>
      

        <polygon points="118.8,391.4 165.0,519.6 -7.9,531.8"
                 fill="#f472b6" opacity="0.22"/>
      

        <polygon points="118.8,391.4 286.3,439.1 165.0,519.6"
                 fill="#8b5cf6" opacity="0.20"/>
      

        <polygon points="286.3,439.1 284.4,521.8 165.0,519.6"
                 fill="#f472b6" opacity="0.52"/>
      

        <polygon points="286.3,439.1 455.9,417.5 284.4,521.8"
                 fill="#fb7185" opacity="0.41"/>
      

        <polygon points="455.9,417.5 475.0,554.7 284.4,521.8"
                 fill="#06b6d4" opacity="0.41"/>
      

        <polygon points="455.9,417.5 623.3,440.1 475.0,554.7"
                 fill="#f472b6" opacity="0.16"/>
      

        <polygon points="623.3,440.1 590.8,516.8 475.0,554.7"
                 fill="#f472b6" opacity="0.23"/>
      

        <polygon points="623.3,440.1 721.2,416.8 590.8,516.8"
                 fill="#f472b6" opacity="0.31"/>
      

        <polygon points="721.2,416.8 733.4,541.5 590.8,516.8"
                 fill="#0ea5e9" opacity="0.42"/>
      

        <polygon points="721.2,416.8 885.8,422.5 733.4,541.5"
                 fill="#0ea5e9" opacity="0.51"/>
      

        <polygon points="885.8,422.5 893.5,529.3 733.4,541.5"
                 fill="#06b6d4" opacity="0.30"/>
      

        <polygon points="885.8,422.5 1038.6,441.8 893.5,529.3"
                 fill="#f472b6" opacity="0.27"/>
      

        <polygon points="1038.6,441.8 1056.4,509.6 893.5,529.3"
                 fill="#8b5cf6" opacity="0.40"/>
      

        <polygon points="1038.6,441.8 1225.2,437.0 1056.4,509.6"
                 fill="#06b6d4" opacity="0.43"/>
      

        <polygon points="1225.2,437.0 1220.3,527.4 1056.4,509.6"
                 fill="#06b6d4" opacity="0.17"/>
      

        <polygon points="-7.9,531.8 165.0,519.6 -20.7,646.8"
                 fill="#f472b6" opacity="0.51"/>
      

        <polygon points="165.0,519.6 172.3,636.0 -20.7,646.8"
                 fill="#8b5cf6" opacity="0.35"/>
      

        <polygon points="165.0,519.6 284.4,521.8 172.3,636.0"
                 fill="#8b5cf6" opacity="0.30"/>
      

        <polygon points="284.4,521.8 313.6,650.4 172.3,636.0"
                 fill="#f472b6" opacity="0.18"/>
      

        <polygon points="284.4,521.8 475.0,554.7 313.6,650.4"
                 fill="#8b5cf6" opacity="0.45"/>
      

        <polygon points="475.0,554.7 467.8,636.3 313.6,650.4"
                 fill="#fb7185" opacity="0.37"/>
      

        <polygon points="475.0,554.7 590.8,516.8 467.8,636.3"
                 fill="#8b5cf6" opacity="0.39"/>
      

        <polygon points="590.8,516.8 594.5,656.2 467.8,636.3"
                 fill="#0ea5e9" opacity="0.24"/>
      

        <polygon points="590.8,516.8 733.4,541.5 594.5,656.2"
                 fill="#06b6d4" opacity="0.20"/>
      

        <polygon points="733.4,541.5 750.5,629.5 594.5,656.2"
                 fill="#fb7185" opacity="0.47"/>
      

        <polygon points="733.4,541.5 893.5,529.3 750.5,629.5"
                 fill="#0ea5e9" opacity="0.20"/>
      

        <polygon points="893.5,529.3 919.7,653.2 750.5,629.5"
                 fill="#8b5cf6" opacity="0.53"/>
      

        <polygon points="893.5,529.3 1056.4,509.6 919.7,653.2"
                 fill="#f472b6" opacity="0.16"/>
      

        <polygon points="1056.4,509.6 1043.6,633.4 919.7,653.2"
                 fill="#f472b6" opacity="0.21"/>
      

        <polygon points="1056.4,509.6 1220.3,527.4 1043.6,633.4"
                 fill="#06b6d4" opacity="0.32"/>
      

        <polygon points="1220.3,527.4 1194.9,635.2 1043.6,633.4"
                 fill="#06b6d4" opacity="0.29"/>
      

        <polygon points="455.9,417.5 623.3,440.1 475.0,554.7"
                 fill="white" opacity="0.5"/>
      

        <polygon points="163.0,322.7 299.0,317.5 118.8,391.4"
                 fill="white" opacity="0.5"/>
      

        <polygon points="286.3,439.1 455.9,417.5 284.4,521.8"
                 fill="white" opacity="0.5"/>
      

        <polygon points="733.4,541.5 893.5,529.3 750.5,629.5"
                 fill="white" opacity="0.5"/>
      

        <polygon points="914.0,117.3 1019.8,107.8 877.8,226.8"
                 fill="white" opacity="0.5"/>
      

        <polygon points="455.9,417.5 623.3,440.1 475.0,554.7"
                 fill="white" opacity="0.5"/>
      

        <polygon points="298.7,193.6 446.9,230.6 299.0,317.5"
                 fill="white" opacity="0.5"/>
      

        <polygon points="156.5,18.9 313.5,1.6 168.9,84.2"
                 fill="white" opacity="0.5"/>
      
<line x1="313.5" y1="1.6" x2="463.1" y2="-24.2" stroke="#f472b6" stroke-width="1" opacity="0.3"/>
<line x1="463.1" y1="-24.2" x2="579.8" y2="9.0" stroke="#fb7185" stroke-width="1" opacity="0.3"/>
<line x1="463.1" y1="-24.2" x2="454.0" y2="100.2" stroke="#f472b6" stroke-width="1" opacity="0.3"/>
<line x1="879.5" y1="8.6" x2="1024.1" y2="-5.9" stroke="#8b5cf6" stroke-width="1" opacity="0.3"/>
<line x1="879.5" y1="8.6" x2="914.0" y2="117.3" stroke="#f472b6" stroke-width="1" opacity="0.3"/>
<line x1="1024.1" y1="-5.9" x2="1220.2" y2="-20.4" stroke="#8b5cf6" stroke-width="1" opacity="0.3"/>
<line x1="168.9" y1="84.2" x2="330.4" y2="109.5" stroke="#fb7185" stroke-width="1" opacity="0.3"/>
<line x1="601.5" y1="130.8" x2="730.0" y2="82.5" stroke="#fb7185" stroke-width="1" opacity="0.3"/>
<line x1="914.0" y1="117.3" x2="1019.8" y2="107.8" stroke="#8b5cf6" stroke-width="1" opacity="0.3"/>
<line x1="15.7" y1="213.7" x2="5.5" y2="299.8" stroke="#fb7185" stroke-width="1" opacity="0.3"/>
<line x1="151.7" y1="212.4" x2="298.7" y2="193.6" stroke="#f472b6" stroke-width="1" opacity="0.3"/>
<line x1="446.9" y1="230.6" x2="631.6" y2="217.5" stroke="#fb7185" stroke-width="1" opacity="0.3"/>
<line x1="631.6" y1="217.5" x2="754.4" y2="184.4" stroke="#8b5cf6" stroke-width="1" opacity="0.3"/>
<line x1="631.6" y1="217.5" x2="616.6" y2="315.2" stroke="#8b5cf6" stroke-width="1" opacity="0.3"/>
<line x1="754.4" y1="184.4" x2="734.7" y2="297.9" stroke="#fb7185" stroke-width="1" opacity="0.3"/>
<line x1="877.8" y1="226.8" x2="1059.5" y2="237.5" stroke="#fb7185" stroke-width="1" opacity="0.3"/>
<line x1="1059.5" y1="237.5" x2="1207.1" y2="216.9" stroke="#f472b6" stroke-width="1" opacity="0.3"/>
<line x1="163.0" y1="322.7" x2="299.0" y2="317.5" stroke="#f472b6" stroke-width="1" opacity="0.3"/>
<line x1="163.0" y1="322.7" x2="118.8" y2="391.4" stroke="#fb7185" stroke-width="1" opacity="0.3"/>
<line x1="469.7" y1="283.1" x2="616.6" y2="315.2" stroke="#fb7185" stroke-width="1" opacity="0.3"/>
<line x1="616.6" y1="315.2" x2="623.3" y2="440.1" stroke="#f472b6" stroke-width="1" opacity="0.3"/>
<line x1="904.4" y1="330.7" x2="885.8" y2="422.5" stroke="#f472b6" stroke-width="1" opacity="0.3"/>
<line x1="1043.0" y1="321.6" x2="1038.6" y2="441.8" stroke="#f472b6" stroke-width="1" opacity="0.3"/>
<line x1="118.8" y1="391.4" x2="286.3" y2="439.1" stroke="#fb7185" stroke-width="1" opacity="0.3"/>
<line x1="286.3" y1="439.1" x2="455.9" y2="417.5" stroke="#f472b6" stroke-width="1" opacity="0.3"/>
<line x1="455.9" y1="417.5" x2="475.0" y2="554.7" stroke="#fb7185" stroke-width="1" opacity="0.3"/>
<line x1="623.3" y1="440.1" x2="721.2" y2="416.8" stroke="#f472b6" stroke-width="1" opacity="0.3"/>
<line x1="721.2" y1="416.8" x2="733.4" y2="541.5" stroke="#fb7185" stroke-width="1" opacity="0.3"/>
<line x1="1038.6" y1="441.8" x2="1225.2" y2="437.0" stroke="#8b5cf6" stroke-width="1" opacity="0.3"/>
<line x1="1038.6" y1="441.8" x2="1056.4" y2="509.6" stroke="#8b5cf6" stroke-width="1" opacity="0.3"/>
<line x1="-7.9" y1="531.8" x2="165.0" y2="519.6" stroke="#8b5cf6" stroke-width="1" opacity="0.3"/>
<line x1="-7.9" y1="531.8" x2="-20.7" y2="646.8" stroke="#8b5cf6" stroke-width="1" opacity="0.3"/>
<line x1="165.0" y1="519.6" x2="284.4" y2="521.8" stroke="#f472b6" stroke-width="1" opacity="0.3"/>
<line x1="475.0" y1="554.7" x2="590.8" y2="516.8" stroke="#f472b6" stroke-width="1" opacity="0.3"/>
<line x1="475.0" y1="554.7" x2="467.8" y2="636.3" stroke="#f472b6" stroke-width="1" opacity="0.3"/>
<line x1="590.8" y1="516.8" x2="733.4" y2="541.5" stroke="#f472b6" stroke-width="1" opacity="0.3"/>
<line x1="733.4" y1="541.5" x2="893.5" y2="529.3" stroke="#f472b6" stroke-width="1" opacity="0.3"/>
<line x1="893.5" y1="529.3" x2="919.7" y2="653.2" stroke="#8b5cf6" stroke-width="1" opacity="0.3"/>
<line x1="1056.4" y1="509.6" x2="1043.6" y2="633.4" stroke="#8b5cf6" stroke-width="1" opacity="0.3"/>
  </g>

  <!-- Text Box with Frosted Glass (shadow only on box, not text) -->
  <g filter="url(#filter-19rkcx4u40v-shadow)">
    <g filter="url(#filter-19rkcx4u40v-blur)">
      <rect x="60" y="183.8" width="1080" height="262.4" rx="20" ry="20" fill="#ffffff"/>
    </g>
    <rect x="60" y="183.8" width="1080" height="262.4" rx="20" ry="20"
          fill="rgba(255, 255, 255, 0.8)"/>
  </g>

  <!-- Text (separate from shadow group) -->
  <text
        font-family="system-ui, -apple-system, BlinkMacSystemFont, 'Segoe UI', sans-serif"
        font-size="64"
        font-weight="700"
        fill="#2e282a">
    <tspan x="600" y="289.4" text-anchor="middle">The online toilet paper</tspan>
      <tspan x="600" y="372.6" text-anchor="middle">generation</tspan>
  </text>

  <!-- Watermark -->
  <text x="1160" y="605"
        font-family="system-ui, -apple-system, sans-serif"
        font-size="18"
        font-weight="600"
        fill="rgba(0,0,0,0.3)"
        text-anchor="end">
    veguitas.com
  </text>
</svg>