<svg xmlns="http://www.w3.org/2000/svg" version="1.1" xmlns:xlink="http://www.w3.org/1999/xlink" width="1200" height="630" viewBox="0 0 1200 630"><rect width="200" height="315" x="0" y="0" fill="#80deea"></rect><rect width="200" height="78.75" x="0" y="0" fill="#00bcd4"></rect><rect width="200" height="78.75" x="0" y="157.5" fill="#00bcd4"></rect><rect width="200" height="315" x="200" y="0" fill="#80deea"></rect><path d="M 200 0 A 200 315 0 0 1 400 315 L 200 315 Z" fill="#00bcd4"></path><rect width="200" height="315" x="400" y="0" fill="#80deea"></rect><path d="M 400 315 A 100 157.5 0 0 1 600 315 Z" fill="#80deea"></path><rect width="200" height="315" x="600" y="0" fill="#26c6da"></rect><polygon points="600,0 800,0 800,315" fill="#26c6da"></polygon><rect width="200" height="315" x="800" y="0" fill="#80deea"></rect><path d="M 800 0 A 200 315 0 0 1 1000 315 L 800 315 Z" fill="#00bcd4"></path><rect width="200" height="315" x="1000" y="0" fill="#006266"></rect><circle r="85" cx="1100" cy="157.5" fill="#80deea"></circle><rect width="200" height="315" x="0" y="315" fill="#00bcd4"></rect><path d="M 0 315 A 200 315 0 0 1 200 630 L 0 630 Z" fill="#009688"></path><rect width="200" height="315" x="200" y="315" fill="#006266"></rect><path d="M 200 315 A 200 315 0 0 1 400 630 L 200 630 Z" fill="#80deea"></path><rect width="200" height="315" x="400" y="315" fill="#80deea"></rect><polygon points="400,315 600,315 600,630" fill="#00bcd4"></polygon><rect width="200" height="315" x="600" y="315" fill="#006266"></rect><path d="M 600 315 A 200 315 0 0 1 800 630 L 600 630 Z" fill="#26c6da"></path><rect width="200" height="315" x="800" y="315" fill="#00bcd4"></rect><circle r="30" cx="850" cy="393.75" fill="#006266"></circle><circle r="30" cx="950" cy="393.75" fill="#006266"></circle><circle r="30" cx="850" cy="551.25" fill="#006266"></circle><circle r="30" cx="950" cy="551.25" fill="#006266"></circle><rect width="200" height="315" x="1000" y="315" fill="#006266"></rect><polygon points="1000,315 1000,630 1200,630" fill="#009688"></polygon><rect width="1200" height="193.6" x="0" y="376.4" fill="rgba(0,0,0,0.4)"></rect><text font-family="system-ui, -apple-system, sans-serif" font-size="64" font-weight="700" text-anchor="middle" fill="rgba(0,0,0,0.5)" x="602" y="474.42812499999997"><tspan dy="0" x="602">The online toilet paper</tspan></text><text font-family="system-ui, -apple-system, sans-serif" font-size="64" font-weight="700" text-anchor="middle" fill="#ffffff" x="600" y="472.42812499999997"><tspan dy="0" x="600">The online toilet paper</tspan></text><text font-family="system-ui, -apple-system, sans-serif" font-size="64" font-weight="700" text-anchor="middle" fill="rgba(0,0,0,0.5)" x="602" y="551.228125"><tspan dy="0" x="602">generation</tspan></text><text font-family="system-ui, -apple-system, sans-serif" font-size="64" font-weight="700" text-anchor="middle" fill="#ffffff" x="600" y="549.228125"><tspan dy="0" x="600">generation</tspan></text><text font-family="system-ui, -apple-system, sans-serif" font-size="18" font-weight="500" fill="#ffffff" opacity="0.6" x="1070" y="614.2392578125"><tspan dy="0" x="1070">veguitas.com</tspan></text></svg>