<svg xmlns="http://www.w3.org/2000/svg" version="1.1" xmlns:xlink="http://www.w3.org/1999/xlink" width="1200" height="630" viewBox="0 0 1200 630"><rect width="240" height="210" x="0" y="0" fill="#ffa07a"></rect><path d="M 0 210 A 120 105 0 0 1 240 210 Z" fill="#ff6347"></path><rect width="240" height="210" x="240" y="0" fill="#ffb6c1"></rect><rect width="240" height="52.5" x="240" y="0" fill="#ff6347"></rect><rect width="240" height="52.5" x="240" y="105" fill="#ff6347"></rect><rect width="240" height="210" x="480" y="0" fill="#ffb6c1"></rect><path d="M 480 210 A 120 105 0 0 1 720 210 Z" fill="#ff7f50"></path><rect width="240" height="210" x="720" y="0" fill="#ffd700"></rect><circle r="89.25" cx="840" cy="105" fill="#ff6347"></circle><rect width="240" height="210" x="960" y="0" fill="#ffa07a"></rect><polygon points="960,0 1200,0 1200,210" fill="#ffa07a"></polygon><rect width="240" height="210" x="0" y="210" fill="#ffb6c1"></rect><path d="M 0 210 A 240 210 0 0 1 240 420 L 0 420 Z" fill="#ff6347"></path><rect width="240" height="210" x="240" y="210" fill="#ffb6c1"></rect><circle r="89.25" cx="360" cy="315" fill="#ffb6c1"></circle><circle r="52.5" cx="360" cy="315" fill="#ffb6c1"></circle><rect width="240" height="210" x="480" y="210" fill="#ffa07a"></rect><path d="M 480 210 A 240 210 0 0 1 720 420 L 480 420 Z" fill="#ffa07a"></path><rect width="240" height="210" x="720" y="210" fill="#ffd700"></rect><path d="M 720 210 A 240 210 0 0 1 960 420 L 720 420 Z" fill="#ffb6c1"></path><rect width="240" height="210" x="960" y="210" fill="#ff6347"></rect><circle r="89.25" cx="1080" cy="315" fill="#ffa07a"></circle><rect width="240" height="210" x="0" y="420" fill="#ffb6c1"></rect><rect width="240" height="52.5" x="0" y="420" fill="#ff7f50"></rect><rect width="240" height="52.5" x="0" y="525" fill="#ff7f50"></rect><rect width="240" height="210" x="240" y="420" fill="#ff6347"></rect><path d="M 240 630 A 120 105 0 0 1 480 630 Z" fill="#ff6347"></path><rect width="240" height="210" x="480" y="420" fill="#ff6347"></rect><circle r="31.5" cx="540" cy="472.5" fill="#ffd700"></circle><circle r="31.5" cx="660" cy="472.5" fill="#ffd700"></circle><circle r="31.5" cx="540" cy="577.5" fill="#ffd700"></circle><circle r="31.5" cx="660" cy="577.5" fill="#ffd700"></circle><rect width="240" height="210" x="720" y="420" fill="#ff6347"></rect><circle r="31.5" cx="780" cy="472.5" fill="#ffb6c1"></circle><circle r="31.5" cx="900" cy="472.5" fill="#ffb6c1"></circle><circle r="31.5" cx="780" cy="577.5" fill="#ffb6c1"></circle><circle r="31.5" cx="900" cy="577.5" fill="#ffb6c1"></circle><rect width="240" height="210" x="960" y="420" fill="#ff6347"></rect><circle r="89.25" cx="1080" cy="525" fill="#ffa07a"></circle><circle r="52.5" cx="1080" cy="525" fill="#ff6347"></circle></svg>